<svg width="24" height="12" viewBox="0 0 24 12" fill="none" xmlns="http://www.w3.org/2000/svg">
<path d="M22.1379 0.313976L12.7679 9.53598C12.5635 9.73823 12.2875 9.85168 11.9999 9.85168C11.7123 9.85168 11.4363 9.73823 11.2319 9.53598L1.86189 0.315977C1.65618 0.113826 1.37931 0.000553131 1.09089 0.000553131C0.802481 0.000553131 0.525606 0.113826 0.319895 0.315977C0.218597 0.414731 0.138094 0.532763 0.0831261 0.663116C0.0281582 0.79347 -0.000160217 0.933509 -0.000160217 1.07498C-0.000160217 1.21645 0.0281582 1.35648 0.0831261 1.48684C0.138094 1.61719 0.218597 1.73522 0.319895 1.83398L9.68789 11.054C10.3049 11.6598 11.1351 11.9993 11.9999 11.9993C12.8646 11.9993 13.6949 11.6598 14.3119 11.054L23.6799 1.83398C23.7815 1.73519 23.8623 1.61704 23.9174 1.4865C23.9726 1.35596 24.001 1.21569 24.001 1.07398C24.001 0.932266 23.9726 0.791996 23.9174 0.661457C23.8623 0.530918 23.7815 0.412762 23.6799 0.313976C23.4742 0.111825 23.1973 -0.00144768 22.9089 -0.00144768C22.6205 -0.00144768 22.3436 0.111825 22.1379 0.313976Z" fill="#3A1F17"/>
</svg>
