<svg width="166" height="191" viewBox="0 0 166 191" fill="none" xmlns="http://www.w3.org/2000/svg">
<path fill-rule="evenodd" clip-rule="evenodd" d="M0 82.7654C0.013541 60.81 8.76414 39.7584 24.3282 24.2383C39.8922 8.71827 60.9959 -4.15724e-06 83 0C128.829 0 166 37.0635 166 82.7654C166 116.835 148.915 143.833 130.604 162.078C122.498 170.177 113.428 177.254 103.597 183.152C99.4851 185.572 95.6415 187.483 92.296 188.783C89.142 190.032 85.8348 191 83 191C80.1652 191 76.858 190.032 73.704 188.783C69.7992 187.195 66.0213 185.312 62.4032 183.152C52.5723 177.254 43.5024 170.177 35.3963 162.078C17.0852 143.833 0 116.835 0 82.7654ZM83 50.9257C74.5335 50.9257 66.4137 54.2816 60.427 60.2551C54.4402 66.2286 51.0769 74.3303 51.0769 82.7781C51.0769 91.2259 54.4402 99.3277 60.427 105.301C66.4137 111.275 74.5335 114.631 83 114.631C91.4665 114.631 99.5863 111.275 105.573 105.301C111.56 99.3277 114.923 91.2259 114.923 82.7781C114.923 74.3303 111.56 66.2286 105.573 60.2551C99.5863 54.2816 91.4665 50.9257 83 50.9257Z" fill="#3A1F17"/>
<rect x="42" y="45" width="84" height="81" fill="#3A1F17"/>
<path d="M87.7718 75.9049C83.7862 75.8879 79.8175 75.8879 75.8318 75.8709C75.1195 75.8709 75.1704 76.3289 75.1704 76.7868C75.1704 80.1788 75.1704 83.5709 75.1704 86.946C75.1704 88.5911 75.1534 90.2193 75.1874 91.8644C75.2043 92.475 74.9838 92.7294 74.3563 92.7124C73.0504 92.6785 71.7614 92.7124 70.4555 92.7294C69.9806 92.6446 69.4548 92.8651 69.0138 92.5259C69.0138 92.3902 69.0308 92.2375 69.0308 92.1019C69.0308 80.6876 69.0308 69.2734 69.0308 57.8592C69.0308 56.9264 68.8782 56.7738 67.8436 56.7738C64.6211 56.7568 61.3987 56.7568 58.1763 56.7568C58.1763 49.3621 58.1763 41.9505 58.1763 34.5559C58.1763 33.3348 58.1763 33.3348 59.3974 33.3348C69.9127 33.3348 80.4111 33.3517 90.9264 33.3517C92.6733 33.3517 94.4202 33.3348 96.1841 33.3178C96.2858 33.3178 96.3876 33.3178 96.5063 33.3178C97.1508 33.9792 97.2017 34.7764 97.2017 35.6583C97.1847 54.1788 97.1847 72.6994 97.2017 91.203C97.2017 91.7627 97.1339 92.2715 96.8625 92.7463C96.7438 92.7463 96.625 92.7463 96.5063 92.7463C96.1162 92.2715 95.6922 92.7294 95.2852 92.7124C93.3178 92.6616 91.3335 92.6785 89.3491 92.6785C88.0262 92.6785 88.0262 92.6785 88.0262 91.3895C88.0262 86.505 88.0262 81.6205 87.9923 76.7359C88.0262 76.4815 88.2806 76.0575 87.7718 75.9049ZM91.7235 45.0543C91.8253 44.9864 91.9101 44.9186 92.0119 44.8677C92.1984 43.5787 92.0628 42.2728 92.0967 40.9838C92.1136 40.5768 91.8592 40.458 91.5031 40.458C89.2134 40.458 86.9408 40.458 84.6511 40.458C84.2271 40.458 84.0406 40.6446 84.0406 41.0686C84.0575 42.3406 84.0745 43.6126 84.0915 44.8677C84.2102 44.9355 84.3119 45.0034 84.4307 45.0712C84.6511 45.1221 84.8547 45.1899 85.0752 45.1899C87.0595 45.2069 89.0438 45.1899 91.0282 45.1899C91.2487 45.2069 91.5031 45.2239 91.7235 45.0543ZM73.5422 45.0712C73.8136 45.2578 74.1358 45.2069 74.4411 45.2069C76.0354 45.2069 77.6296 45.2239 79.2239 45.2069C79.6648 45.2069 80.1228 45.3256 80.5468 45.0712C80.8521 44.8677 80.8181 44.5454 80.8181 44.2402C80.8181 43.2565 80.8012 42.2728 80.8181 41.2891C80.8351 40.6276 80.5977 40.3393 79.9193 40.492C77.884 40.475 75.8658 40.475 73.8305 40.4411C73.3726 40.4411 73.1521 40.5937 73.1521 41.0686C73.1691 42.3406 73.186 43.5957 73.203 44.8677C73.3217 44.9355 73.4235 45.0034 73.5422 45.0712ZM80.7164 62.5233C80.6655 62.5063 80.6146 62.4554 80.5637 62.4554C78.2063 62.2519 75.8488 62.4215 73.5083 62.4215C73.203 62.4215 73.0504 62.625 73.0673 62.9133C73.1013 64.2871 72.9486 65.6609 73.186 67.0347C73.2878 67.1025 73.3726 67.2043 73.4744 67.2043C75.8488 67.2212 78.2063 67.2382 80.5807 67.2382C80.9538 67.2382 81.1234 67.0008 81.0725 66.6107C80.9029 65.5761 81.0217 64.5246 80.9877 63.49C80.9369 63.1338 80.9877 62.7946 80.7164 62.5233ZM88.0262 56.0784C88.0262 56.0953 88.0262 56.0953 88.0262 56.0784C89.1286 56.0784 90.2311 56.0784 91.3335 56.0953C91.8592 56.1123 92.1136 55.9088 92.0967 55.3491C92.0797 54.2976 92.0797 53.263 92.0967 52.2115C92.0967 51.7366 91.961 51.4652 91.4183 51.4822C89.1795 51.4991 86.9577 51.4991 84.719 51.4822C84.2611 51.4822 84.0575 51.6687 84.0575 52.1267C84.0745 53.2291 84.0745 54.3315 84.0575 55.4339C84.0575 55.9088 84.2611 56.0784 84.719 56.0784C85.8214 56.0784 86.9238 56.0784 88.0262 56.0784ZM88.0093 66.916C89.0778 66.916 90.1463 66.899 91.2317 66.916C91.7575 66.9329 92.0119 66.7464 91.9949 66.1867C91.978 65.1351 91.978 64.1006 91.9949 63.049C92.0119 62.4893 91.7405 62.3197 91.2147 62.3197C89.0947 62.3367 86.9747 62.3367 84.8716 62.3197C84.2611 62.3197 84.0915 62.5741 84.0915 63.1338C84.1084 64.1175 84.1254 65.1182 84.0915 66.1019C84.0745 66.7464 84.3459 66.9329 84.9564 66.916C85.991 66.899 87.0086 66.916 88.0093 66.916ZM76.8664 56.0784C77.9349 56.0953 79.0034 56.0784 80.0889 56.0953C80.5977 56.0953 80.8012 55.8918 80.8012 55.383C80.7842 54.3145 80.7673 53.246 80.7842 52.1606C80.7842 51.6687 80.5298 51.5331 80.0889 51.5331C77.9688 51.5331 75.8658 51.5331 73.7457 51.5161C73.2369 51.5161 73.0334 51.7366 73.0504 52.2284C73.0673 53.28 73.0843 54.3145 73.0504 55.3661C73.0334 55.9257 73.2878 56.0953 73.8136 56.0953C74.8312 56.0614 75.8488 56.0784 76.8664 56.0784ZM65.9271 40.1528C65.13 40.1528 64.3498 40.1528 63.5527 40.1528C62.0262 40.1528 62.0262 40.1528 61.8906 41.5774C61.8906 41.6113 61.8906 41.6283 61.8736 41.6622C61.4666 42.4254 61.6701 43.2734 61.6362 44.0706C61.6022 45.0882 62.569 45.7835 63.5187 45.4104C63.9258 45.2578 64.3328 45.2069 64.7568 45.2069C66.1136 45.2069 67.4705 45.1899 68.8103 45.2408C69.4718 45.2578 69.7431 45.0034 69.7431 44.3589C69.7431 43.46 69.7601 42.5781 69.9975 41.6961C70.3028 40.5428 69.8958 40.1528 68.7086 40.1528C67.7927 40.1528 66.8599 40.1528 65.9271 40.1528Z" fill="#FAC306"/>
<path d="M107.361 75.5658C107.361 70.2063 107.378 64.8299 107.344 59.4705C107.344 58.7752 107.548 58.3003 108.124 57.9102C108.735 57.5031 109.295 57.0282 109.854 56.5534C110.244 56.2311 110.668 56.0954 111.177 56.0954C117.503 56.0785 123.83 56.0615 130.156 56.0446C130.749 56.0446 131.241 56.2311 131.699 56.6212C133.989 58.5886 133.989 58.5886 133.989 61.5905C133.989 71.6479 133.989 81.7053 133.989 91.7627C133.989 92.7973 133.955 92.8482 132.886 92.8482C130.342 92.8652 127.798 92.8482 125.254 92.8821C124.542 92.8991 124.321 92.6447 124.321 91.9493C124.338 89.2187 124.372 86.4712 124.203 83.7406C124.118 82.299 123.83 80.9252 122.625 79.9584C121.201 78.8221 118.996 79.2122 118.046 80.7725C117.402 81.7902 117.045 82.8926 116.995 84.1137C116.893 86.7425 116.893 89.3714 116.91 91.9832C116.91 92.5938 116.723 92.8482 116.096 92.8482C113.501 92.8312 110.906 92.8143 108.294 92.8482C107.514 92.8652 107.361 92.5429 107.361 91.8475C107.378 86.4203 107.378 80.993 107.378 75.5827C107.378 75.5658 107.361 75.5658 107.361 75.5658ZM128.392 61.1835C128.341 61.2005 128.29 61.2344 128.239 61.2513C128.137 61.2344 128.019 61.1835 127.917 61.1835C126.034 61.0309 126.034 61.0309 126.034 62.8795C126.034 64.9995 126.034 64.9995 128.222 64.8299C128.324 64.8299 128.409 64.8469 128.511 64.8469C129.036 64.8639 129.562 64.8808 130.105 64.8808C130.393 64.8808 130.749 64.8299 130.749 64.4907C130.766 63.3883 130.987 62.269 130.614 61.2005C130.563 61.2005 130.529 61.2005 130.478 61.2005C129.918 61.2005 129.359 61.2005 128.782 61.1835C128.731 61.1665 128.68 61.1665 128.612 61.1665C128.528 61.1835 128.46 61.1835 128.392 61.1835ZM120.658 69.6297C120.726 69.6297 120.777 69.6127 120.845 69.6127C120.895 69.6127 120.946 69.6127 120.997 69.6297C121.438 69.8841 121.93 69.7993 122.405 69.7654C122.812 69.7484 122.999 69.494 122.999 69.087C122.999 66.6277 122.999 64.1855 122.999 61.7262C122.999 61.4549 122.914 61.1665 122.608 61.1665C121.15 61.1835 119.691 60.9461 118.25 61.2853C118.25 62.5403 118.267 63.7954 118.267 65.0504C117.724 66.509 118.267 68.0015 118.063 69.477C118.063 69.511 118.199 69.5618 118.267 69.5958C118.996 69.5958 119.725 69.5958 120.454 69.6127C120.505 69.6297 120.573 69.6297 120.658 69.6297ZM113.009 61.1835C112.873 61.2005 112.738 61.2005 112.619 61.2174C110.295 60.963 110.295 60.963 110.312 63.2018C110.312 65.1183 110.533 65.2879 112.483 64.9147C112.534 64.8978 112.585 64.8808 112.636 64.8469C112.755 64.813 112.89 64.796 113.009 64.7621C113.179 64.813 113.348 64.8469 113.518 64.8978L113.586 64.9147H113.653C114.196 64.9656 115.01 65.3896 115.129 64.5586C115.282 63.4731 115.383 62.3198 115.044 61.2174C114.875 61.2174 114.705 61.2005 114.535 61.2005C114.484 61.1835 114.434 61.1835 114.383 61.2005C114.264 61.2005 114.145 61.2005 114.027 61.2005C113.67 61.1835 113.331 61.1835 113.009 61.1835ZM112.89 74.0054C113.636 73.9376 114.417 74.175 115.146 73.8697C115.163 73.8189 115.163 73.751 115.18 73.7001C115.18 73.5814 115.18 73.4796 115.18 73.3609C115.18 73.1404 115.18 72.903 115.18 72.6825C115.18 72.5808 115.18 72.462 115.18 72.3603C115.18 72.2416 115.18 72.1228 115.18 72.0041C115.18 71.0035 115.18 69.9858 115.18 68.9852C115.18 68.8665 115.18 68.7308 115.18 68.6121C115.349 67.8489 115.044 67.5436 114.247 67.5945C113.111 67.6623 111.957 67.6284 110.821 67.6453C110.702 67.6284 110.584 67.6284 110.465 67.6114C110.058 67.781 110.126 68.1541 110.126 68.4764C110.126 69.918 110.126 71.3427 110.126 72.7843C110.126 74.2598 110.872 74.7856 112.297 74.2937C112.483 74.2259 112.687 74.1072 112.89 74.0054ZM115.163 79.4666C115.163 78.9069 115.163 78.3303 115.146 77.7706C115.163 77.0413 115.146 76.312 115.18 75.5827C115.214 74.9552 114.925 74.7347 114.332 74.7517C113.382 74.7686 112.415 74.7347 111.466 74.7347C110.278 74.7347 110.194 74.8704 110.431 76.0915C110.431 76.4816 110.431 76.8717 110.448 77.2618C110.448 77.5501 110.448 77.8215 110.465 78.1098C110.465 78.2285 110.465 78.3303 110.465 78.449C110.431 79.7888 110.431 79.7888 111.771 79.7888C112.653 79.7888 113.518 79.8058 114.4 79.7888C114.688 79.7888 115.044 79.9076 115.163 79.4666ZM120.963 77.2109C121.319 77.2279 121.693 77.2109 122.049 77.2448C122.744 77.3127 122.999 77.0413 122.982 76.3459C122.931 75.1417 122.948 73.9376 122.948 72.7334C122.184 72.0041 121.37 72.3942 120.573 72.6486C120.081 72.496 119.573 72.5808 119.064 72.5468C118.47 72.5129 118.25 72.7843 118.267 73.3609C118.284 74.0393 118.267 74.7177 118.267 75.3792C118.267 77.4314 118.334 77.4823 120.404 77.1939C120.454 77.1939 120.505 77.16 120.573 77.143C120.709 77.177 120.828 77.1939 120.963 77.2109ZM128.07 74.7347C127.68 74.7177 127.272 74.7177 126.882 74.6838C126.272 74.6329 126 74.8534 126.034 75.4979C126.068 76.5664 126.068 77.6519 126.034 78.7204C126.017 79.3988 126.306 79.6532 126.95 79.6023C127.34 79.5684 127.747 79.6871 128.104 79.4666C128.205 79.4666 128.307 79.4666 128.426 79.4666C128.85 79.721 129.308 79.5684 129.749 79.6192C130.41 79.704 130.665 79.3988 130.648 78.7543C130.614 78.1098 130.665 77.4653 130.648 76.8038C130.58 74.5142 131.19 74.6838 128.46 74.7517C128.307 74.7517 128.188 74.7347 128.07 74.7347ZM128.426 73.6662C128.799 73.9545 129.24 73.8019 129.647 73.8528C130.393 73.9376 130.698 73.6323 130.665 72.8521C130.597 71.614 130.665 70.3929 130.631 69.1548C130.614 68.6969 130.766 68.1881 130.444 67.7641C129.223 67.4588 127.985 67.7301 126.764 67.6284C126.17 67.5775 125.967 67.8828 125.967 68.4255C125.967 69.6636 125.967 70.9017 125.967 72.1398C125.967 73.9376 126.289 74.175 128.053 73.8019C128.154 73.7849 128.29 73.7171 128.426 73.6662Z" fill="#D43229"/>
<path d="M69.0311 92.509C69.4721 92.8482 69.9978 92.6277 70.4727 92.7125C68.9463 92.8821 67.4199 92.8312 65.9104 92.8312C61.3142 92.8482 56.701 92.8482 52.1048 92.8651C49.052 92.8821 46.0161 92.933 42.9633 92.9499C41.793 92.9669 41.793 92.933 41.776 91.7797C41.5725 80.3485 41.6912 68.9173 41.6404 57.4861C41.6404 57.3165 41.6234 57.1469 41.6064 56.9773C42.0305 56.9604 42.4545 56.9095 42.8615 56.9095C47.8987 56.8925 52.9528 56.8756 57.99 56.8586C58.0578 57.0452 58.1257 57.2317 58.2274 57.4183C57.8713 57.4353 57.5321 57.4183 57.3455 57.7745C57.3286 57.8253 57.3625 57.978 57.3964 57.978C57.7865 58.0458 57.973 57.7745 58.2105 57.4183C58.9567 57.4183 59.7199 57.4183 60.4832 57.4183C62.8237 57.4183 65.1642 57.4183 67.5047 57.4183C67.81 57.4183 68.3527 57.3165 68.2679 57.8084C68.1492 58.4529 68.3866 59.0126 68.3866 59.6401C68.3697 69.901 68.3696 80.1789 68.3696 90.4398C68.3696 90.7281 68.4375 91.0504 68.3357 91.2709C67.9965 92.051 68.4714 92.2885 69.0311 92.509ZM63.7565 67.6114C63.3325 67.2891 62.8576 67.4418 62.3827 67.4248C62.0265 67.4079 61.6195 67.4079 61.6025 67.9336C61.6195 69.2904 61.6364 70.6473 61.6704 72.0041C61.6704 72.055 61.6704 72.1058 61.6873 72.1567C63.095 72.5468 64.5197 72.2924 65.9443 72.3094C66.1648 72.3094 66.3175 72.1398 66.3175 71.9193C66.3005 70.4946 66.5379 69.053 66.1818 67.6453C65.5034 67.357 64.825 67.4248 64.1466 67.6114C64.0278 67.6283 63.9091 67.6453 63.7904 67.6623L63.7565 67.6114ZM50.5614 82.9095C50.5106 82.8925 50.4597 82.8756 50.4088 82.8756C49.9 82.8586 49.4081 82.8417 48.8993 82.8077C48.2548 82.7569 47.9835 82.9943 48.0174 83.6727C48.0513 84.8769 48.0174 86.0811 48.0174 87.2852C47.5086 89.1848 47.5086 89.1848 49.459 89.3035C49.5438 89.3035 49.6286 89.3035 49.7134 89.3205C50.6123 89.4561 50.731 89.3544 50.731 88.4385C50.731 86.8612 50.731 85.2839 50.731 83.7066C50.731 83.4353 50.765 83.1469 50.5614 82.9095ZM64.6554 75.2265V75.2774C64.3501 75.2096 64.0787 75.3452 63.7904 75.43C63.4003 75.1926 62.9763 75.3113 62.5523 75.2774C61.8739 75.2265 61.5686 75.4809 61.6025 76.1933C61.6364 77.2278 61.6195 78.2624 61.6025 79.3139C61.6025 79.7379 61.6195 80.1959 62.1961 80.0941C62.7558 79.9923 63.6378 80.6199 63.8074 79.4835C64.1974 80.2467 64.8419 80.3824 65.9783 79.9754C65.9952 78.7712 65.9443 77.567 66.0291 76.3629C66.08 75.5318 65.8256 75.1587 64.9776 75.2265C64.9267 74.8534 65.3338 74.7856 65.4695 74.5142C64.4858 74.2598 64.4349 74.3107 64.6554 75.2265ZM61.6025 64.1685C61.6195 64.2024 61.6365 64.2193 61.6365 64.2533C61.7721 64.5925 62.0774 64.5585 62.3488 64.5416C62.9593 64.5246 63.553 64.5077 64.1635 64.4737C64.8419 64.5246 65.5203 64.6603 66.1818 64.3381C66.4871 62.8286 66.4531 61.3192 66.2157 59.7927C65.5203 59.7927 64.8419 59.7758 64.1466 59.7758C63.977 59.7758 63.8074 59.7927 63.6378 59.7927C63.2985 59.7758 62.9593 59.7758 62.6201 59.7419C61.8739 59.657 61.5347 59.9115 61.5856 60.7255C61.6534 61.7601 61.6025 62.8116 61.6025 63.8632C61.382 63.9819 61.3481 64.0837 61.6025 64.1685ZM53.292 71.9871L53.3259 72.038C54.0383 72.3094 54.7676 72.2415 55.4799 72.038C55.7173 72.2415 56.0057 72.1906 56.294 72.1737C57.3794 72.1567 57.5321 71.9871 57.549 70.9017C57.549 70.2233 57.549 69.5618 57.549 68.8834C57.549 67.357 57.5151 67.3231 56.0057 67.4587C55.8361 67.4757 55.6834 67.5435 55.5308 67.5944C55.0729 67.2213 54.5301 67.2383 53.9874 67.2722C53.5973 67.2891 53.1903 67.3909 53.1903 67.8658C53.1733 69.2396 52.9698 70.6303 53.292 71.9871ZM47.0337 75.4131C46.9828 75.4131 46.915 75.4131 46.8641 75.3961C46.4401 75.1587 45.9822 75.2944 45.5412 75.2435C44.8798 75.1756 44.6423 75.4809 44.6762 76.1254C44.7102 76.9056 44.6932 77.7027 44.6932 78.4829C44.6932 80.1619 44.795 80.2637 46.474 80.0602C46.6097 80.0432 46.7454 79.9754 46.8811 79.9415C46.9998 79.9415 47.1016 79.9584 47.2203 79.9584C47.5764 80.1959 47.9835 80.0771 48.3566 80.0771C49.2046 80.0941 49.5438 79.7549 49.4421 78.8899C49.3573 78.2454 49.4251 77.6009 49.4251 76.9565C49.4251 75.1248 49.1537 74.9043 47.3051 75.2944C47.1864 75.3452 47.1185 75.3792 47.0337 75.4131ZM53.3259 79.7719C54.6488 80.0941 55.9887 79.8567 57.3116 79.9075C57.6169 79.9245 57.6678 79.5853 57.6678 79.3309C57.6678 78.1946 57.6678 77.0752 57.6678 75.9388C57.6508 75.006 56.9385 75.2944 56.4297 75.2435C55.9039 75.1926 55.4799 75.2774 55.4969 75.9897C55.5308 76.9225 55.4969 77.8384 55.4969 78.7712C55.3612 78.025 55.3612 77.2787 55.3612 76.5155C55.3612 75.2604 55.3612 75.2604 54.1231 75.2265C53.733 74.9891 53.2411 74.9382 53.2242 75.4809C53.1563 76.9225 52.9528 78.3642 53.3259 79.7719ZM49.2555 59.8267C47.9326 59.4705 46.5927 59.6401 45.2529 59.6231C44.778 59.6231 44.6932 60.0641 44.7441 60.4372C44.8458 61.5905 44.8798 62.7438 44.795 63.8971C44.778 64.1854 44.8628 64.4568 45.185 64.4398C46.5419 64.4059 47.9326 64.5586 49.2725 64.1515C49.4929 62.7268 49.4929 61.2852 49.2555 59.8267ZM46.8641 72.0041C46.9659 72.0041 47.0846 71.9871 47.1864 71.9871C47.5934 72.1228 48.0174 72.0719 48.4414 72.1058C49.1198 72.1398 49.4081 71.8684 49.3742 71.173C49.3233 70.1554 49.3573 69.1378 49.3573 68.1372C49.3573 67.6962 49.2725 67.3739 48.6958 67.3909C47.6612 67.4248 46.6097 67.4418 45.5751 67.4248C45.0324 67.4248 44.8119 67.6623 44.8289 68.188C44.8458 68.8325 44.8289 69.477 44.8458 70.1385C44.8967 72.1906 44.4049 72.0719 46.8641 72.0041ZM62.247 58.4698C61.8739 58.809 61.6534 58.7582 61.4668 58.7751C61.2294 58.809 60.975 58.843 61.0259 59.1482C61.0768 59.4535 61.3481 59.4026 61.5856 59.3518C61.84 59.3009 62.0774 59.3009 62.3318 59.3518C62.7897 59.4366 63.1629 59.3348 63.1289 58.7921C63.112 58.4359 63.3325 58.4359 63.553 58.4359C63.9939 58.419 64.384 58.419 64.7402 58.8599C65.3168 59.5722 65.9952 59.5553 66.1987 58.9108C66.2496 58.7582 66.0631 58.4529 66.4192 58.5207C66.6567 58.5546 66.6736 58.7921 66.6736 58.9956C66.6906 59.25 66.6906 59.5044 66.6906 59.7588C66.6906 64.3041 66.6906 68.8495 66.6906 73.3948C66.6906 73.6831 66.6906 73.9545 66.7245 74.2428C66.7415 74.4972 66.8772 74.6668 67.1655 74.6668C67.4199 74.6668 67.6064 74.5312 67.6573 74.2937C67.7082 74.0732 67.7082 73.8527 67.7082 73.6153C67.7082 68.8495 67.7082 64.0667 67.7082 59.3009C67.7082 58.3002 67.5216 58.0967 66.521 58.0967C64.0278 58.0798 61.5516 58.0967 59.0585 58.0967C58.8041 58.0967 58.4818 57.9949 58.2783 58.4698C59.5843 58.4698 60.8224 58.4698 62.247 58.4698ZM62.9424 86.081C62.9254 86.081 62.9254 86.081 62.9424 86.081C62.9424 85.6062 62.9424 85.1143 62.9424 84.6394C62.8915 82.6212 63.3834 82.7568 60.9411 82.7568C60.3305 82.7568 60.0931 83.0113 60.11 83.6218C60.144 84.8599 60.11 86.098 60.127 87.3531C60.1609 89.4392 59.6351 89.3204 62.2301 89.3035C62.264 89.3035 62.2809 89.3035 62.3149 89.3035C62.7897 89.3204 62.9593 89.066 62.9593 88.6081C62.9254 87.7771 62.9424 86.9291 62.9424 86.081ZM47.1694 85.9962C47.1694 85.4874 47.1694 84.9786 47.1694 84.4698C47.1694 82.6551 47.1694 82.672 45.3886 82.706C44.7102 82.7229 44.5066 82.9943 44.5236 83.6218C44.5406 84.8599 44.5236 86.098 44.5066 87.3361C44.5066 89.2865 44.5066 89.2865 46.474 89.1508C46.9659 89.1169 47.1864 88.9473 47.1864 88.4385C47.1524 87.6244 47.1694 86.8103 47.1694 85.9962ZM66.3683 86.081C66.3683 85.5214 66.3683 84.9447 66.3683 84.385C66.3344 82.6551 66.7076 82.7399 64.6723 82.7229C63.96 82.7229 63.7395 83.0113 63.7565 83.6897C63.7904 84.9956 63.7734 86.2846 63.7734 87.5905C63.7904 89.4561 63.4681 89.3035 65.5712 89.3205C66.1479 89.3205 66.4023 89.1339 66.3683 88.5403C66.3514 87.7262 66.3683 86.8951 66.3683 86.081ZM55.2085 62.0993C55.1916 61.5057 55.1746 60.9121 55.2085 60.3355C55.2255 59.9454 55.1576 59.6062 54.6997 59.691C54.174 59.7758 53.309 59.3009 53.2242 60.1489C53.0715 61.4209 53.0885 62.7438 53.2242 64.0158C53.309 64.8978 54.157 64.4568 54.6828 64.5077C55.1746 64.5585 55.2594 64.2193 55.2255 63.7953C55.1916 63.2187 55.2085 62.659 55.2085 62.0993ZM55.5138 62.0824C55.5138 62.642 55.5308 63.2187 55.4969 63.7784C55.446 64.4907 55.8869 64.5585 56.4127 64.5246C56.9045 64.4907 57.566 64.7112 57.549 63.8293C57.5321 62.676 57.549 61.5227 57.549 60.3694C57.549 60.0811 57.5321 59.8097 57.1759 59.691C56.1244 59.3348 55.4969 59.7588 55.4969 60.8273C55.5138 61.2344 55.5138 61.6584 55.5138 62.0824ZM67.6912 81.3661C67.6912 81.1965 67.7082 80.9082 67.6912 80.6368C67.6743 80.3315 67.5386 80.0771 67.1994 80.0602C66.8772 80.0432 66.7754 80.3146 66.7415 80.569C66.6736 81.2474 66.6227 81.9258 66.7754 82.5872C67.2333 84.6225 67.1655 86.6577 66.8093 88.6929C66.7076 89.3035 66.7415 89.8632 66.9111 90.4398C66.9789 90.6942 67.0807 90.9486 67.4199 90.8977C67.7082 90.8469 67.7082 90.5925 67.7082 90.355C67.7082 89.931 67.776 89.4901 67.6743 89.083C67.2842 87.5905 67.4538 86.0471 67.352 84.5377C67.2672 83.5031 67.8269 82.5364 67.6912 81.3661ZM65.232 64.8638C64.9267 65.0165 64.3162 64.6094 64.2992 65.3218C64.2992 65.644 64.3162 66.051 64.8419 65.9662C65.3507 65.8814 66.0291 65.8814 66.0631 65.203C66.08 64.7451 65.5373 64.9656 65.232 64.8638ZM64.401 91.8475C65.1981 92.1358 66.0291 91.8475 66.7924 92.1867C66.945 92.2546 67.0468 92.1019 67.0637 91.9493C67.0637 91.7627 66.9111 91.7118 66.7754 91.7118C65.9783 91.6949 65.1811 91.5931 64.401 91.8475ZM65.7578 67.1874C65.9443 67.1365 66.1309 67.0347 66.1479 66.8312C66.1818 66.5938 65.9783 66.5938 65.8087 66.5938C65.6051 66.5938 65.4186 66.6616 65.4016 66.916C65.4186 67.1365 65.5543 67.2043 65.7578 67.1874ZM58.0409 59.674C58.2444 59.3687 58.2444 59.1822 58.0578 58.9447C57.8374 59.1822 57.8543 59.3687 58.0409 59.674ZM64.0957 59.3009C64.1126 59.3178 64.1466 59.3348 64.1635 59.3348C64.1805 59.3348 64.1805 59.3009 64.1974 59.2839C64.1805 59.267 64.1466 59.25 64.1296 59.25C64.1126 59.25 64.1126 59.2839 64.0957 59.3009Z" fill="#E30104"/>
<path d="M21.017 110.775C21.017 106.145 21.0339 101.515 21 96.8676C21 96.0366 21.2714 95.7822 22.0685 95.7991C25.4266 95.867 28.7847 95.9857 32.1089 96.5115C34.1611 96.8337 36.2303 97.2577 37.7228 98.9537C38.8761 100.26 39.4357 101.837 39.8597 103.465C40.5551 106.196 40.7078 108.994 40.4534 111.793C40.182 114.778 39.6901 117.729 37.8245 120.222C36.5695 121.901 34.8395 122.868 32.9061 123.478C29.3444 124.631 25.6641 125.123 21.9667 125.649C21.1526 125.768 21.0509 125.48 21.0509 124.818C21.0848 122.902 21.0848 120.968 21.0848 119.052C21.0848 116.287 21.0848 113.506 21.0848 110.741C21.0848 110.775 21.0509 110.775 21.017 110.775ZM26.0033 110.368C25.9863 110.368 25.9863 110.368 25.9693 110.368C25.9693 113.76 25.9863 117.135 25.9524 120.527C25.9524 121.189 26.1559 121.409 26.8004 121.273C28.242 120.985 29.7006 120.765 31.0235 120.12C32.6517 119.306 33.9915 118.153 34.4325 116.287C35.2805 112.759 35.3992 109.181 35.06 105.602C34.8565 103.346 33.9237 101.311 31.668 100.311C30.1416 99.6152 28.4625 99.4626 26.8004 99.4117C26.1559 99.3947 25.9863 99.5813 25.9863 100.226C26.0202 103.601 26.0033 106.993 26.0033 110.368Z" fill="#FAC306"/>
<path d="M125.848 96.3758C127.154 96.3758 128.443 96.3928 129.749 96.3758C130.241 96.3758 130.394 96.5285 130.496 97.0203C131.191 100.616 131.971 104.194 132.683 107.773C133.565 112.149 134.498 116.491 135.533 120.832C135.668 121.375 135.787 121.935 135.906 122.478C136.008 122.952 135.838 123.224 135.346 123.122C134.176 122.885 132.989 122.851 131.818 122.749C131.123 122.698 130.97 122.223 130.869 121.663C130.597 120.29 130.258 118.916 129.987 117.542C129.868 116.932 129.529 116.711 128.935 116.694C126.968 116.643 124.983 116.575 123.016 116.508C122.405 116.491 122.032 116.66 121.914 117.356C121.727 118.492 121.354 119.594 121.235 120.748C121.201 121.087 121.1 121.409 120.608 121.358C119.404 121.256 118.182 121.172 116.978 121.121C116.402 121.087 116.249 120.815 116.385 120.29C117.47 115.999 118.369 111.674 119.234 107.332C119.743 104.771 120.37 102.21 120.726 99.6152C120.862 98.6655 121.15 97.7496 121.32 96.8168C121.405 96.3419 121.693 96.4097 121.998 96.4097C123.304 96.4097 124.593 96.4097 125.899 96.4097C125.848 96.3928 125.848 96.3928 125.848 96.3758ZM125.916 113.54C125.916 113.557 125.916 113.573 125.916 113.59C126.713 113.59 127.494 113.573 128.291 113.59C128.969 113.607 129.19 113.353 129.054 112.658C128.359 109.35 127.714 106.026 127.036 102.719C126.815 101.65 126.561 100.582 126.289 99.5135C126.205 99.2082 126.171 98.7672 125.747 98.7672C125.323 98.7672 125.374 99.2082 125.323 99.4795C124.983 101.074 124.661 102.685 124.356 104.279C123.83 107.044 123.372 109.825 122.83 112.59C122.677 113.336 122.931 113.523 123.576 113.523C124.322 113.54 125.119 113.54 125.916 113.54Z" fill="#E30104"/>
<path d="M53.2584 96.4437C54.5305 96.4437 55.8025 96.4607 57.0745 96.4437C57.5663 96.4437 57.7699 96.5964 57.8377 97.1052C58.2278 100.294 59.0588 103.414 59.6694 106.569C60.2969 109.808 60.9245 113.031 61.5689 116.253C61.8403 117.576 62.1117 118.899 62.4339 120.222C62.5866 120.849 62.5187 121.189 61.7725 121.223C60.7379 121.257 59.6864 121.358 58.6518 121.46C58.143 121.511 57.8716 121.341 57.7699 120.816C57.5663 119.628 57.278 118.441 57.0914 117.254C56.9897 116.643 56.7183 116.406 56.0738 116.423C54.1573 116.457 52.2408 116.457 50.3074 116.44C49.6798 116.44 49.4085 116.711 49.3067 117.305C49.0184 118.797 48.6622 120.273 48.3569 121.765C48.2721 122.189 48.0517 122.41 47.6277 122.478C46.4065 122.681 45.1854 122.919 43.9642 123.122C43.3367 123.224 43.2519 122.834 43.3537 122.342C43.6929 120.663 44.0321 118.967 44.4052 117.288C45.0497 114.269 45.7111 111.233 46.3896 108.231C47.1867 104.686 47.7973 101.108 48.5605 97.5631C48.7979 96.5116 49.205 96.4268 50.036 96.4607C51.1215 96.4777 52.1899 96.4437 53.2584 96.4437ZM54.2252 113.54C54.2252 113.506 54.2252 113.455 54.2252 113.421C54.6153 113.421 55.0223 113.387 55.4124 113.421C56.0738 113.472 56.2774 113.166 56.1756 112.556C56.1417 112.369 56.1417 112.166 56.0908 111.962C55.5481 109.113 55.0223 106.264 54.4626 103.414C54.1913 102.058 53.886 100.718 53.5807 99.3609C53.5298 99.1235 53.4789 98.8182 53.1228 98.8521C52.8344 98.869 52.8175 99.1404 52.7836 99.3609C52.58 100.362 52.3426 101.345 52.156 102.346C51.4946 105.772 50.8671 109.215 50.1886 112.641C50.053 113.285 50.1717 113.54 50.8501 113.54C51.9695 113.523 53.1058 113.54 54.2252 113.54Z" fill="#E30104"/>
<path d="M143.538 118.136C143.538 116.558 143.538 114.981 143.538 113.387C143.538 112.861 143.385 112.488 142.876 112.234C139.043 110.385 137.211 107.23 136.974 103.075C136.855 100.955 136.855 98.8351 136.804 96.715C136.787 96.1723 136.957 95.9009 137.568 95.9009C138.755 95.9179 139.942 95.8501 141.129 95.8331C141.74 95.8161 142.011 96.0366 141.994 96.749C141.943 98.8351 141.96 100.938 141.994 103.024C142.011 104.245 142.316 105.416 142.91 106.501C143.775 108.044 144.827 108.57 146.54 108.333C147.93 108.129 149.168 106.993 149.491 105.551C150.016 103.194 150.067 100.802 150.084 98.4111C150.084 97.6987 149.999 96.9694 150.423 96.2741C150.627 95.9349 150.83 95.7822 151.204 95.7653C152.272 95.7144 153.341 95.6465 154.426 95.5957C154.85 95.5787 155.155 95.6974 155.155 96.1893C155.172 99.4795 155.41 102.787 154.613 106.06C153.849 109.164 151.95 111.199 149.016 112.352C148.507 112.556 148.354 112.878 148.354 113.387C148.371 116.745 148.354 120.103 148.371 123.478C148.371 124.598 148.337 124.682 147.252 124.581C146.268 124.479 145.301 124.326 144.318 124.191C143.758 124.123 143.571 123.75 143.571 123.241C143.571 121.545 143.571 119.849 143.571 118.153C143.555 118.136 143.538 118.136 143.538 118.136Z" fill="#FAC306"/>
<path d="M75.1709 114.065C75.1709 115.982 75.154 117.898 75.1879 119.832C75.2049 120.527 74.9674 120.765 74.2551 120.748C73.3223 120.714 72.3895 120.731 71.4566 120.816C70.6595 120.9 70.3882 120.646 70.3882 119.815C70.4051 116.457 70.2864 113.099 70.3542 109.741C70.3882 108.146 69.8285 106.891 68.8617 105.687C66.7078 102.973 64.8422 100.056 62.8917 97.2069C62.773 97.0204 62.5525 96.8338 62.6882 96.6133C62.8239 96.3928 63.0953 96.4776 63.3158 96.4946C64.6386 96.5624 65.9615 96.6472 67.2844 96.6981C67.8611 96.732 68.2172 96.9356 68.5565 97.4783C69.7606 99.3778 71.0496 101.21 72.3216 103.058C72.8135 103.787 72.9152 103.771 73.424 103.041C74.7809 101.04 76.1377 99.0386 77.4775 97.0373C77.7658 96.6133 78.0881 96.4437 78.5969 96.4607C79.7332 96.4776 80.8526 96.4437 81.9889 96.4267C82.2094 96.4267 82.4808 96.308 82.6165 96.5624C82.7352 96.7829 82.5656 96.9695 82.4299 97.173C80.8187 99.6153 79.2244 102.041 77.4266 104.364C76.6973 105.314 76.0698 106.348 75.3236 107.298C75.0861 107.604 75.137 107.943 75.137 108.265C75.137 110.215 75.137 112.166 75.137 114.116C75.137 114.065 75.154 114.065 75.1709 114.065Z" fill="#FAC306"/>
<path d="M93.691 96.1554C94.5391 96.1893 95.3871 96.1215 96.2181 96.2741C96.676 96.3589 96.8626 96.5624 96.8796 97.0712C96.9304 99.2082 96.9474 99.2082 94.8443 99.1573C94.0302 99.1404 93.1992 99.1404 92.3851 99.1573C91.6219 99.1743 90.9435 99.4457 90.3668 99.9036C89.3492 100.718 89.2305 101.956 89.9768 103.245C90.5704 104.245 91.4693 104.907 92.3681 105.568C93.5045 106.399 94.6747 107.163 95.828 107.96C97.948 109.435 99.2031 112.709 98.4399 115.168C97.7954 117.203 96.3199 118.543 94.2507 119.103C91.4862 119.866 88.6878 119.9 85.8554 119.527C85.5841 119.493 85.3636 119.476 85.3127 119.119C85.2109 118.339 85.0922 117.559 84.9735 116.779C84.9057 116.236 85.1261 116.05 85.6519 116.202C87.0087 116.592 88.3995 116.508 89.7732 116.491C90.6212 116.491 91.3675 116.27 92.1137 115.88C93.6741 115.049 94.0811 113.302 93.0126 111.877C92.1307 110.69 90.9265 109.825 89.7732 108.96C88.4673 107.977 87.1105 107.061 85.9572 105.907C82.9892 102.939 84.0576 98.3432 88.4334 96.8847C90.1294 96.325 91.8933 96.0875 93.691 96.1554Z" fill="#E30104"/>
<path d="M109.77 109.995C109.77 113.217 109.753 116.44 109.787 119.645C109.787 120.29 109.634 120.561 108.939 120.51C107.904 120.442 106.853 120.442 105.801 120.476C105.174 120.493 104.97 120.307 104.987 119.662C105.021 115.083 105.004 110.521 105.021 105.941C105.021 104.127 104.987 102.329 105.038 100.514C105.055 99.7171 104.834 99.3948 104.003 99.4288C102.935 99.4796 101.849 99.4288 100.781 99.4457C100.136 99.4627 99.882 99.2252 99.882 98.5468C99.865 96.4268 99.848 96.4268 101.934 96.4268C105.886 96.4268 109.838 96.4438 113.789 96.4098C114.569 96.4098 114.909 96.5964 114.858 97.4274C114.739 99.3779 115.248 99.2252 113.06 99.2592C112.297 99.2761 111.534 99.2931 110.77 99.2761C110.058 99.2591 109.736 99.4796 109.736 100.294C109.821 103.55 109.787 106.773 109.77 109.995C109.787 109.995 109.787 109.995 109.77 109.995Z" fill="#FAC306"/>
<path d="M97.7353 134.52C97.1078 135.317 96.9551 136.182 96.599 136.963C96.4633 137.234 96.3954 137.573 96.0902 137.726C95.6831 137.929 95.3439 137.861 95.1065 137.404C94.7673 136.725 94.4281 136.047 94.0719 135.368C93.9871 135.216 93.9362 134.944 93.6648 135.029C93.4783 135.097 93.5122 135.317 93.5122 135.47C93.5122 136.098 93.4952 136.708 93.5461 137.336C93.58 137.912 93.2408 137.963 92.8168 137.997C92.325 138.031 92.2572 137.76 92.2572 137.37C92.2232 135.843 92.1723 134.317 92.1384 132.807C92.1384 132.451 92.0367 131.993 92.5794 131.976C93.0882 131.959 93.6988 131.586 94.0719 132.332C94.462 133.113 94.9199 133.859 95.3609 134.622C95.4965 134.843 95.5474 135.25 95.9036 135.182C96.2089 135.131 96.2428 134.758 96.3276 134.503C96.565 133.808 96.8025 133.113 97.023 132.417C97.1926 131.841 98.2611 131.349 98.8038 131.603C99.0243 131.705 99.0412 131.908 99.0412 132.095C99.16 133.672 99.2448 135.25 99.3804 136.827C99.4144 137.353 99.2617 137.607 98.702 137.641C98.0915 137.675 98.1084 137.268 98.0745 136.861C97.9897 136.132 97.9558 135.368 97.7353 134.52Z" fill="#7E303B"/>
<path d="M110.997 133.926C111.099 134.689 111.184 135.385 111.269 136.08C111.303 136.402 111.32 136.724 110.879 136.775C110.506 136.826 110.183 136.741 110.132 136.3C109.946 134.587 109.776 132.874 109.607 131.178C109.573 130.907 109.658 130.653 109.946 130.585C110.353 130.466 110.743 130.534 110.997 130.907C111.608 131.755 112.32 132.518 113.05 133.265C113.219 133.434 113.372 133.756 113.66 133.604C113.931 133.451 113.779 133.146 113.728 132.908C113.609 132.179 113.491 131.467 113.338 130.737C113.253 130.296 113.423 130.127 113.847 130.076C114.237 130.025 114.678 129.839 114.78 130.432C115.085 132.145 115.356 133.875 115.628 135.605C115.661 135.842 115.644 136.08 115.339 136.131C114.898 136.199 114.457 136.368 114.067 135.978C113.27 135.215 112.456 134.486 111.659 133.739C111.489 133.57 111.354 133.231 111.082 133.332C110.794 133.434 111.099 133.756 110.997 133.926Z" fill="#7E303B"/>
<path d="M76.9009 137.148C76.9178 135.571 76.9348 133.994 76.9348 132.416C76.9348 131.891 77.1214 131.653 77.681 131.687C78.4612 131.738 79.2583 131.704 80.0385 131.738C80.7678 131.772 81.3445 132.111 81.6328 132.789C81.955 133.536 81.972 134.401 81.3784 134.926C80.5812 135.622 80.8865 136.148 81.3275 136.792C81.5141 137.063 82.1077 137.403 81.5989 137.725C81.2088 137.979 80.5982 137.945 80.276 137.386C80.0724 137.046 79.835 136.741 79.6484 136.385C79.3262 135.757 78.8343 135.571 78.1899 135.808C77.8676 135.961 77.9355 136.266 77.9185 136.538C77.8507 137.538 77.7489 137.589 76.9009 137.148ZM79.1396 134.485C79.818 134.553 80.3777 134.485 80.4286 133.756C80.4625 133.044 79.9707 132.84 79.3601 132.874C78.8852 132.908 78.2577 132.603 78.1899 133.519C78.122 134.384 78.546 134.553 79.1396 134.485Z" fill="#7E303B"/>
<path d="M57.1758 135.707C56.6161 135.757 56.2769 135.52 56.1412 135.011C56.0225 134.57 55.7342 134.35 55.2762 134.367C54.513 134.401 53.6989 133.909 53.0714 134.842C52.8001 135.232 52.1216 134.96 51.7316 134.74C51.3076 134.502 51.7485 134.146 51.9012 133.892C52.7492 132.467 53.6141 131.042 54.4791 129.635C54.6487 129.346 54.8014 129.024 55.2254 129.041C55.6663 129.075 55.7342 129.414 55.8529 129.737C56.4635 131.483 57.074 133.247 57.6846 134.994C57.8712 135.554 57.8033 135.859 57.1758 135.707ZM54.954 133.095C55.1575 132.993 55.6154 133.23 55.5476 132.755C55.4798 132.298 55.4458 131.568 55.0558 131.534C54.5809 131.5 54.3604 132.213 54.2586 132.654C54.106 133.196 54.6826 132.959 54.954 133.095Z" fill="#7E303B"/>
<path d="M104.773 133.686C105.078 133.652 105.4 133.635 105.705 133.567C106.113 133.499 106.35 133.584 106.401 134.042C106.452 134.466 106.384 134.754 105.892 134.822C105.451 134.873 104.993 134.941 104.552 135.026C104.281 135.077 103.976 135.178 104.009 135.552C104.043 135.942 104.247 136.196 104.637 136.213C105.265 136.247 105.875 136.145 106.486 136.01C106.961 135.891 107.317 135.925 107.402 136.535C107.503 137.146 107.113 137.163 106.706 137.214C105.705 137.349 104.688 137.468 103.687 137.621C103.178 137.706 102.907 137.604 102.873 137.01C102.771 135.382 102.619 133.754 102.483 132.109C102.449 131.719 102.551 131.447 102.992 131.396C103.857 131.295 104.722 131.176 105.587 131.04C106.011 130.972 106.163 131.142 106.18 131.532C106.197 131.871 106.316 132.244 105.807 132.312C105.417 132.363 105.027 132.414 104.637 132.499C104.264 132.567 103.789 132.55 103.84 133.143C103.891 133.754 104.332 133.72 104.773 133.686Z" fill="#7E303B"/>
<path d="M72.7962 137.437C72.457 137.453 72.0839 137.42 71.9651 136.894C71.8803 136.521 71.8295 136.046 71.2867 136.097C70.5914 136.148 69.8112 135.724 69.2685 136.521C69.1667 136.656 69.0989 136.826 68.9632 136.928C68.6579 137.148 68.2848 137.131 67.9965 136.996C67.6064 136.792 67.9286 136.504 68.0304 136.283C68.8275 134.638 69.6586 133.01 70.4557 131.365C70.6423 130.992 70.8967 130.822 71.3207 130.839C71.8295 130.856 71.8803 131.212 71.9991 131.568C72.5079 133.247 73.0167 134.909 73.5255 136.572C73.7968 137.403 73.746 137.47 72.7962 137.437ZM71.0323 133.281C70.744 133.79 70.1504 134.214 70.4726 134.842C70.5914 135.079 71.168 135.079 71.3207 134.876C71.7786 134.316 71.2528 133.807 71.0323 133.281Z" fill="#7E303B"/>
<path d="M123.914 128.176C124.423 128.193 124.932 128.261 125.339 128.617C125.543 128.804 125.644 129.024 125.509 129.296C125.373 129.533 125.153 129.567 124.915 129.516C124.593 129.448 124.271 129.296 123.931 129.262C123.524 129.228 123.117 129.33 123.016 129.821C122.931 130.279 123.253 130.483 123.609 130.602C124.271 130.839 124.932 131.06 125.61 131.28C126.391 131.517 126.899 131.975 126.967 132.823C127.035 133.671 126.611 134.282 125.933 134.723C125.203 135.181 123.982 135.079 123.287 134.587C122.88 134.299 122.863 133.926 123.032 133.536C123.253 133.027 123.592 133.366 123.881 133.485C124.067 133.553 124.237 133.671 124.423 133.705C124.796 133.773 125.203 133.824 125.373 133.383C125.56 132.891 125.203 132.654 124.83 132.484C124.288 132.247 123.728 132.043 123.185 131.823C122.083 131.365 121.676 130.602 121.93 129.482C122.117 128.583 122.778 128.159 123.914 128.176Z" fill="#7E303B"/>
<path d="M62.1967 130.228C63.0447 130.279 63.8758 130.381 64.639 130.805C65.2835 131.161 65.6905 131.636 65.6736 132.416C65.6396 133.213 65.2326 133.739 64.5712 134.095C64.0793 134.367 63.5366 134.452 63.0108 134.384C62.2137 134.299 61.8575 134.587 61.9084 135.401C61.9254 135.774 61.9593 136.215 61.3318 136.215C60.7551 136.215 60.4498 136.114 60.5516 135.401C60.7381 134.028 60.8569 132.654 60.9756 131.263C61.0773 130.178 61.0773 130.178 62.1967 130.228ZM62.943 133.146C63.7401 133.129 64.2489 132.823 64.2489 132.348C64.2489 131.84 63.5705 131.433 62.7395 131.416C61.9254 131.399 62.1628 132.026 62.095 132.45C61.9932 133.112 62.4681 133.146 62.943 133.146Z" fill="#7E303B"/>
<path d="M86.8399 131.908C87.4674 131.908 88.078 131.908 88.7055 131.908C89.0786 131.908 89.2991 132.026 89.2991 132.433C89.2991 132.823 89.1125 133.044 88.7394 132.993C87.7388 132.857 87.5522 133.383 87.6031 134.231C87.6539 135.249 87.5861 136.266 87.6031 137.284C87.6031 137.776 87.4335 138.013 86.9077 137.979C86.3989 137.962 86.1106 137.827 86.1275 137.25C86.1615 136.232 86.1106 135.215 86.1614 134.197C86.2123 133.366 86.0088 132.874 85.059 132.993C84.669 133.044 84.4146 132.891 84.4146 132.433C84.4146 132.009 84.5333 131.806 84.9912 131.806C85.6187 131.823 86.2293 131.806 86.8568 131.806C86.8399 131.857 86.8399 131.874 86.8399 131.908Z" fill="#7E303B"/>
<path d="M118.286 129.484C118.905 129.384 119.508 129.286 120.128 129.186C120.496 129.126 120.732 129.208 120.798 129.61C120.86 129.995 120.711 130.242 120.335 130.252C119.325 130.278 119.225 130.827 119.411 131.656C119.624 132.652 119.719 133.667 119.899 134.669C119.977 135.155 119.848 135.416 119.323 135.467C118.818 135.531 118.512 135.443 118.437 134.871C118.307 133.862 118.095 132.865 117.982 131.852C117.9 131.024 117.62 130.571 116.701 130.84C116.325 130.953 116.049 130.843 115.976 130.391C115.908 129.972 115.993 129.752 116.445 129.679C117.067 129.595 117.667 129.481 118.286 129.381C118.278 129.434 118.28 129.45 118.286 129.484Z" fill="#7E303B"/>
<path d="M96.8801 92.7464C97.1514 92.2715 97.2193 91.7627 97.2193 91.203C97.2023 72.6825 97.2023 54.162 97.2193 35.6584C97.2193 34.7934 97.1854 33.9793 96.5239 33.3179C96.6935 33.284 96.8801 33.2331 97.0497 33.1992C97.3889 33.4366 97.321 33.7928 97.321 34.132C97.338 53.3818 97.355 72.6316 97.355 91.8815C97.3719 92.1867 97.6772 92.8143 96.8801 92.7464Z" fill="#93541E"/>
<path d="M96.2187 33.3178C94.4718 33.3348 92.7249 33.3517 90.961 33.3517C80.4457 33.3517 69.9473 33.3348 59.432 33.3348C58.2109 33.3348 58.2108 33.3348 58.2108 34.5559C58.2108 41.9505 58.2108 49.3622 58.2108 56.7568C58.143 56.7568 58.0921 56.7398 58.0243 56.7398C58.0243 54.6029 58.0243 52.4489 58.0243 50.3119C58.0243 44.9016 58.0073 39.4744 58.0073 34.0641C58.0073 33.9453 58.0073 33.8096 58.0073 33.6909C58.0243 33.64 58.0073 33.6061 58.0073 33.5552C58.0921 33.4196 58.1769 33.2839 58.2617 33.1312C58.7705 33.1482 59.2793 33.1652 59.7881 33.1652C71.2363 33.1821 82.6675 33.216 94.1156 33.233C94.811 33.216 95.5233 33.1482 96.2187 33.3178Z" fill="#93541E"/>
<path d="M58.007 34.0471C58.007 39.4574 58.0239 44.8847 58.0239 50.295C58.0239 52.432 58.0239 54.5859 58.0239 56.7229C58.007 56.7738 58.007 56.8077 57.99 56.8586C52.9528 56.8756 47.8987 56.8925 42.8615 56.9095C42.4375 56.9095 42.0135 56.9604 41.6064 56.9773C41.9117 56.6381 42.3357 56.7229 42.7258 56.7229C47.2712 56.7229 51.8165 56.7229 56.3788 56.7229C57.7356 56.7229 57.8882 56.5703 57.8882 55.2135C57.8882 48.5481 57.8882 41.8827 57.8882 35.2004C57.8713 34.8273 57.8204 34.4202 58.007 34.0471Z" fill="#D49B3A"/>
<path d="M96.2191 33.3178C95.5238 33.1313 94.8115 33.2161 94.1161 33.2161C82.6679 33.1821 71.2368 33.1652 59.7886 33.1482C59.2798 33.1482 58.771 33.1313 58.2622 33.1143C58.6184 32.9617 58.9915 33.0125 59.3477 33.0125C71.5081 33.0125 83.6686 33.0125 95.8291 33.0125C96.2531 33.0125 96.6771 32.9277 97.0672 33.1991C96.8976 33.233 96.711 33.2839 96.5414 33.3178C96.4227 33.3178 96.3209 33.3178 96.2191 33.3178Z" fill="#FAC306"/>
<path d="M87.7725 75.9049C88.2643 76.0575 88.0269 76.4646 88.0269 76.7359C88.0438 81.6205 88.0438 86.505 88.0608 91.3895C88.0608 92.6785 88.0608 92.6785 89.3837 92.6785C91.368 92.6785 93.3354 92.6446 95.3198 92.7124C95.7268 92.7294 96.1508 92.2715 96.5409 92.7464C94.6244 92.9329 92.7079 92.7803 90.7914 92.8312C90.079 92.8481 89.3837 92.8142 88.6713 92.8481C88.0947 92.8651 87.8742 92.6616 87.8742 92.068C87.8573 86.6746 87.8064 81.2982 87.7725 75.9049Z" fill="#93541E"/>
<path d="M76.9013 137.148C77.7494 137.589 77.8511 137.538 77.902 136.555C77.919 136.283 77.8511 135.978 78.1734 135.825C78.1903 136.3 78.2412 136.758 78.2242 137.233C78.2242 137.538 78.0886 137.776 77.7154 137.759C77.3762 137.742 76.9692 137.878 76.7657 137.437C76.7317 137.301 76.7996 137.216 76.9013 137.148Z" fill="#93541E"/>
<path d="M58.0064 33.5384C58.0234 33.5892 58.0234 33.6232 58.0064 33.674C57.9725 33.6232 57.9725 33.5723 58.0064 33.5384Z" fill="#D49B3A"/>
<path d="M88.0267 56.0784C86.9243 56.0784 85.8219 56.0614 84.7195 56.0784C84.2616 56.0784 84.0411 55.9088 84.058 55.4339C84.075 54.3315 84.075 53.2291 84.058 52.1267C84.058 51.6687 84.2616 51.4652 84.7195 51.4822C86.9582 51.4991 89.18 51.4991 91.4188 51.4822C91.9615 51.4822 92.0972 51.7366 92.0972 52.2115C92.0802 53.263 92.0802 54.2976 92.0972 55.3491C92.1141 55.9088 91.8767 56.0954 91.334 56.0954C90.2316 56.0784 89.1291 56.0954 88.0267 56.0784C88.0267 56.0954 88.0267 56.0954 88.0267 56.0784Z" fill="#D3A03A"/>
<path d="M73.1528 67.0348C72.9153 65.661 73.068 64.2872 73.0341 62.9134C73.0341 62.6251 73.1697 62.4216 73.475 62.4216C75.8325 62.4216 78.19 62.252 80.5305 62.4555C80.5813 62.4555 80.6322 62.5064 80.6831 62.5233C80.6831 63.6936 80.6661 64.8808 80.717 66.0511C80.751 66.7804 80.4457 66.9669 79.7842 66.9669C77.5964 66.9669 75.3746 67.0008 73.1528 67.0348Z" fill="#D3A03A"/>
<path d="M84.0748 44.8677C84.0578 43.5957 84.0578 42.3237 84.0239 41.0687C84.0239 40.6447 84.2105 40.4581 84.6345 40.4581C86.9241 40.4581 89.1968 40.4581 91.4864 40.4581C91.8426 40.4581 92.097 40.5768 92.08 40.9839C92.0461 42.2728 92.1818 43.5788 91.9952 44.8677C89.3664 44.8677 86.7206 44.8677 84.0748 44.8677Z" fill="#D3A03A"/>
<path d="M88.0097 66.916C86.9921 66.916 85.9744 66.899 84.9568 66.933C84.3632 66.9499 84.0749 66.7634 84.0919 66.1189C84.1258 65.1352 84.1088 64.1515 84.0919 63.1508C84.0749 62.5912 84.2615 62.3198 84.872 62.3368C86.9921 62.3537 89.1121 62.3537 91.2151 62.3368C91.7409 62.3368 92.0123 62.5064 91.9953 63.066C91.9784 64.1176 91.9784 65.1521 91.9953 66.2037C92.0123 66.7634 91.7579 66.9499 91.2321 66.933C90.1636 66.899 89.0951 66.916 88.0097 66.916Z" fill="#D3A03A"/>
<path d="M76.8662 56.0784C75.8485 56.0784 74.8309 56.0614 73.8133 56.0784C73.2876 56.0953 73.0332 55.9257 73.0501 55.3491C73.0671 54.3145 73.0501 53.263 73.0501 52.2115C73.0501 51.7196 73.2367 51.4991 73.7455 51.4991C75.8655 51.5161 77.9686 51.5161 80.0886 51.5161C80.5126 51.5161 80.784 51.6518 80.784 52.1436C80.767 53.2121 80.784 54.2806 80.8009 55.3661C80.8009 55.8749 80.5974 56.0784 80.0886 56.0784C79.0031 56.0784 77.9347 56.0953 76.8662 56.0784Z" fill="#D3A03A"/>
<path d="M73.2031 44.8677C73.1861 43.5957 73.1861 42.3407 73.1522 41.0686C73.1353 40.5938 73.3727 40.4242 73.8306 40.4411C75.8658 40.4581 77.8841 40.475 79.9193 40.492C80.5977 40.899 80.6486 41.5435 80.5977 42.2389C80.5638 42.7986 80.5638 43.3583 80.5977 43.918C80.6486 44.6642 80.3433 44.9016 79.6141 44.8847C77.4771 44.8508 75.3401 44.8677 73.2031 44.8677Z" fill="#D3A03A"/>
<path d="M58.0073 56.8756C58.0073 56.8247 58.0243 56.7908 58.0412 56.7399C58.1091 56.7399 58.16 56.7568 58.2278 56.7568C61.4502 56.7568 64.6727 56.7568 67.8951 56.7738C68.9297 56.7738 69.0823 56.9095 69.0823 57.8592C69.0823 69.2735 69.0823 80.6877 69.0823 92.1019C69.0823 92.2376 69.0654 92.3902 69.0654 92.5259C68.4887 92.3054 68.0308 92.068 68.387 91.2878C68.4887 91.0504 68.4209 90.7281 68.4209 90.4568C68.4209 80.1958 68.4209 69.918 68.4379 59.657C68.4379 59.0465 68.2004 58.4698 68.3191 57.8253C68.4039 57.3504 67.8612 57.4352 67.5559 57.4352C65.2154 57.4183 62.8749 57.4352 60.5344 57.4352C59.7712 57.4352 59.008 57.4352 58.2448 57.4352C58.143 57.2317 58.0752 57.0621 58.0073 56.8756Z" fill="#C62E30"/>
<path d="M65.9283 40.1528C66.8611 40.1528 67.7939 40.1528 68.7267 40.1528C69.9309 40.1528 70.321 40.5259 70.0157 41.6962C69.7782 42.5951 69.7613 43.477 69.7613 44.359C69.7613 45.0034 69.4899 45.2578 68.8285 45.2409C67.4717 45.19 66.1148 45.207 64.775 45.207C64.351 45.207 63.9439 45.2409 63.5369 45.4105C62.5871 45.7836 61.6204 45.0882 61.6543 44.0706C61.6713 43.2565 61.4678 42.4255 61.8918 41.6623C61.9087 41.6453 61.9087 41.6114 61.9087 41.5775C62.0444 40.1528 62.0444 40.1528 63.5708 40.1528C64.351 40.1359 65.1312 40.1359 65.9283 40.1528ZM65.8944 40.4411C64.8767 40.4581 63.8591 40.4751 62.8585 40.4411C62.3158 40.4242 62.0953 40.6447 62.1122 41.1874C62.1292 42.1711 62.1292 43.1548 62.1122 44.1385C62.0953 44.7151 62.3327 44.9356 62.9094 44.9356C64.8768 44.9186 66.8611 44.9186 68.8285 44.9356C69.4051 44.9356 69.6426 44.6812 69.6256 44.1215C69.6086 43.1378 69.6086 42.1541 69.6256 41.1704C69.6426 40.6277 69.4051 40.4242 68.8624 40.4242C67.8787 40.4581 66.8781 40.4411 65.8944 40.4411Z" fill="#FAC306"/>
<path d="M73.1533 67.0347C75.3751 67.0178 77.5799 66.9669 79.8017 66.9669C80.4632 66.9669 80.7684 66.7803 80.7345 66.051C80.6836 64.8808 80.7176 63.6936 80.7006 62.5233C80.972 62.7947 80.9211 63.1508 80.9381 63.4731C80.972 64.5077 80.8533 65.5592 81.0229 66.5938C81.0907 66.9839 80.9041 67.2213 80.531 67.2213C78.1566 67.2213 75.7991 67.2043 73.4247 67.1874C73.3399 67.2043 73.2551 67.0856 73.1533 67.0347Z" fill="#FAC306"/>
<path d="M73.2031 44.8677C75.3401 44.8677 77.4771 44.8508 79.6141 44.8847C80.3434 44.9017 80.6487 44.6473 80.5978 43.918C80.5639 43.3583 80.5639 42.7986 80.5978 42.2389C80.6487 41.5435 80.5808 40.8991 79.9194 40.492C80.5978 40.3394 80.8352 40.6277 80.8183 41.2891C80.7843 42.2728 80.8183 43.2565 80.8183 44.2402C80.8183 44.5455 80.8352 44.8677 80.5469 45.0713C78.2233 45.0713 75.8828 45.0713 73.5593 45.0713C73.4236 45.0034 73.3218 44.9356 73.2031 44.8677Z" fill="#D49B3A"/>
<path d="M84.0747 44.8677C86.7205 44.8677 89.3663 44.8677 92.0121 44.8677C91.9103 44.9356 91.8255 45.0034 91.7238 45.0543C89.2815 45.0543 86.8392 45.0712 84.3969 45.0712C84.2952 45.0204 84.1765 44.9356 84.0747 44.8677Z" fill="#D49B3A"/>
<path d="M84.3975 45.0882C86.8397 45.0882 89.282 45.0712 91.7243 45.0712C91.5038 45.2408 91.2494 45.2239 90.995 45.2239C89.0106 45.2239 87.0263 45.2239 85.042 45.2239C84.8384 45.2069 84.6179 45.1221 84.3975 45.0882Z" fill="#93541E"/>
<path d="M73.5425 45.0712C75.883 45.0712 78.2065 45.0712 80.5301 45.0712C80.1061 45.3087 79.6482 45.1899 79.2072 45.2069C77.6129 45.2239 76.0187 45.2239 74.4244 45.2069C74.1361 45.2069 73.8138 45.2578 73.5425 45.0712Z" fill="#93541E"/>
<path d="M128.425 73.6661C128.29 73.717 128.171 73.7679 128.018 73.8018C126.254 74.1749 125.932 73.9375 125.932 72.1397C125.932 70.9016 125.949 69.6635 125.932 68.4254C125.932 67.8657 126.136 67.5774 126.729 67.6283C127.95 67.7301 129.188 67.4587 130.41 67.764C130.189 67.764 129.969 67.764 129.731 67.764C128.476 67.7809 128.425 67.8657 128.374 69.1038C128.357 70.6303 128.595 72.1567 128.425 73.6661Z" fill="#FAC306"/>
<path d="M110.448 67.5944C110.567 67.6113 110.685 67.6113 110.804 67.6283C110.906 67.6622 111.008 67.7131 111.126 67.73C112.585 67.9166 112.636 67.9844 112.653 69.4769C112.67 70.9016 112.653 72.3432 112.653 73.7679C112.178 73.9884 111.652 73.8696 111.16 73.9036C110.618 73.9375 110.414 73.6661 110.414 73.1403C110.448 71.3086 110.448 69.46 110.448 67.5944Z" fill="#FAC306"/>
<path d="M128.426 73.6662C128.595 72.1398 128.358 70.6303 128.409 69.1039C128.46 67.8658 128.51 67.781 129.765 67.7641C129.986 67.7641 130.206 67.7641 130.444 67.7641C130.766 68.1881 130.613 68.6799 130.63 69.1548C130.664 70.3929 130.597 71.631 130.664 72.8521C130.698 73.6493 130.41 73.9376 129.647 73.8528C129.24 73.8019 128.799 73.9715 128.426 73.6662Z" fill="#FAC306"/>
<path d="M115.163 71.9871C115.163 72.1058 115.163 72.2245 115.163 72.3432C115.078 72.445 115.078 72.5637 115.163 72.6655C115.163 72.886 115.163 73.1234 115.163 73.3439C114.909 73.4626 114.909 73.5644 115.163 73.6831C115.146 73.734 115.146 73.8018 115.129 73.8527C114.705 73.8527 114.281 73.8357 113.857 73.8527C113.28 73.8697 113.043 73.5474 113.026 73.0216C112.975 71.597 112.924 70.1554 112.924 68.7307C112.924 68.4254 112.873 68.0184 113.246 67.8318C113.976 67.4757 114.824 67.8149 115.146 68.5781C115.146 68.6968 115.146 68.8325 115.146 68.9512C114.942 69.9858 114.926 70.9864 115.163 71.9871Z" fill="#FAC306"/>
<path d="M120.574 77.1429C120.523 77.1599 120.472 77.1769 120.404 77.1938C118.335 77.4822 118.267 77.4313 118.267 75.3791C118.267 74.7007 118.284 74.0223 118.267 73.3608C118.25 72.8011 118.471 72.5128 119.064 72.5467C119.573 72.5807 120.082 72.4789 120.574 72.6485C120.574 74.141 120.574 75.6505 120.574 77.1429Z" fill="#FAC306"/>
<path d="M128.427 74.7516C131.14 74.6838 130.547 74.5142 130.614 76.8038C130.631 77.4483 130.597 78.0928 130.614 78.7542C130.648 79.3987 130.394 79.704 129.715 79.6192C129.275 79.5683 128.817 79.721 128.393 79.4666C128.41 77.8893 128.427 76.312 128.427 74.7516Z" fill="#FAC306"/>
<path d="M128.087 79.4666C127.731 79.704 127.324 79.5683 126.934 79.6023C126.307 79.6531 126.001 79.3987 126.018 78.7203C126.052 77.6518 126.052 76.5664 126.018 75.4979C126.001 74.8534 126.273 74.6329 126.866 74.6838C127.256 74.7177 127.663 74.7177 128.054 74.7347C128.071 76.312 128.087 77.8893 128.087 79.4666Z" fill="#FAC306"/>
<path d="M122.948 72.7334C122.965 73.9375 122.931 75.1417 122.982 76.3459C123.015 77.0582 122.744 77.3296 122.049 77.2448C121.693 77.2109 121.319 77.2278 120.963 77.2109C120.963 76.295 120.946 75.3622 120.946 74.4464C120.946 72.5299 120.946 72.5298 122.948 72.7334Z" fill="#FAC306"/>
<path d="M112.618 64.8469C112.568 64.8638 112.517 64.8977 112.466 64.9147C110.532 65.3048 110.312 65.1182 110.295 63.2017C110.295 60.963 110.295 60.963 112.602 61.2174C112.602 62.4216 112.618 63.6427 112.618 64.8469Z" fill="#FAC306"/>
<path d="M120.437 69.6297C119.708 69.6297 118.979 69.6297 118.249 69.6127C118.249 68.6121 118.215 67.5945 118.232 66.5938C118.232 66.2037 118.063 65.6101 118.69 65.6101C119.318 65.6101 120.115 65.1522 120.522 66.085C120.522 66.2376 120.522 66.4072 120.505 66.5599C120.488 67.5775 120.454 68.6121 120.437 69.6297Z" fill="#FAC306"/>
<path d="M110.449 77.2617C110.449 76.8716 110.449 76.4816 110.432 76.0915C110.499 74.8195 110.737 74.6838 111.839 75.2943C111.907 75.3283 112.026 75.3622 112.043 75.3283C112.552 74.8364 112.45 75.3452 112.467 75.5996C112.484 76.5494 112.467 77.5161 112.484 78.4659C112.501 79.6362 112.518 79.6362 111.398 79.4835C111.127 79.4496 110.907 79.4496 110.974 79.0426C111.025 78.7033 110.737 78.5677 110.466 78.4659C110.466 78.3472 110.466 78.2454 110.466 78.1267C110.94 77.8214 110.771 77.5501 110.449 77.2617Z" fill="#FAC306"/>
<path d="M120.522 66.0849C120.132 65.1521 119.318 65.61 118.691 65.61C118.063 65.61 118.25 66.2036 118.233 66.5937C118.216 67.5944 118.233 68.612 118.25 69.6126C118.182 69.5787 118.046 69.5278 118.046 69.4939C118.25 68.0184 117.707 66.5259 118.25 65.0673C118.708 65.0673 119.148 65.0503 119.606 65.0673C120.217 65.1012 120.505 64.8468 120.437 64.2193C120.42 63.9988 120.437 63.7614 120.437 63.5409C120.437 61.2852 120.437 61.2852 118.233 61.2852C119.674 60.946 121.133 61.1834 122.591 61.1664C122.897 61.1664 122.981 61.4548 122.981 61.7261C122.981 64.1854 122.981 66.6276 122.981 69.0869C122.981 69.4939 122.795 69.7313 122.388 69.7653C121.913 69.7992 121.438 69.884 120.98 69.6296C121.184 69.6296 121.37 69.6296 121.574 69.6296C122.744 69.6296 122.829 69.5448 122.829 68.3745C122.829 67.6961 122.812 67.0177 122.829 66.3393C122.846 65.5931 122.354 65.5761 121.794 65.5591C121.201 65.5422 120.929 65.7287 120.929 66.3732C120.929 67.3569 121.065 68.3406 120.828 69.3243C120.828 67.9844 120.828 66.6446 120.828 65.2878C120.505 65.5422 120.726 65.8475 120.522 66.0849ZM122.829 63.2525C122.829 62.8625 122.812 62.4554 122.829 62.0653C122.863 61.37 122.456 61.2852 121.896 61.3021C121.387 61.3191 120.912 61.3021 120.929 62.0145C120.946 62.8116 120.929 63.5918 120.929 64.3889C120.929 64.8468 121.133 65.0334 121.591 65.0673C122.659 65.1521 122.812 65.0164 122.812 63.931C122.829 63.7105 122.829 63.49 122.829 63.2525Z" fill="#CA6925"/>
<path d="M118.232 61.3021C120.437 61.3021 120.437 61.3021 120.437 63.5578C120.437 63.7783 120.42 64.0158 120.437 64.2363C120.488 64.8638 120.217 65.1182 119.606 65.0843C119.165 65.0503 118.707 65.0843 118.249 65.0843C118.249 63.8123 118.249 62.5572 118.232 61.3021Z" fill="#FAC306"/>
<path d="M128.223 64.8468C126.035 64.9995 126.035 64.9995 126.035 62.8964C126.035 61.0308 126.035 61.0308 127.917 61.2004C128.036 61.2173 128.138 61.2513 128.239 61.2682C128.223 62.4385 128.223 63.6427 128.223 64.8468Z" fill="#FAC306"/>
<path d="M115.147 77.7706C115.147 78.3303 115.147 78.9069 115.164 79.4666C114.655 79.5005 114.163 79.5344 113.654 79.5344C113.484 79.5344 113.315 79.4496 113.315 79.2292C113.332 78.2115 113.01 77.2278 113.145 76.2102C113.213 75.7523 113.179 75.1757 113.688 75.0909C114.502 74.9382 114.892 75.3792 115.028 76.1424C115.113 76.7021 114.74 77.2618 115.147 77.7706Z" fill="#FAC306"/>
<path d="M115.146 77.7705C114.722 77.2617 115.112 76.702 115.027 76.1593C114.891 75.3791 114.501 74.9551 113.687 75.1078C113.195 75.1926 113.212 75.7692 113.144 76.2272C113.009 77.2448 113.331 78.2454 113.314 79.2461C113.314 79.4666 113.484 79.5514 113.653 79.5514C114.162 79.5344 114.654 79.5005 115.163 79.4835C115.044 79.9245 114.688 79.8058 114.4 79.8058C113.518 79.8227 112.653 79.8058 111.771 79.8058C110.431 79.8058 110.431 79.8058 110.465 78.4659C110.736 78.5846 111.024 78.7203 110.974 79.0426C110.906 79.4496 111.143 79.4326 111.398 79.4835C112.517 79.6362 112.517 79.6362 112.483 78.4659C112.466 77.5161 112.483 76.5494 112.466 75.5996C112.466 75.3622 112.551 74.8364 112.042 75.3283C112.008 75.3622 111.889 75.3283 111.839 75.2943C110.736 74.7007 110.499 74.8364 110.431 76.0915C110.176 74.8703 110.278 74.7347 111.465 74.7347C112.415 74.7347 113.382 74.7686 114.332 74.7516C114.942 74.7347 115.214 74.9382 115.18 75.5827C115.146 76.312 115.163 77.0412 115.146 77.7705Z" fill="#D49B3A"/>
<path d="M120.828 69.3243C121.082 68.3576 120.929 67.357 120.929 66.3733C120.929 65.7288 121.201 65.5253 121.794 65.5592C122.337 65.5761 122.829 65.5931 122.829 66.3393C122.812 67.0178 122.846 67.6962 122.829 68.3746C122.829 69.5448 122.744 69.6296 121.574 69.6296C121.37 69.6296 121.184 69.6296 120.98 69.6296C120.929 69.6127 120.879 69.6127 120.828 69.6127C120.828 69.5109 120.828 69.4261 120.828 69.3243Z" fill="#FAC306"/>
<path d="M113.993 61.1835C114.112 61.1835 114.23 61.1835 114.349 61.1835L114.417 61.2174L114.485 61.1835C114.654 61.1835 114.824 61.2004 114.994 61.2004C114.994 61.9467 114.994 62.7099 114.994 63.4562C114.994 64.7282 114.909 64.813 113.62 64.8808H113.552L113.484 64.8638C113.264 64.1515 113.145 63.4222 113.145 62.676C113.162 62.0485 113.009 61.3022 113.993 61.1835Z" fill="#FAC306"/>
<path d="M128.765 61.2004C129.324 61.2004 129.884 61.2004 130.461 61.2174C130.461 62.0315 130.478 62.8456 130.444 63.6597C130.427 64.2702 130.054 64.5416 129.443 64.5586C128.782 64.5755 128.765 64.1346 128.765 63.6427C128.765 62.8117 128.765 61.9976 128.765 61.2004Z" fill="#FAC306"/>
<path d="M115.163 68.595C114.841 67.8318 113.993 67.4926 113.264 67.8488C112.891 68.0353 112.925 68.4424 112.942 68.7477C112.959 70.1723 112.993 71.6139 113.043 73.0386C113.06 73.5644 113.298 73.8866 113.874 73.8697C114.298 73.8527 114.723 73.8697 115.147 73.8697C114.417 74.1749 113.637 73.9375 112.891 74.0053C112.806 73.9375 112.738 73.8527 112.653 73.7849C112.653 72.3602 112.653 70.9186 112.653 69.4939C112.636 67.9845 112.586 67.9336 111.127 67.747C111.025 67.7301 110.923 67.6792 110.805 67.6453C111.941 67.6283 113.094 67.6622 114.231 67.5944C115.028 67.5435 115.333 67.8318 115.163 68.595Z" fill="#D49B3A"/>
<path d="M112.653 73.7849C112.737 73.8528 112.805 73.9376 112.89 74.0054C112.687 74.1072 112.5 74.2259 112.28 74.2937C110.855 74.7856 110.109 74.2598 110.109 72.7843C110.109 71.3427 110.109 69.918 110.109 68.4764C110.109 68.1372 110.058 67.781 110.448 67.6114C110.431 69.4601 110.431 71.3087 110.414 73.1574C110.414 73.6832 110.617 73.9545 111.16 73.9206C111.652 73.9037 112.161 74.0054 112.653 73.7849Z" fill="#D43228"/>
<path d="M122.948 72.7333C120.963 72.5298 120.963 72.5298 120.963 74.4463C120.963 75.3621 120.98 76.2949 120.98 77.2108C120.845 77.1938 120.726 77.1769 120.59 77.143C120.59 75.6335 120.59 74.141 120.59 72.6315C121.371 72.3941 122.168 72.004 122.948 72.7333Z" fill="#CA6925"/>
<path d="M128.765 61.2004C128.765 62.0144 128.765 62.8285 128.765 63.6426C128.765 64.1175 128.782 64.5585 129.444 64.5585C130.037 64.5415 130.41 64.2702 130.444 63.6596C130.478 62.8455 130.461 62.0314 130.461 61.2173C130.512 61.2173 130.546 61.2173 130.597 61.2173C130.597 61.6583 130.614 62.1162 130.614 62.5572C130.614 64.6772 130.614 64.6772 128.545 64.779C128.511 64.2532 128.477 63.7444 128.443 63.2186C128.579 62.9812 128.579 62.7437 128.443 62.4893C128.443 62.1162 128.443 61.7431 128.443 61.353C128.494 61.2852 128.545 61.2343 128.596 61.1664C128.646 61.1664 128.714 61.1834 128.765 61.2004Z" fill="#D49B3A"/>
<path d="M128.087 79.4666C128.07 77.8893 128.07 76.3289 128.053 74.7516C128.171 74.7516 128.307 74.7516 128.426 74.7516C128.426 76.3289 128.409 77.8893 128.409 79.4666C128.307 79.4496 128.205 79.4496 128.087 79.4666Z" fill="#CA6925"/>
<path d="M112.619 64.8469C112.619 63.6427 112.619 62.4216 112.619 61.2174C112.754 61.2004 112.89 61.2004 113.009 61.1835C113.009 62.3707 112.992 63.5749 112.992 64.7621C112.856 64.796 112.737 64.813 112.619 64.8469Z" fill="#CA6925"/>
<path d="M128.528 64.779C130.598 64.6773 130.598 64.6773 130.598 62.5572C130.598 62.1163 130.581 61.6584 130.581 61.2174C130.971 62.3028 130.733 63.4222 130.716 64.5077C130.716 64.8469 130.36 64.8978 130.072 64.8978C129.546 64.8978 129.02 64.8638 128.478 64.8638C128.511 64.8299 128.528 64.796 128.528 64.779Z" fill="#CA6925"/>
<path d="M112.992 64.7621C112.992 63.5749 113.009 62.3707 113.009 61.1835C113.331 61.1835 113.671 61.1835 113.993 61.1835C113.009 61.3022 113.162 62.0485 113.162 62.7099C113.162 63.4561 113.281 64.1854 113.501 64.8978C113.331 64.8469 113.162 64.813 112.992 64.7621Z" fill="#D49B3A"/>
<path d="M113.637 64.8978C114.926 64.8299 115.011 64.7451 115.011 63.4731C115.011 62.7268 115.011 61.9636 115.011 61.2174C115.35 62.3198 115.248 63.4731 115.095 64.5586C114.994 65.3557 114.179 64.9486 113.637 64.8978Z" fill="#D49B3A"/>
<path d="M120.828 69.3243C120.828 69.4261 120.828 69.5109 120.828 69.6127C120.76 69.6127 120.709 69.6296 120.642 69.6296C120.557 68.612 120.76 67.5774 120.506 66.5598C120.506 66.4072 120.506 66.2376 120.523 66.0849C120.726 65.8475 120.506 65.5422 120.828 65.2878C120.828 66.6446 120.828 67.9845 120.828 69.3243Z" fill="#D43228"/>
<path d="M128.528 64.779C128.528 64.813 128.511 64.8299 128.494 64.8638C128.392 64.8638 128.307 64.8469 128.206 64.8469C128.206 63.6427 128.223 62.4555 128.223 61.2513C128.273 61.2344 128.324 61.2004 128.375 61.1835C128.392 61.2344 128.409 61.3022 128.409 61.3531C128.409 61.7262 128.409 62.0993 128.409 62.4894C128.409 62.7269 128.409 62.9643 128.409 63.2187C128.477 63.7275 128.494 64.2533 128.528 64.779Z" fill="#93541E"/>
<path d="M115.163 71.9871C114.926 70.9864 114.943 69.9688 115.163 68.9682C115.163 69.9858 115.163 70.9864 115.163 71.9871Z" fill="#D49B3A"/>
<path d="M120.505 66.5598C120.76 67.5774 120.556 68.612 120.641 69.6296C120.573 69.6296 120.505 69.6127 120.42 69.6127C120.454 68.612 120.488 67.5774 120.505 66.5598Z" fill="#CA6925"/>
<path d="M110.448 77.2618C110.77 77.5331 110.94 77.8215 110.465 78.1098C110.448 77.8215 110.448 77.5501 110.448 77.2618Z" fill="#D49B3A"/>
<path d="M115.163 73.7C114.909 73.5813 114.909 73.4796 115.163 73.3608C115.18 73.4796 115.163 73.5813 115.163 73.7Z" fill="#D49B3A"/>
<path d="M115.18 72.6825C115.095 72.5807 115.095 72.462 115.18 72.3602C115.163 72.462 115.18 72.5637 115.18 72.6825Z" fill="#D49B3A"/>
<path d="M128.443 61.353C128.426 61.3021 128.409 61.2343 128.409 61.1834C128.477 61.1834 128.545 61.1834 128.613 61.1664C128.545 61.2343 128.494 61.3021 128.443 61.353Z" fill="#CA6925"/>
<path d="M114.502 61.1835L114.434 61.2174L114.366 61.1835C114.4 61.1665 114.451 61.1665 114.502 61.1835Z" fill="#D49B3A"/>
<path d="M62.2476 58.4698C60.823 58.4698 59.5849 58.4698 58.2959 58.4698C58.4994 57.9949 58.8217 58.0967 59.0761 58.0967C61.5692 58.0797 64.0454 58.0797 66.5386 58.0967C67.5392 58.0967 67.7258 58.3002 67.7258 59.3008C67.7258 64.0667 67.7258 68.8494 67.7258 73.6152C67.7258 73.8357 67.7088 74.0732 67.6749 74.2937C67.624 74.5481 67.4374 74.6668 67.183 74.6668C66.9117 74.6668 66.776 74.4972 66.7421 74.2428C66.7251 73.9545 66.7082 73.6831 66.7082 73.3948C66.7082 68.8494 66.7082 64.3041 66.7082 59.7588C66.7082 59.5044 66.7082 59.25 66.6912 58.9956C66.6742 58.792 66.6573 58.5546 66.4368 58.5207C66.0806 58.4698 66.2672 58.7581 66.2163 58.9107C66.0298 59.5552 65.3344 59.5892 64.7577 58.8599C64.4016 58.4189 64.0115 58.4189 63.5705 58.4359C63.35 58.4359 63.1296 58.4359 63.1465 58.792C63.1635 59.3348 62.7904 59.4365 62.3494 59.3517C62.095 59.3008 61.8406 59.3008 61.6031 59.3517C61.3827 59.4026 61.1113 59.4535 61.0435 59.1482C60.9926 58.8429 61.247 58.809 61.4844 58.7751C61.654 58.7581 61.8745 58.8259 62.2476 58.4698Z" fill="#D43229"/>
<path d="M46.8652 72.004C44.406 72.0719 44.8809 72.1906 44.847 70.1214C44.83 69.477 44.8639 68.8325 44.83 68.171C44.813 67.6453 45.0335 67.4078 45.5763 67.4078C46.6108 67.4078 47.6624 67.4078 48.6969 67.3739C49.2566 67.3569 49.3584 67.6792 49.3584 68.1201C49.3584 69.1378 49.3245 70.1554 49.3753 71.156C49.4093 71.8683 49.1209 72.1397 48.4425 72.0888C48.0185 72.0719 47.5945 72.1058 47.1875 71.9701C47.1875 70.5794 47.1875 69.1886 47.1875 67.7979C47.0857 67.7979 46.967 67.7979 46.8652 67.7979C46.8652 69.2226 46.8652 70.6133 46.8652 72.004Z" fill="#FAC306"/>
<path d="M62.942 86.081C62.942 86.929 62.942 87.777 62.942 88.625C62.942 89.066 62.7724 89.3204 62.2975 89.3204C62.2635 89.3204 62.2466 89.3204 62.2127 89.3204C59.6178 89.3374 60.1605 89.4561 60.1096 87.37C60.0926 86.1319 60.1266 84.8938 60.0926 83.6387C60.0757 83.0282 60.3131 82.7738 60.9237 82.7738C63.366 82.7738 62.8741 82.6381 62.925 84.6563C62.942 85.1143 62.925 85.6061 62.942 86.081C62.925 86.081 62.925 86.081 62.942 86.081Z" fill="#FAC306"/>
<path d="M47.1698 85.9962C47.1698 86.8103 47.1528 87.6244 47.1698 88.4385C47.1867 88.9473 46.9493 89.1169 46.4574 89.1508C44.4731 89.2865 44.4731 89.2865 44.4901 87.3361C44.4901 86.098 44.524 84.8599 44.507 83.6218C44.4901 82.9942 44.6936 82.7229 45.372 82.7059C47.1528 82.672 47.1528 82.655 47.1528 84.4698C47.1528 84.9786 47.1528 85.4874 47.1698 85.9962Z" fill="#FAC306"/>
<path d="M66.3686 86.081C66.3686 86.8951 66.3517 87.7261 66.3686 88.5402C66.3856 89.1338 66.1481 89.3373 65.5715 89.3204C63.4684 89.3034 63.7907 89.4561 63.7737 87.5904C63.7737 86.2845 63.7907 84.9955 63.7568 83.6896C63.7398 83.0112 63.9603 82.7059 64.6726 82.7229C66.7078 82.7398 66.3347 82.655 66.3686 84.385C66.3856 84.9446 66.3686 85.5213 66.3686 86.081Z" fill="#FAC306"/>
<path d="M49.2555 64.1685C47.9157 64.5586 46.5419 64.4059 45.1681 64.4568C44.8628 64.4738 44.7611 64.1854 44.778 63.9141C44.8628 62.7608 44.8289 61.6075 44.7272 60.4542C44.6932 60.0641 44.7611 59.6231 45.236 59.6401C46.5758 59.6401 47.9157 59.4875 49.2386 59.8436C49.2555 61.2852 49.2555 62.7269 49.2555 64.1685ZM49.035 61.9806C49.052 61.9806 49.069 61.9806 49.0859 61.9806C49.052 61.4548 49.069 60.9121 48.9672 60.3863C48.8824 59.9963 48.5432 59.8097 48.1362 59.8097C47.8818 59.8097 47.6104 59.7758 47.4577 60.0471C47.2881 60.3694 47.3899 60.6408 47.7122 60.8273C47.8987 60.9291 47.8648 61.0817 47.8139 61.2683C47.6104 61.9636 47.7291 62.659 47.7122 63.3544C47.6952 63.7105 47.6613 64.1515 48.204 64.1685C48.7128 64.1854 49.0011 63.8802 49.035 63.4053C49.069 62.9304 49.035 62.4555 49.035 61.9806Z" fill="#FAC306"/>
<path d="M48.0179 87.2852C48.0179 86.081 48.0518 84.8768 48.0179 83.6727C48.0009 83.0112 48.2553 82.7568 48.8998 82.8077C49.4086 82.8586 49.9005 82.8586 50.4093 82.8755C50.4093 84.5885 50.3923 86.3185 50.4262 88.0314C50.4432 88.7438 50.1549 88.9473 49.4765 88.9643C49.0016 88.9812 48.5606 88.6929 48.0857 88.9134C48.0688 88.3876 48.0518 87.8279 48.0179 87.2852Z" fill="#FAC306"/>
<path d="M54.106 75.2434C55.3441 75.2604 55.3441 75.2604 55.3441 76.5324C55.3441 77.2787 55.3441 78.0419 55.4798 78.7881C55.4798 77.8553 55.4968 76.9395 55.4798 76.0067C55.4629 75.2943 55.8869 75.2265 56.4126 75.2604C56.9214 75.3113 57.6507 75.006 57.6507 75.9558C57.6677 77.0921 57.6677 78.2115 57.6507 79.3478C57.6507 79.6022 57.5998 79.9414 57.2946 79.9245C55.9717 79.8736 54.6318 80.111 53.3089 79.7888C53.3089 79.1952 53.2919 78.6185 53.3259 78.0249C53.3767 77.143 53.1393 76.2441 53.4785 75.3791C53.4785 75.5826 53.4615 75.7692 53.4615 75.9727C53.4615 76.9225 53.4615 77.8892 53.4615 78.839C53.4615 79.1782 53.5633 79.4665 53.9873 79.4496C54.53 79.4157 54.1739 79.0595 54.1908 78.839C54.1908 78.7712 54.2587 78.7033 54.2926 78.6355C55.1406 79.0934 55.1406 79.0934 55.1406 78.1606C55.1406 77.7366 55.1406 77.3126 55.1406 76.8886C55.1406 75.5487 55.1406 75.5487 53.8516 75.3113C53.9534 75.2774 54.0212 75.2604 54.106 75.2434Z" fill="#FAC306"/>
<path d="M63.8241 79.4835C63.6545 80.6198 62.7725 79.9923 62.2128 80.094C61.6532 80.1958 61.6192 79.7379 61.6192 79.3138C61.6192 78.2793 61.6532 77.2277 61.6192 76.1932C61.5853 75.4808 61.8906 75.2264 62.569 75.2773C62.9761 75.3112 63.417 75.1925 63.8071 75.43C63.8071 75.6504 63.8241 75.854 63.8241 76.0744C63.8241 76.4137 63.8241 76.7529 63.8241 77.0921C63.8241 77.2108 63.8241 77.3295 63.8241 77.4313C63.8241 77.7705 63.8241 78.1097 63.8241 78.4489C63.8241 78.7881 63.8241 79.1442 63.8241 79.4835Z" fill="#FAC306"/>
<path d="M46.8476 79.9584C46.7119 80.0093 46.5763 80.0602 46.4406 80.0772C44.7785 80.2637 44.6598 80.1789 44.6598 78.4999C44.6598 77.7197 44.6937 76.9226 44.6428 76.1424C44.6089 75.4979 44.8463 75.1926 45.5078 75.2605C45.9487 75.3113 46.4067 75.1757 46.8307 75.4131C46.8476 76.9226 46.8476 78.432 46.8476 79.9584Z" fill="#FAC306"/>
<path d="M55.2087 62.0993C55.2087 62.659 55.1747 63.2187 55.2256 63.7784C55.2595 64.2193 55.1747 64.5585 54.6829 64.4907C54.1571 64.4398 53.3091 64.8638 53.2243 63.9988C53.0886 62.7268 53.0886 61.4039 53.2243 60.1319C53.3261 59.2839 54.191 59.7588 54.6999 59.674C55.1578 59.5892 55.2256 59.9284 55.2087 60.3185C55.1917 60.9121 55.2087 61.5057 55.2087 62.0993Z" fill="#FAC306"/>
<path d="M55.5143 62.0823C55.5143 61.6583 55.5143 61.2343 55.5143 60.8103C55.5143 59.7249 56.1418 59.3009 57.1933 59.674C57.5495 59.7927 57.5664 60.0641 57.5664 60.3524C57.5664 61.5057 57.5664 62.659 57.5664 63.8123C57.5664 64.6942 56.922 64.4907 56.4301 64.5076C55.9043 64.5416 55.4634 64.4907 55.5143 63.7614C55.5312 63.2187 55.5143 62.642 55.5143 62.0823Z" fill="#FAC306"/>
<path d="M55.4967 67.6114C55.6493 67.5605 55.8189 67.4927 55.9716 67.4757C57.481 67.34 57.5149 67.374 57.5149 68.9004C57.5149 69.5788 57.5149 70.2402 57.5149 70.9186C57.5149 72.0041 57.3453 72.1737 56.2599 72.1907C55.9885 72.1907 55.7002 72.2415 55.4458 72.055C55.4797 70.5625 55.4797 69.0869 55.4967 67.6114Z" fill="#FAC306"/>
<path d="M61.6025 63.8801C61.6025 62.8286 61.6534 61.794 61.5855 60.7425C61.5347 59.9284 61.8739 59.674 62.6201 59.7588C62.9593 59.7927 63.2985 59.7927 63.6377 59.8097C63.6377 60.8273 63.6377 61.8279 63.6377 62.8455C63.6377 64.4568 63.519 64.5585 61.8908 64.3041C61.806 64.2872 61.7212 64.2532 61.6534 64.2363C61.6364 64.2024 61.6195 64.1854 61.6025 64.1515C61.6025 64.0836 61.6025 63.9819 61.6025 63.8801Z" fill="#D3A03A"/>
<path d="M61.6699 72.004C61.6529 70.6472 61.636 69.2904 61.6021 67.9336C62.2296 67.4587 62.9249 67.5774 63.6373 67.6452C63.6373 68.4254 63.6542 69.2226 63.6373 70.0027C63.6203 72.2415 63.9086 71.9871 61.6699 72.004Z" fill="#FAC306"/>
<path d="M64.9949 75.2265C65.8429 75.1587 66.0973 75.5318 66.0464 76.3629C65.9616 77.567 66.0125 78.7712 65.9956 79.9754C65.6564 79.9754 65.3172 79.9754 64.978 79.9754C64.537 79.9923 64.2656 79.8058 64.2656 79.3478C64.2656 78.1606 64.2826 76.9904 64.2995 75.8032C64.2995 75.5488 64.4691 75.3961 64.6557 75.2604V75.2096C64.7744 75.2265 64.8932 75.2265 64.9949 75.2265Z" fill="#FAC306"/>
<path d="M67.6921 81.3661C67.8278 82.5363 67.2681 83.4861 67.336 84.5546C67.4547 86.0641 67.2681 87.5905 67.6582 89.0999C67.76 89.49 67.6921 89.9479 67.6921 90.3719C67.6921 90.5924 67.6921 90.8638 67.4038 90.9147C67.0816 90.9656 66.9798 90.6942 66.895 90.4567C66.7254 89.8801 66.6745 89.3204 66.7932 88.7098C67.1494 86.6746 67.2172 84.6394 66.7593 82.6042C66.6067 81.9427 66.6745 81.2643 66.7254 80.5859C66.7424 80.3315 66.8611 80.0601 67.1833 80.0771C67.5225 80.0941 67.6582 80.3315 67.6752 80.6537C67.7091 80.9251 67.6921 81.2134 67.6921 81.3661Z" fill="#D43229"/>
<path d="M47.0342 75.413C47.119 75.3791 47.1868 75.3452 47.2716 75.3282C49.1203 74.9381 49.3747 75.1417 49.3916 76.9903C49.3916 77.6348 49.3408 78.2963 49.4086 78.9238C49.5104 79.7888 49.1712 80.128 48.3232 80.111C47.9331 80.111 47.543 80.2128 47.1868 79.9923C47.102 78.4659 47.3903 76.9225 47.0342 75.413ZM49.0524 77.7366C49.0524 77.2956 49.0355 76.8377 49.0524 76.3967C49.0524 75.8031 48.6624 75.7522 48.2044 75.7353C47.7295 75.7353 47.3734 75.837 47.3734 76.4137C47.3734 77.0921 47.4243 77.7705 47.3564 78.4319C47.2886 79.28 47.6787 79.5004 48.4419 79.5004C49.2729 79.5004 49.0185 78.9238 49.0694 78.4998C49.0864 78.2454 49.0524 77.991 49.0524 77.7366Z" fill="#D49B3A"/>
<path d="M55.4968 67.6114C55.4968 69.0869 55.4799 70.5625 55.4799 72.055C54.7675 72.2415 54.0382 72.3094 53.3259 72.055C53.6142 72.055 53.8856 72.0211 54.1739 72.055C54.9541 72.1398 55.2424 71.8006 55.1915 71.0374C55.1407 70.2572 55.1576 69.4601 55.1746 68.6629C55.1915 68.0184 55.1237 67.5944 54.2926 67.5944C53.4446 67.5944 53.3089 68.0354 53.3089 68.7138C53.3259 69.8162 53.292 70.9186 53.292 72.0211C52.9697 70.6473 53.1733 69.2735 53.1733 67.8997C53.1733 67.4418 53.5803 67.34 53.9704 67.3061C54.4962 67.2552 55.0389 67.2213 55.4968 67.6114Z" fill="#CA6925"/>
<path d="M63.7904 67.6452C63.9092 67.6283 64.0279 67.6113 64.1466 67.5944C64.1466 67.7131 64.1636 67.8148 64.1636 67.9336C64.1636 69.2904 64.1805 70.6472 64.1805 72.004C64.384 72.3093 64.6893 72.1566 64.9437 72.1566C66.1649 72.1736 66.1649 72.1736 66.1649 70.9864C66.1649 69.867 66.1649 68.7476 66.1649 67.6452C66.521 69.0529 66.2836 70.4946 66.3005 71.9192C66.3005 72.1397 66.1479 72.3093 65.9274 72.3093C64.5028 72.2923 63.0781 72.5467 61.6704 72.1566C62.0266 72.1566 62.3997 72.1397 62.7559 72.1736C63.5021 72.2584 63.8244 71.9871 63.7904 71.1899C63.7396 70.0027 63.7904 68.8324 63.7904 67.6452Z" fill="#CA6925"/>
<path d="M64.147 59.8097C64.8423 59.8097 65.5208 59.8266 66.2161 59.8266C66.1992 59.9284 66.1992 60.0471 66.1822 60.1489C65.8939 60.1489 65.6225 60.1658 65.3342 60.1489C64.554 60.0641 64.2657 60.4033 64.3166 61.1834C64.3675 61.794 64.3335 62.4215 64.3335 63.0491C64.3335 63.6427 64.4523 64.1854 65.1476 64.2024C65.9108 64.2193 65.9956 63.6427 66.0296 63.0321C66.0635 62.2011 65.86 61.3361 66.1822 60.522C66.1822 61.811 66.1822 63.0999 66.1822 64.3889C65.5207 64.7112 64.8423 64.5585 64.1639 64.5246C64.147 62.9303 64.147 61.37 64.147 59.8097Z" fill="#D49B3A"/>
<path d="M64.147 59.8097C64.147 61.37 64.1639 62.9303 64.1639 64.4907C63.5534 64.5076 62.9597 64.5416 62.3492 64.5585C62.0778 64.5585 61.7725 64.5924 61.6538 64.2702C61.7386 64.2872 61.8234 64.3211 61.8913 64.338C63.5194 64.5924 63.6382 64.4907 63.6382 62.8795C63.6382 61.8618 63.6382 60.8612 63.6382 59.8436C63.8078 59.8097 63.9774 59.8097 64.147 59.8097Z" fill="#CA6925"/>
<path d="M64.6551 75.2773C64.4686 75.413 64.299 75.5826 64.299 75.82C64.282 77.0073 64.2651 78.1775 64.2651 79.3647C64.2651 79.8227 64.5534 80.0092 64.9774 79.9923C65.3166 79.9753 65.6558 79.9923 65.995 79.9923C64.8587 80.3993 64.2142 80.2636 63.8241 79.5004C63.8241 79.1612 63.8241 78.805 63.8241 78.4658C64.0107 78.1266 64.0107 77.7874 63.8241 77.4482C63.8241 77.3295 63.8241 77.2108 63.8241 77.109C64.0107 76.7698 64.0107 76.4306 63.8241 76.0914C63.8241 75.8709 63.8071 75.6674 63.8071 75.4469C64.0785 75.3282 64.3499 75.1925 64.6551 75.2773Z" fill="#CA6925"/>
<path d="M48.0172 87.2853C48.0342 87.828 48.0511 88.3877 48.085 88.9304C48.509 89.2866 49.0009 89.117 49.4588 89.117C50.5443 89.1339 50.5612 89.1 50.5612 88.0485C50.5612 86.3355 50.5612 84.6225 50.5612 82.8926C50.7647 83.13 50.7308 83.4183 50.7308 83.7066C50.7308 85.2839 50.7478 86.8612 50.7308 88.4385C50.7308 89.3544 50.5951 89.4392 49.7132 89.3205C49.6284 89.3035 49.5436 89.3035 49.4588 89.3035C47.5253 89.1848 47.5253 89.1848 48.0172 87.2853Z" fill="#CA6925"/>
<path d="M65.2321 64.8638C65.5544 64.9486 66.0971 64.7451 66.0632 65.203C66.0123 65.8814 65.3509 65.8814 64.842 65.9662C64.3163 66.051 64.2993 65.6439 64.2993 65.3217C64.3163 64.6094 64.9099 65.0164 65.2321 64.8638Z" fill="#D43229"/>
<path d="M64.1639 67.9336C64.1639 67.8148 64.147 67.7131 64.147 67.5944C64.8254 67.4078 65.5038 67.34 66.1822 67.6283C66.1822 68.7477 66.1822 69.867 66.1822 70.9694C66.1822 72.1567 66.1822 72.1736 64.9611 72.1397C64.7067 72.1397 64.4014 72.2754 64.1979 71.9871C64.4862 71.9871 64.7575 71.9701 65.0459 71.9871C65.7582 72.0549 66.0804 71.7835 66.0465 71.0203C65.9956 70.291 66.0296 69.5618 66.0296 68.8155C66.0296 68.3406 66.0126 67.8657 65.5038 67.6622C65.0289 67.5096 64.554 67.5265 64.1639 67.9336Z" fill="#D49B3A"/>
<path d="M50.5612 82.9094C50.5612 84.6224 50.5612 86.3354 50.5612 88.0653C50.5612 89.1169 50.5442 89.1508 49.4587 89.1338C49.0008 89.1169 48.492 89.3034 48.085 88.9473C48.5598 88.7437 49.0008 89.0151 49.4757 88.9981C50.1541 88.9812 50.4424 88.7607 50.4255 88.0653C50.3916 86.3523 50.4085 84.6224 50.4085 82.9094C50.4594 82.8755 50.5103 82.8925 50.5612 82.9094Z" fill="#D49B3A"/>
<path d="M47.0342 75.4131C47.3904 76.9225 47.1021 78.4659 47.1869 79.9923C47.0681 79.9923 46.9664 79.9754 46.8477 79.9754C46.8477 78.449 46.8477 76.9395 46.8646 75.4131C46.9155 75.3961 46.9833 75.4131 47.0342 75.4131Z" fill="#CA6925"/>
<path d="M46.8643 72.0041C46.8643 70.6133 46.8643 69.2056 46.8643 67.8149C46.966 67.8149 47.0847 67.8149 47.1865 67.8149C47.1865 69.2056 47.1865 70.5964 47.1865 71.9871C47.0847 72.0041 46.983 72.0041 46.8643 72.0041Z" fill="#CA6925"/>
<path d="M64.4014 91.8475C65.1815 91.5931 65.9787 91.6948 66.7758 91.6948C66.9115 91.6948 67.0641 91.7627 67.0641 91.9323C67.0641 92.0849 66.9624 92.2376 66.7928 92.1697C66.0295 91.8475 65.1815 92.1358 64.4014 91.8475Z" fill="#C62E30"/>
<path d="M63.7908 67.6453C63.7908 68.8156 63.7399 70.0028 63.7908 71.1731C63.8247 71.9702 63.5194 72.2416 62.7562 72.1568C62.4001 72.1228 62.0269 72.1398 61.6708 72.1398C61.6538 72.0889 61.6538 72.038 61.6538 71.9872C63.8926 71.9702 63.6042 72.2246 63.6212 70.0028C63.6212 69.2226 63.6212 68.4255 63.6212 67.6453C63.6551 67.6284 63.706 67.6284 63.7399 67.6114L63.7908 67.6453Z" fill="#D49B3A"/>
<path d="M53.4788 75.3622C53.1396 76.2271 53.394 77.126 53.3262 78.008C53.2923 78.6016 53.3092 79.1782 53.3092 79.7718C52.9361 78.3641 53.1396 76.9225 53.1905 75.4979C53.2075 74.9551 53.6993 75.006 54.0894 75.2435C54.0216 75.2604 53.9368 75.2774 53.8689 75.2943C53.7502 75.3283 53.6145 75.3452 53.4788 75.3622Z" fill="#CA6925"/>
<path d="M66.1821 64.355C66.1821 63.066 66.1821 61.777 66.1821 60.4881C66.1821 60.3693 66.1821 60.2506 66.1821 60.1319C66.1991 60.0301 66.1991 59.9114 66.2161 59.8097C66.4365 61.3361 66.4874 62.8455 66.1821 64.355Z" fill="#CA6925"/>
<path d="M49.2554 64.1684C49.2554 62.7268 49.2554 61.2682 49.2554 59.8266C49.4928 61.2852 49.4928 62.7268 49.2554 64.1684Z" fill="#CA6925"/>
<path d="M64.9948 75.2264C64.8761 75.2264 64.7744 75.2264 64.6556 75.2264C64.4182 74.3106 64.4691 74.2597 65.4867 74.5141C65.351 74.7855 64.944 74.8703 64.9948 75.2264Z" fill="#D43229"/>
<path d="M65.7577 67.1873C65.5541 67.2043 65.4185 67.1195 65.4185 66.916C65.4185 66.6616 65.605 66.6107 65.8255 66.5937C65.9951 66.5937 66.1986 66.5937 66.1647 66.8312C66.1308 67.0347 65.9442 67.1534 65.7577 67.1873Z" fill="#C62E30"/>
<path d="M63.756 67.6114C63.7221 67.6283 63.6712 67.6283 63.6373 67.6453C62.9419 67.5775 62.2296 67.4587 61.6021 67.9336C61.619 67.4079 62.0261 67.4079 62.3822 67.4248C62.8401 67.4418 63.332 67.2891 63.756 67.6114Z" fill="#CA6925"/>
<path d="M58.2618 57.4183C58.0074 57.7744 57.8208 58.0458 57.4307 57.9949C57.3968 57.9949 57.3459 57.8423 57.3798 57.7914C57.5325 57.4183 57.8886 57.4352 58.2618 57.4183Z" fill="#C62E30"/>
<path d="M58.0411 59.674C57.8546 59.3857 57.8376 59.1822 58.0581 58.9447C58.2447 59.1652 58.2447 59.3687 58.0411 59.674Z" fill="#D43229"/>
<path d="M61.6031 63.8801C61.6031 63.9818 61.6031 64.0666 61.6031 64.1684C61.3487 64.0836 61.3826 63.9818 61.6031 63.8801Z" fill="#CA6925"/>
<path d="M64.0962 59.2999C64.1128 59.2833 64.1128 59.25 64.1294 59.25C64.146 59.25 64.1627 59.2667 64.1959 59.2833C64.1793 59.2999 64.1793 59.3331 64.1627 59.3331C64.1461 59.3331 64.1294 59.3165 64.0962 59.2999Z" fill="#D43229"/>
<path d="M65.8933 40.4411C66.8769 40.4411 67.8606 40.458 68.8443 40.4411C69.3871 40.4241 69.6075 40.6446 69.6075 41.1873C69.5906 42.171 69.5906 43.1547 69.6075 44.1384C69.6245 44.6981 69.404 44.9525 68.8104 44.9525C66.843 44.9355 64.8587 44.9355 62.8913 44.9525C62.3147 44.9525 62.0772 44.732 62.0942 44.1554C62.1281 43.1717 62.1281 42.188 62.0942 41.2043C62.0772 40.6616 62.2977 40.4411 62.8404 40.458C63.875 40.475 64.8756 40.458 65.8933 40.4411Z" fill="#D3A03A"/>
<path d="M122.829 63.2526C122.829 63.4731 122.829 63.7105 122.829 63.931C122.829 65.0165 122.66 65.1521 121.608 65.0673C121.15 65.0334 120.93 64.8469 120.947 64.3889C120.947 63.5918 120.964 62.8116 120.947 62.0145C120.93 61.3022 121.405 61.3022 121.913 61.3022C122.456 61.2852 122.88 61.37 122.846 62.0654C122.812 62.4724 122.829 62.8625 122.829 63.2526Z" fill="#FAC306"/>
<path d="M128.443 63.2187C128.443 62.9813 128.443 62.7438 128.443 62.4894C128.579 62.7269 128.579 62.9643 128.443 63.2187Z" fill="#CA6925"/>
<path d="M49.035 61.9806C49.035 62.4555 49.069 62.9304 49.0181 63.4053C48.9672 63.8802 48.6789 64.1854 48.187 64.1685C47.6443 64.1515 47.6952 63.7106 47.6952 63.3544C47.7121 62.659 47.5765 61.9467 47.7969 61.2683C47.8478 61.0987 47.8817 60.946 47.6952 60.8273C47.3729 60.6408 47.2881 60.3694 47.4408 60.0472C47.5765 59.7758 47.8648 59.8097 48.1192 59.8097C48.5262 59.8097 48.8824 59.9963 48.9502 60.3864C49.052 60.9121 49.035 61.4379 49.069 61.9806C49.069 61.9637 49.052 61.9806 49.035 61.9806Z" fill="#D3A03A"/>
<path d="M53.4795 75.3621C53.6152 75.3452 53.7339 75.3282 53.8696 75.2943C55.1586 75.5317 55.1586 75.5317 55.1586 76.8716C55.1586 77.2956 55.1586 77.7196 55.1586 78.1436C55.1416 79.0764 55.1416 79.0764 54.3105 78.6185C54.2766 78.6863 54.2257 78.7542 54.2088 78.822C54.1918 79.0425 54.548 79.3987 54.0053 79.4326C53.5982 79.4495 53.4795 79.1612 53.4795 78.822C53.4795 77.8722 53.4795 76.9055 53.4795 75.9557C53.4795 75.7522 53.4795 75.5657 53.4795 75.3621Z" fill="#FAC306"/>
<path d="M63.8247 76.0745C64.0113 76.4137 64.0113 76.7529 63.8247 77.0921C63.8078 76.7529 63.8078 76.4137 63.8247 76.0745Z" fill="#D43228"/>
<path d="M63.8071 77.4314C63.9937 77.7706 63.9937 78.1098 63.8071 78.449C63.8071 78.1098 63.8071 77.7706 63.8071 77.4314Z" fill="#D43228"/>
<path d="M49.0516 77.7366C49.0516 77.991 49.0686 78.2454 49.0516 78.4998C49.0007 78.9238 49.2551 79.5005 48.4241 79.5005C47.6609 79.5005 47.2708 79.28 47.3386 78.432C47.3895 77.7705 47.3556 77.0921 47.3556 76.4137C47.3556 75.8371 47.7118 75.7353 48.1866 75.7353C48.6446 75.7353 49.0516 75.7862 49.0346 76.3967C49.0516 76.8377 49.0516 77.2956 49.0516 77.7366Z" fill="#FAC306"/>
<path d="M53.292 71.9871C53.309 70.8847 53.3259 69.7822 53.309 68.6798C53.309 68.0014 53.4446 67.5605 54.2926 67.5605C55.1237 67.5605 55.2085 67.9845 55.1746 68.6289C55.1407 69.4261 55.1407 70.2062 55.1915 71.0034C55.2424 71.7666 54.9711 72.1227 54.1739 72.021C53.9026 71.9871 53.6142 72.021 53.3259 72.021C53.3259 72.0379 53.292 71.9871 53.292 71.9871Z" fill="#FAC306"/>
<path d="M64.1636 67.9336C64.5537 67.5266 65.0285 67.5096 65.4865 67.6962C65.9953 67.8997 66.0122 68.3746 66.0122 68.8495C66.0122 69.5788 65.9783 70.325 66.0292 71.0543C66.0801 71.8006 65.7578 72.0889 65.0285 72.0211C64.7572 71.9871 64.4689 72.0211 64.1805 72.0211C64.1805 70.6473 64.1636 69.2905 64.1636 67.9336Z" fill="#FAC306"/>
<path d="M66.165 60.1319C66.165 60.2506 66.165 60.3693 66.165 60.4881C65.8597 61.3022 66.0632 62.1671 66.0124 62.9982C65.9784 63.6087 65.8767 64.1854 65.1304 64.1684C64.4351 64.1515 64.3163 63.6087 64.3163 63.0151C64.3163 62.3876 64.3503 61.777 64.2994 61.1495C64.2485 60.3863 64.5199 60.0301 65.317 60.1149C65.6053 60.1658 65.8936 60.1319 66.165 60.1319Z" fill="#D3A03A"/>
</svg>
