<svg width="205" height="160" viewBox="0 0 205 160" fill="none" xmlns="http://www.w3.org/2000/svg">
<path d="M101.748 65.3788C95.675 65.353 89.6275 65.353 83.5541 65.3272C82.4687 65.3272 82.5462 66.025 82.5462 66.7227C82.5462 71.8916 82.5462 77.0604 82.5462 82.2034C82.5462 84.7103 82.5204 87.1913 82.572 89.6982C82.5979 90.6286 82.2619 91.0162 81.3057 90.9904C79.3157 90.9387 77.3515 90.9904 75.3615 91.0162C74.6379 90.887 73.8367 91.223 73.1648 90.7061C73.1648 90.4993 73.1906 90.2667 73.1906 90.06C73.1906 72.6669 73.1906 55.2738 73.1906 37.8807C73.1906 36.4593 72.958 36.2267 71.3815 36.2267C66.4712 36.2008 61.5608 36.2008 56.6504 36.2008C56.6504 24.9328 56.6504 13.6389 56.6504 2.37087C56.6504 0.510096 56.6504 0.510097 58.5112 0.510097C74.5345 0.510097 90.532 0.53594 106.555 0.53594C109.217 0.53594 111.879 0.510097 114.567 0.484253C114.722 0.484253 114.877 0.484253 115.058 0.484253C116.04 1.49217 116.118 2.70685 116.118 4.05074C116.092 32.2725 116.092 60.4943 116.118 88.6903C116.118 89.5431 116.014 90.3184 115.601 91.0421C115.42 91.0421 115.239 91.0421 115.058 91.0421C114.464 90.3184 113.818 91.0162 113.197 90.9904C110.199 90.9128 107.176 90.9387 104.152 90.9387C102.136 90.9387 102.136 90.9387 102.136 88.9745C102.136 81.5314 102.136 74.0883 102.084 66.6452C102.136 66.2575 102.524 65.6114 101.748 65.3788ZM107.77 18.3684C107.925 18.265 108.054 18.1616 108.209 18.0841C108.494 16.1199 108.287 14.1299 108.339 12.1658C108.364 11.5455 107.977 11.3646 107.434 11.3646C103.945 11.3646 100.482 11.3646 96.9931 11.3646C96.347 11.3646 96.0627 11.6489 96.0627 12.295C96.0885 14.2333 96.1144 16.1716 96.1402 18.0841C96.3211 18.1875 96.4762 18.2909 96.6571 18.3942C96.9931 18.4718 97.3032 18.5751 97.6392 18.5751C100.663 18.601 103.687 18.5751 106.71 18.5751C107.046 18.601 107.434 18.6268 107.77 18.3684ZM80.0652 18.3942C80.4787 18.6785 80.9697 18.601 81.4349 18.601C83.8643 18.601 86.2936 18.6268 88.7229 18.601C89.3949 18.601 90.0927 18.7819 90.7388 18.3942C91.204 18.0841 91.1523 17.5931 91.1523 17.1279C91.1523 15.6289 91.1264 14.13 91.1523 12.631C91.1781 11.6231 90.8163 11.1837 89.7826 11.4163C86.6813 11.3905 83.6058 11.3905 80.5045 11.3388C79.8067 11.3388 79.4708 11.5714 79.4708 12.295C79.4966 14.2333 79.5224 16.1458 79.5483 18.0841C79.7292 18.1875 79.8843 18.2909 80.0652 18.3942ZM90.9972 44.9878C90.9197 44.962 90.8422 44.8845 90.7646 44.8845C87.1723 44.5743 83.58 44.8328 80.0135 44.8328C79.5483 44.8328 79.3157 45.1429 79.3415 45.5822C79.3932 47.6756 79.1606 49.769 79.5224 51.8624C79.6775 51.9658 79.8067 52.1208 79.9618 52.1208C83.58 52.1467 87.1723 52.1725 90.7905 52.1725C91.359 52.1725 91.6175 51.8107 91.54 51.2163C91.2815 49.6398 91.4624 48.0374 91.4107 46.4609C91.3332 45.9182 91.4107 45.4013 90.9972 44.9878ZM102.136 35.1671C102.136 35.1929 102.136 35.1929 102.136 35.1671C103.816 35.1671 105.496 35.1671 107.176 35.1929C107.977 35.2188 108.364 34.9086 108.339 34.0558C108.313 32.4534 108.313 30.8769 108.339 29.2746C108.339 28.551 108.132 28.1375 107.305 28.1633C103.893 28.1892 100.508 28.1892 97.0964 28.1633C96.3986 28.1633 96.0885 28.4476 96.0885 29.1454C96.1144 30.8253 96.1144 32.5051 96.0885 34.185C96.0885 34.9086 96.3986 35.1671 97.0964 35.1671C98.7763 35.1671 100.456 35.1671 102.136 35.1671ZM102.11 51.6815C103.738 51.6815 105.367 51.6556 107.021 51.6815C107.822 51.7073 108.209 51.423 108.184 50.5702C108.158 48.9678 108.158 47.3913 108.184 45.789C108.209 44.9361 107.796 44.6777 106.995 44.6777C103.764 44.7035 100.534 44.7035 97.329 44.6777C96.3987 44.6777 96.1402 45.0654 96.1402 45.9182C96.1661 47.4172 96.1919 48.942 96.1402 50.4409C96.1144 51.423 96.5279 51.7073 97.4583 51.6815C99.0348 51.6556 100.585 51.6815 102.11 51.6815ZM85.1306 35.1671C86.7588 35.1929 88.387 35.1671 90.041 35.1929C90.8163 35.1929 91.1265 34.8828 91.1265 34.1075C91.1006 32.4793 91.0748 30.8511 91.1006 29.1971C91.1006 28.4476 90.7129 28.2408 90.041 28.2408C86.8105 28.2408 83.6058 28.2408 80.3753 28.215C79.6 28.215 79.2898 28.551 79.3157 29.3004C79.3415 30.9028 79.3674 32.4793 79.3157 34.0816C79.2898 34.9345 79.6775 35.1929 80.4787 35.1929C82.0293 35.1412 83.58 35.1671 85.1306 35.1671ZM68.4612 10.8994C67.2465 10.8994 66.0577 10.8994 64.843 10.8994C62.517 10.8994 62.517 10.8994 62.3103 13.0703C62.3103 13.122 62.3103 13.1479 62.2844 13.1996C61.6642 14.3625 61.9743 15.6548 61.9226 16.8694C61.8709 18.4201 63.344 19.4797 64.7913 18.9111C65.4115 18.6785 66.0318 18.601 66.6779 18.601C68.7454 18.601 70.813 18.5751 72.8547 18.6527C73.8626 18.6785 74.2761 18.2909 74.2761 17.3088C74.2761 15.939 74.3019 14.5951 74.6637 13.2513C75.1289 11.4939 74.5087 10.8994 72.6996 10.8994C71.304 10.8994 69.8826 10.8994 68.4612 10.8994Z" fill="#FAC306"/>
<path d="M131.598 64.8621C131.598 56.6954 131.624 48.5028 131.572 40.336C131.572 39.2764 131.882 38.5528 132.761 37.9584C133.691 37.3381 134.544 36.6145 135.397 35.8908C135.992 35.3998 136.638 35.193 137.413 35.193C147.053 35.1672 156.693 35.1414 166.333 35.1155C167.237 35.1155 167.987 35.3998 168.684 35.9942C172.173 38.9921 172.173 38.9921 172.173 43.5665C172.173 58.8921 172.173 74.2177 172.173 89.5432C172.173 91.1197 172.122 91.1973 170.494 91.1973C166.617 91.2231 162.74 91.1973 158.864 91.2489C157.778 91.2748 157.442 90.8871 157.442 89.8275C157.468 85.6666 157.52 81.4799 157.261 77.319C157.132 75.1222 156.693 73.0288 154.858 71.5557C152.687 69.8242 149.327 70.4186 147.88 72.7962C146.898 74.3469 146.355 76.0268 146.278 77.8875C146.122 81.8934 146.122 85.8992 146.148 89.8792C146.148 90.8096 145.864 91.1973 144.908 91.1973C140.954 91.1714 137 91.1456 133.02 91.1973C131.831 91.2231 131.598 90.7321 131.598 89.6724C131.624 81.4023 131.624 73.1322 131.624 64.8879C131.624 64.8621 131.598 64.8621 131.598 64.8621ZM163.645 42.9463C163.567 42.9721 163.49 43.0238 163.412 43.0497C163.257 43.0238 163.076 42.9463 162.921 42.9463C160.052 42.7137 160.052 42.7137 160.052 45.5307C160.052 48.7612 160.052 48.7612 163.386 48.5028C163.541 48.5028 163.671 48.5286 163.826 48.5286C164.627 48.5545 165.428 48.5803 166.255 48.5803C166.694 48.5803 167.237 48.5028 167.237 47.9859C167.263 46.306 167.599 44.6003 167.03 42.9721C166.953 42.9721 166.901 42.9721 166.824 42.9721C165.971 42.9721 165.118 42.9721 164.239 42.9463C164.162 42.9204 164.084 42.9204 163.981 42.9204C163.852 42.9463 163.748 42.9463 163.645 42.9463ZM151.86 55.8167C151.963 55.8167 152.041 55.7908 152.144 55.7908C152.222 55.7908 152.299 55.7908 152.377 55.8167C153.049 56.2043 153.798 56.0751 154.522 56.0234C155.142 55.9976 155.426 55.6099 155.426 54.9896C155.426 51.2422 155.426 47.5207 155.426 43.7733C155.426 43.3598 155.297 42.9204 154.832 42.9204C152.609 42.9463 150.387 42.5845 148.19 43.1013C148.19 45.0138 148.216 46.9263 148.216 48.8387C147.389 51.0613 148.216 53.3356 147.906 55.5841C147.906 55.6357 148.112 55.7133 148.216 55.765C149.327 55.765 150.438 55.765 151.55 55.7908C151.627 55.8166 151.731 55.8167 151.86 55.8167ZM140.204 42.9463C139.997 42.9721 139.791 42.9721 139.61 42.998C136.069 42.6103 136.069 42.6103 136.095 46.0217C136.095 48.9421 136.431 49.2006 139.403 48.632C139.481 48.6061 139.558 48.5803 139.636 48.5286C139.817 48.4769 140.023 48.4511 140.204 48.3994C140.463 48.4769 140.721 48.5286 140.98 48.6061L141.083 48.632H141.186C142.013 48.7095 143.254 49.3556 143.435 48.0893C143.667 46.4352 143.822 44.6778 143.305 42.998C143.047 42.998 142.789 42.9721 142.53 42.9721C142.453 42.9463 142.375 42.9463 142.298 42.9721C142.117 42.9721 141.936 42.9721 141.755 42.9721C141.212 42.9463 140.695 42.9463 140.204 42.9463ZM140.023 62.4844C141.16 62.3811 142.349 62.7429 143.461 62.2777C143.486 62.2001 143.486 62.0968 143.512 62.0192C143.512 61.8383 143.512 61.6833 143.512 61.5024C143.512 61.1664 143.512 60.8046 143.512 60.4686C143.512 60.3135 143.512 60.1326 143.512 59.9776C143.512 59.7966 143.512 59.6157 143.512 59.4348C143.512 57.91 143.512 56.3594 143.512 54.8346C143.512 54.6537 143.512 54.4469 143.512 54.266C143.771 53.103 143.305 52.6378 142.091 52.7154C140.359 52.8187 138.602 52.767 136.87 52.7929C136.689 52.767 136.508 52.767 136.328 52.7412C135.707 52.9996 135.811 53.5682 135.811 54.0593C135.811 56.256 135.811 58.4269 135.811 60.6237C135.811 62.8721 136.948 63.6733 139.119 62.9238C139.403 62.8204 139.713 62.6395 140.023 62.4844ZM143.486 70.8062C143.486 69.9534 143.486 69.0747 143.461 68.2218C143.486 67.1105 143.461 65.9992 143.512 64.8879C143.564 63.9317 143.125 63.5957 142.22 63.6216C140.773 63.6474 139.3 63.5957 137.852 63.5957C136.043 63.5957 135.914 63.8025 136.276 65.6633C136.276 66.2577 136.276 66.8521 136.302 67.4465C136.302 67.8859 136.302 68.2994 136.328 68.7387C136.328 68.9196 136.328 69.0747 136.328 69.2556C136.276 71.2973 136.276 71.2973 138.318 71.2973C139.661 71.2973 140.98 71.3231 142.323 71.2973C142.763 71.2973 143.305 71.4782 143.486 70.8062ZM152.325 67.369C152.868 67.3948 153.436 67.369 153.979 67.4207C155.039 67.524 155.426 67.1105 155.401 66.0509C155.323 64.216 155.349 62.3811 155.349 60.5461C154.186 59.4348 152.945 60.0292 151.731 60.4169C150.981 60.1843 150.206 60.3135 149.431 60.2618C148.526 60.2102 148.19 60.6237 148.216 61.5024C148.242 62.5361 148.216 63.5699 148.216 64.5778C148.216 67.7049 148.319 67.7825 151.472 67.3431C151.55 67.3431 151.627 67.2914 151.731 67.2656C151.937 67.3173 152.118 67.3431 152.325 67.369ZM163.154 63.5957C162.559 63.5699 161.939 63.5699 161.345 63.5182C160.414 63.4407 160.001 63.7766 160.052 64.7587C160.104 66.3869 160.104 68.0409 160.052 69.6691C160.027 70.7029 160.466 71.0905 161.448 71.013C162.042 70.9613 162.663 71.1422 163.205 70.8062C163.361 70.8062 163.516 70.8062 163.697 70.8062C164.343 71.1939 165.04 70.9613 165.712 71.0388C166.72 71.1681 167.108 70.7029 167.082 69.7208C167.03 68.7387 167.108 67.7566 167.082 66.7487C166.979 63.2598 167.909 63.5182 163.748 63.6216C163.516 63.6216 163.335 63.5957 163.154 63.5957ZM163.697 61.9675C164.265 62.4069 164.937 62.1743 165.557 62.2518C166.694 62.3811 167.16 61.9159 167.108 60.727C167.005 58.8404 167.108 56.9796 167.056 55.093C167.03 54.3952 167.263 53.6199 166.772 52.9738C164.911 52.5086 163.025 52.9221 161.164 52.767C160.259 52.6895 159.949 53.1547 159.949 53.9817C159.949 55.8683 159.949 57.755 159.949 59.6416C159.949 62.3811 160.44 62.7429 163.128 62.1743C163.283 62.1485 163.49 62.0451 163.697 61.9675Z" fill="#D43229"/>
<path d="M73.1903 90.6803C73.8623 91.1972 74.6634 90.8612 75.3871 90.9905C73.0611 91.2489 70.7351 91.1714 68.435 91.1714C61.4313 91.1972 54.4017 91.1972 47.3979 91.2231C42.746 91.2489 38.1199 91.3264 33.4679 91.3523C31.6847 91.3781 31.6847 91.3264 31.6588 89.569C31.3487 72.1501 31.5296 54.7312 31.4521 37.3122C31.4521 37.0538 31.4262 36.7953 31.4004 36.5369C32.0465 36.5111 32.6926 36.4335 33.3129 36.4335C40.9886 36.4077 48.6901 36.3818 56.3658 36.356C56.4692 36.6403 56.5726 36.9246 56.7276 37.2088C56.1849 37.2347 55.668 37.2088 55.3837 37.7516C55.3579 37.8291 55.4096 38.0617 55.4613 38.0617C56.0557 38.1651 56.34 37.7516 56.7018 37.2088C57.8389 37.2088 59.0019 37.2088 60.1649 37.2088C63.7314 37.2088 67.2979 37.2088 70.8644 37.2088C71.3296 37.2088 72.1566 37.0538 72.0273 37.8033C71.8464 38.7853 72.2083 39.6382 72.2083 40.5944C72.1824 56.2301 72.1824 71.8917 72.1824 87.5274C72.1824 87.9667 72.2858 88.4577 72.1307 88.7937C71.6138 89.9825 72.3375 90.3444 73.1903 90.6803ZM65.1528 52.7412C64.5067 52.2501 63.7831 52.4827 63.0594 52.4569C62.5167 52.431 61.8965 52.431 61.8706 53.2322C61.8965 55.2997 61.9223 57.3673 61.974 59.4348C61.974 59.5123 61.974 59.5899 61.9998 59.6674C64.1449 60.2618 66.3158 59.8741 68.4867 59.9C68.8227 59.9 69.0553 59.6415 69.0553 59.3056C69.0294 57.1347 69.3913 54.9379 68.8485 52.7928C67.8148 52.3535 66.781 52.4569 65.7472 52.7412C65.5663 52.767 65.3854 52.7928 65.2045 52.8187L65.1528 52.7412ZM45.0461 76.0526C44.9686 76.0267 44.891 76.0009 44.8135 76.0009C44.0382 75.975 43.2887 75.9492 42.5134 75.8975C41.5313 75.82 41.1178 76.1818 41.1695 77.2155C41.2212 79.0505 41.1695 80.8854 41.1695 82.7203C40.3941 85.6149 40.3941 85.6149 43.3662 85.7958C43.4954 85.7958 43.6247 85.7958 43.7539 85.8216C45.1236 86.0284 45.3045 85.8733 45.3045 84.4777C45.3045 82.0742 45.3045 79.6707 45.3045 77.2672C45.3045 76.8537 45.3562 76.4144 45.0461 76.0526ZM66.5226 64.3452V64.4227C66.0574 64.3193 65.6439 64.5261 65.2045 64.6553C64.6101 64.2935 63.964 64.4744 63.3179 64.4227C62.2841 64.3452 61.8189 64.7328 61.8706 65.8183C61.9223 67.3948 61.8965 68.9713 61.8706 70.5736C61.8706 71.2197 61.8965 71.9175 62.7752 71.7624C63.628 71.6074 64.9719 72.5636 65.2303 70.8321C65.8248 71.995 66.8068 72.2018 68.5384 71.5815C68.5642 69.7466 68.4867 67.9117 68.6159 66.0767C68.6935 64.8104 68.3058 64.2418 67.0136 64.3452C66.9361 63.7766 67.5563 63.6732 67.7631 63.2597C66.2641 62.8721 66.1866 62.9496 66.5226 64.3452ZM61.8706 47.4948C61.8965 47.5465 61.9223 47.5723 61.9223 47.624C62.1291 48.1409 62.5942 48.0892 63.0078 48.0634C63.9381 48.0375 64.8427 48.0117 65.7731 47.96C66.8068 48.0375 67.8406 48.2443 68.8485 47.7532C69.3137 45.4531 69.262 43.153 68.9002 40.827C67.8406 40.827 66.8068 40.8012 65.7472 40.8012C65.4888 40.8012 65.2303 40.827 64.9719 40.827C64.455 40.8012 63.9381 40.8012 63.4213 40.7495C62.2841 40.6203 61.7672 41.0079 61.8448 42.2484C61.9481 43.8249 61.8706 45.4273 61.8706 47.0296C61.5346 47.2105 61.4829 47.3656 61.8706 47.4948ZM49.207 59.4089L49.2587 59.4865C50.3441 59.9 51.4554 59.7966 52.5409 59.4865C52.9027 59.7966 53.3421 59.7191 53.7814 59.6932C55.4354 59.6674 55.668 59.4089 55.6939 57.7549C55.6939 56.7212 55.6939 55.7132 55.6939 54.6795C55.6939 52.3535 55.6422 52.3018 53.3421 52.5086C53.0836 52.5344 52.851 52.6378 52.6184 52.7153C51.9206 52.1467 51.0936 52.1726 50.2666 52.2243C49.6722 52.2501 49.0519 52.4052 49.0519 53.1288C49.0261 55.2222 48.716 57.3414 49.207 59.4089ZM39.6705 64.6295C39.593 64.6295 39.4896 64.6295 39.4121 64.6036C38.766 64.2418 38.0682 64.4486 37.3962 64.371C36.3883 64.2676 36.0265 64.7328 36.0782 65.7149C36.1299 66.9037 36.104 68.1184 36.104 69.3072C36.104 71.8658 36.2591 72.0209 38.8176 71.7107C39.0244 71.6849 39.2312 71.5815 39.4379 71.5298C39.6188 71.5298 39.7739 71.5557 39.9548 71.5557C40.4975 71.9175 41.1178 71.7366 41.6863 71.7366C42.9786 71.7624 43.4954 71.2456 43.3404 69.9275C43.2112 68.9454 43.3145 67.9634 43.3145 66.9813C43.3145 64.1901 42.901 63.8541 40.084 64.4485C39.9031 64.5261 39.7997 64.5778 39.6705 64.6295ZM49.2587 71.2714C51.2745 71.7624 53.3162 71.4006 55.3321 71.4782C55.7972 71.504 55.8748 70.9871 55.8748 70.5995C55.8748 68.8679 55.8748 67.1622 55.8748 65.4306C55.8489 64.0092 54.7635 64.4486 53.9882 64.371C53.187 64.2935 52.5409 64.4227 52.5667 65.5082C52.6184 66.9296 52.5667 68.3252 52.5667 69.7466C52.36 68.6095 52.36 67.4723 52.36 66.3093C52.36 64.3969 52.36 64.3969 50.4734 64.3452C49.8789 63.9834 49.1295 63.9058 49.1036 64.7328C49.0002 66.9296 48.6901 69.1263 49.2587 71.2714ZM43.0561 40.8787C41.0403 40.336 38.9986 40.5944 36.9569 40.5686C36.2332 40.5686 36.104 41.2405 36.1816 41.8091C36.3366 43.5665 36.3883 45.3239 36.2591 47.0813C36.2332 47.5207 36.3625 47.9342 36.8535 47.9083C38.921 47.8566 41.0402 48.0892 43.0819 47.469C43.4179 45.2981 43.4179 43.1013 43.0561 40.8787ZM39.4121 59.4348C39.5671 59.4348 39.748 59.4089 39.9031 59.4089C40.5234 59.6157 41.1695 59.5382 41.8156 59.5899C42.8493 59.6415 43.2887 59.228 43.237 58.1684C43.1595 56.6178 43.2112 55.0671 43.2112 53.5423C43.2112 52.8704 43.0819 52.3793 42.2032 52.4052C40.6267 52.4569 39.0244 52.4827 37.4479 52.4569C36.6209 52.4569 36.2849 52.8187 36.3108 53.6199C36.3366 54.6019 36.3108 55.584 36.3366 56.5919C36.4142 59.7191 35.6647 59.5382 39.4121 59.4348ZM62.8527 38.8112C62.2841 39.3281 61.9481 39.2505 61.6639 39.2764C61.302 39.3281 60.9144 39.3798 60.9919 39.8449C61.0694 40.3101 61.4829 40.2326 61.8448 40.1551C62.2324 40.0775 62.5942 40.0775 62.9819 40.1551C63.6797 40.2843 64.2483 40.1292 64.1966 39.3022C64.1707 38.7595 64.5067 38.7595 64.8427 38.7595C65.5146 38.7336 66.109 38.7336 66.6518 39.4056C67.5305 40.491 68.5642 40.4652 68.8744 39.4831C68.9519 39.2505 68.6676 38.7853 69.2103 38.8887C69.5722 38.9404 69.598 39.3022 69.598 39.6123C69.6238 40 69.6238 40.3877 69.6238 40.7753C69.6238 47.7016 69.6238 54.6278 69.6238 61.554C69.6238 61.9934 69.6239 62.4069 69.6755 62.8462C69.7014 63.2339 69.9081 63.4923 70.3475 63.4923C70.7351 63.4923 71.0194 63.2856 71.097 62.9237C71.1745 62.5878 71.1745 62.2518 71.1745 61.89C71.1745 54.6278 71.1745 47.3397 71.1745 40.0775C71.1745 38.5527 70.8902 38.2426 69.3654 38.2426C65.5663 38.2168 61.7931 38.2426 57.994 38.2426C57.6063 38.2426 57.1153 38.0875 56.8052 38.8112C58.7952 38.8112 60.6818 38.8112 62.8527 38.8112ZM63.9123 80.8854C63.8865 80.8854 63.8865 80.8854 63.9123 80.8854C63.9123 80.1618 63.9123 79.4123 63.9123 78.6887C63.8348 75.6132 64.5842 75.82 60.8627 75.82C59.9323 75.82 59.5705 76.2076 59.5963 77.138C59.648 79.0246 59.5963 80.9113 59.6222 82.8237C59.6739 86.0026 58.8727 85.8216 62.8268 85.7958C62.8785 85.7958 62.9044 85.7958 62.9561 85.7958C63.6797 85.8216 63.9381 85.434 63.9381 84.7362C63.8865 83.4698 63.9123 82.1776 63.9123 80.8854ZM39.8773 80.7562C39.8773 79.9809 39.8773 79.2055 39.8773 78.4302C39.8773 75.6649 39.8773 75.6907 37.1636 75.7424C36.1299 75.7683 35.8197 76.1818 35.8456 77.138C35.8714 79.0246 35.8456 80.9113 35.8197 82.7979C35.8197 85.77 35.8197 85.77 38.8176 85.5632C39.5671 85.5115 39.9031 85.2531 39.9031 84.4777C39.8514 83.2372 39.8773 81.9967 39.8773 80.7562ZM69.1328 80.8854C69.1328 80.0326 69.1328 79.1539 69.1328 78.301C69.0811 75.6649 69.6497 75.7941 66.5484 75.7683C65.4629 75.7683 65.127 76.2076 65.1528 77.2414C65.2045 79.2314 65.1787 81.1955 65.1787 83.1855C65.2045 86.0284 64.7135 85.7958 67.9181 85.8216C68.7968 85.8216 69.1845 85.5374 69.1328 84.6328C69.107 83.3923 69.1328 82.1259 69.1328 80.8854ZM52.1274 44.3418C52.1015 43.4373 52.0757 42.5327 52.1274 41.654C52.1532 41.0596 52.0498 40.5427 51.352 40.672C50.5509 40.8012 49.2328 40.0775 49.1036 41.3697C48.871 43.3081 48.8969 45.3239 49.1036 47.2622C49.2328 48.6061 50.525 47.9342 51.3262 48.0117C52.0757 48.0892 52.2049 47.5723 52.1532 46.9262C52.1015 46.0475 52.1274 45.1947 52.1274 44.3418ZM52.5926 44.316C52.5926 45.1688 52.6184 46.0475 52.5667 46.9004C52.4892 47.9858 53.1611 48.0892 53.9623 48.0375C54.7118 47.9858 55.7197 48.3218 55.6939 46.9779C55.668 45.2205 55.6939 43.4631 55.6939 41.7057C55.6939 41.2664 55.668 40.8529 55.1253 40.672C53.523 40.1292 52.5667 40.7753 52.5667 42.4035C52.5926 43.0238 52.5926 43.6699 52.5926 44.316ZM71.1487 73.7008C71.1487 73.4423 71.1745 73.003 71.1487 72.5894C71.1228 72.1243 70.9161 71.7366 70.3992 71.7107C69.9081 71.6849 69.7531 72.0984 69.7014 72.4861C69.598 73.5198 69.5205 74.5536 69.7531 75.5615C70.4509 78.6628 70.3475 81.7641 69.8048 84.8654C69.6497 85.7958 69.7014 86.6487 69.9598 87.5274C70.0632 87.915 70.2183 88.3027 70.7351 88.2251C71.1745 88.1476 71.1745 87.76 71.1745 87.3981C71.1745 86.752 71.2779 86.0801 71.1228 85.4598C70.5284 83.1855 70.7868 80.8337 70.6318 78.5336C70.5025 76.9571 71.3554 75.484 71.1487 73.7008ZM67.4013 48.5544C66.9361 48.787 66.0057 48.1668 65.9798 49.2522C65.9798 49.7432 66.0057 50.3635 66.8068 50.2343C67.5822 50.1051 68.6159 50.1051 68.6676 49.0713C68.6935 48.3735 67.8664 48.7095 67.4013 48.5544ZM66.1349 89.6724C67.3496 90.1118 68.6159 89.6724 69.7789 90.1893C70.0115 90.2927 70.1666 90.0601 70.1924 89.8275C70.1924 89.5432 69.9598 89.4657 69.7531 89.4657C68.5384 89.4398 67.3237 89.2848 66.1349 89.6724ZM68.2024 52.0951C68.4867 52.0175 68.771 51.8625 68.7968 51.5523C68.8485 51.1905 68.5384 51.1905 68.28 51.1905C67.9698 51.1905 67.6855 51.2939 67.6597 51.6816C67.6855 52.0175 67.8923 52.1209 68.2024 52.0951ZM56.4433 40.6461C56.7535 40.1809 56.7535 39.8966 56.4692 39.5348C56.1332 39.8966 56.1591 40.1809 56.4433 40.6461ZM65.6697 40.0775C65.6955 40.1034 65.7472 40.1292 65.7731 40.1292C65.7989 40.1292 65.7989 40.0775 65.8248 40.0517C65.7989 40.0259 65.7472 40 65.7214 40C65.6955 40 65.6955 40.0517 65.6697 40.0775Z" fill="#E30104"/>
<path d="M0.0258437 118.514C0.0258437 111.459 0.0516882 104.403 0 97.3221C0 96.0558 0.413507 95.6681 1.62818 95.6939C6.74532 95.7973 11.8625 95.9782 16.9279 96.7794C20.055 97.2704 23.208 97.9165 25.4823 100.501C27.2397 102.491 28.0926 104.894 28.7387 107.375C29.7983 111.536 30.0309 115.801 29.6432 120.065C29.2297 124.614 28.4802 129.11 25.6374 132.909C23.7249 135.468 21.0888 136.941 18.1426 137.872C12.7153 139.629 7.10713 140.378 1.47312 141.18C0.232598 141.361 0.0775332 140.921 0.0775332 139.913C0.129221 136.993 0.129221 134.047 0.129221 131.126C0.129221 126.914 0.129221 122.675 0.129221 118.463C0.129221 118.514 0.077532 118.514 0.0258437 118.514ZM7.62402 117.894C7.59817 117.894 7.59817 117.894 7.57233 117.894C7.57233 123.063 7.59817 128.206 7.54648 133.375C7.54648 134.383 7.85661 134.719 8.83869 134.512C11.0354 134.072 13.258 133.737 15.2739 132.754C17.7549 131.514 19.7966 129.756 20.4685 126.914C21.7608 121.538 21.9417 116.085 21.4248 110.632C21.1146 107.195 19.6932 104.093 16.256 102.568C13.93 101.509 11.3714 101.276 8.83869 101.199C7.85661 101.173 7.59817 101.457 7.59817 102.439C7.64986 107.582 7.62402 112.751 7.62402 117.894Z" fill="#FAC306"/>
<path d="M159.768 96.5727C161.758 96.5727 163.723 96.5985 165.712 96.5727C166.462 96.5727 166.695 96.8053 166.85 97.5548C167.909 103.034 169.098 108.487 170.184 113.94C171.527 120.608 172.949 127.224 174.525 133.84C174.732 134.667 174.913 135.52 175.094 136.347C175.249 137.07 174.991 137.484 174.241 137.329C172.458 136.967 170.649 136.915 168.865 136.76C167.806 136.683 167.573 135.959 167.418 135.106C167.005 133.013 166.488 130.92 166.074 128.826C165.893 127.896 165.377 127.56 164.472 127.534C161.474 127.456 158.45 127.353 155.452 127.25C154.522 127.224 153.953 127.482 153.773 128.542C153.488 130.273 152.92 131.953 152.739 133.711C152.687 134.228 152.532 134.719 151.783 134.641C149.948 134.486 148.087 134.357 146.252 134.279C145.373 134.228 145.141 133.814 145.347 133.013C147.001 126.474 148.371 119.884 149.689 113.268C150.464 109.366 151.421 105.463 151.963 101.509C152.17 100.062 152.61 98.6661 152.868 97.2446C152.997 96.521 153.437 96.6244 153.902 96.6244C155.892 96.6244 157.856 96.6244 159.846 96.6244C159.768 96.5985 159.768 96.5985 159.768 96.5727ZM159.872 122.727C159.872 122.753 159.872 122.779 159.872 122.804C161.086 122.804 162.275 122.779 163.49 122.804C164.524 122.83 164.86 122.443 164.653 121.383C163.593 116.343 162.611 111.278 161.577 106.238C161.241 104.61 160.854 102.982 160.44 101.354C160.311 100.889 160.259 100.217 159.613 100.217C158.967 100.217 159.045 100.889 158.967 101.302C158.45 103.732 157.959 106.187 157.494 108.616C156.693 112.829 155.995 117.067 155.168 121.28C154.936 122.417 155.323 122.701 156.305 122.701C157.442 122.727 158.657 122.727 159.872 122.727Z" fill="#E30104"/>
<path d="M49.1556 96.6762C51.0939 96.6762 53.0322 96.702 54.9705 96.6762C55.72 96.6762 56.0301 96.9088 56.1335 97.6841C56.7279 102.543 57.9943 107.298 58.9247 112.105C59.8809 117.041 60.8371 121.952 61.8192 126.862C62.2327 128.878 62.6462 130.894 63.1373 132.91C63.3699 133.866 63.2665 134.383 62.1294 134.434C60.5529 134.486 58.9505 134.641 57.374 134.796C56.5987 134.874 56.1852 134.615 56.0301 133.814C55.72 132.005 55.2807 130.196 54.9964 128.387C54.8413 127.457 54.4278 127.095 53.4457 127.121C50.5253 127.172 47.605 127.172 44.6587 127.146C43.7025 127.146 43.289 127.56 43.1339 128.464C42.6946 130.739 42.1518 132.987 41.6867 135.261C41.5574 135.908 41.2215 136.244 40.5754 136.347C38.7146 136.657 36.8538 137.019 34.993 137.329C34.0368 137.484 33.9076 136.89 34.0626 136.14C34.5795 133.582 35.0964 130.997 35.665 128.439C36.6471 123.838 37.655 119.212 38.6887 114.638C39.9034 109.236 40.8338 103.783 41.9968 98.3819C42.3586 96.7796 42.9789 96.6503 44.2452 96.702C45.8992 96.7279 47.5274 96.6762 49.1556 96.6762ZM50.6287 122.727C50.6287 122.675 50.6287 122.598 50.6287 122.546C51.2231 122.546 51.8434 122.494 52.4378 122.546C53.4457 122.624 53.7559 122.158 53.6008 121.228C53.5491 120.944 53.5491 120.634 53.4716 120.324C52.6446 115.982 51.8434 111.64 50.9905 107.298C50.577 105.231 50.1118 103.189 49.6466 101.121C49.5691 100.76 49.4916 100.294 48.9489 100.346C48.5095 100.372 48.4837 100.785 48.432 101.121C48.1218 102.646 47.76 104.145 47.4757 105.67C46.4678 110.89 45.5116 116.137 44.4778 121.357C44.2711 122.339 44.452 122.727 45.4857 122.727C47.1915 122.701 48.923 122.727 50.6287 122.727Z" fill="#E30104"/>
<path d="M186.724 129.731C186.724 127.327 186.724 124.924 186.724 122.494C186.724 121.693 186.491 121.125 185.716 120.737C179.875 117.92 177.084 113.113 176.722 106.781C176.541 103.551 176.541 100.32 176.464 97.0896C176.438 96.2626 176.696 95.8491 177.627 95.8491C179.436 95.8749 181.245 95.7715 183.054 95.7457C183.984 95.7198 184.398 96.0558 184.372 97.1413C184.294 100.32 184.32 103.525 184.372 106.704C184.398 108.564 184.863 110.348 185.768 112.002C187.086 114.353 188.688 115.155 191.298 114.793C193.417 114.483 195.304 112.751 195.795 110.554C196.596 106.962 196.674 103.318 196.7 99.674C196.7 98.5885 196.57 97.4772 197.216 96.4176C197.527 95.9008 197.837 95.6682 198.405 95.6423C200.033 95.5648 201.662 95.4614 203.316 95.3839C203.962 95.358 204.427 95.5389 204.427 96.2884C204.453 101.302 204.815 106.342 203.6 111.33C202.437 116.059 199.542 119.16 195.071 120.918C194.296 121.228 194.063 121.719 194.063 122.494C194.089 127.611 194.063 132.729 194.089 137.872C194.089 139.577 194.038 139.707 192.384 139.551C190.885 139.396 189.412 139.164 187.913 138.957C187.06 138.854 186.775 138.285 186.775 137.51C186.775 134.925 186.775 132.341 186.775 129.757C186.75 129.731 186.724 129.731 186.724 129.731Z" fill="#FAC306"/>
<path d="M82.5463 123.528C82.5463 126.449 82.5205 129.369 82.5722 132.315C82.598 133.375 82.2362 133.737 81.1507 133.711C79.7293 133.659 78.3079 133.685 76.8865 133.814C75.6718 133.943 75.2583 133.556 75.2583 132.289C75.2841 127.172 75.1032 122.055 75.2066 116.938C75.2583 114.509 74.4054 112.596 72.9323 110.761C69.6501 106.626 66.8073 102.181 63.8352 97.8391C63.6543 97.5548 63.3183 97.2705 63.525 96.9346C63.7318 96.5986 64.1453 96.7278 64.4813 96.7537C66.4971 96.857 68.513 96.9863 70.5288 97.0638C71.4075 97.1155 71.9502 97.4256 72.4671 98.2526C74.302 101.147 76.2662 103.938 78.2045 106.755C78.954 107.867 79.1091 107.841 79.8844 106.729C81.9519 103.68 84.0194 100.63 86.0611 97.5807C86.5005 96.9346 86.9915 96.6761 87.7668 96.702C89.4984 96.7278 91.2041 96.6761 92.9357 96.6503C93.2716 96.6503 93.6851 96.4694 93.8919 96.857C94.0728 97.193 93.8144 97.4773 93.6076 97.7874C91.1524 101.509 88.7231 105.205 85.9836 108.745C84.8723 110.193 83.9161 111.769 82.7789 113.216C82.4171 113.682 82.4946 114.198 82.4946 114.689C82.4946 117.662 82.4946 120.634 82.4946 123.606C82.4946 123.528 82.5205 123.528 82.5463 123.528Z" fill="#FAC306"/>
<path d="M110.768 96.2368C112.06 96.2885 113.352 96.1851 114.619 96.4177C115.316 96.5469 115.601 96.857 115.627 97.6323C115.704 100.889 115.73 100.889 112.525 100.811C111.285 100.785 110.018 100.785 108.778 100.811C107.615 100.837 106.581 101.251 105.702 101.948C104.152 103.189 103.971 105.075 105.108 107.04C106.013 108.564 107.382 109.572 108.752 110.58C110.484 111.847 112.267 113.01 114.024 114.224C117.255 116.473 119.167 121.461 118.004 125.208C117.022 128.309 114.774 130.351 111.621 131.204C107.408 132.367 103.144 132.419 98.8279 131.85C98.4144 131.798 98.0784 131.772 98.0009 131.23C97.8458 130.041 97.6649 128.852 97.484 127.663C97.3806 126.836 97.7166 126.552 98.5178 126.785C100.585 127.379 102.705 127.25 104.798 127.224C106.09 127.224 107.227 126.888 108.364 126.293C110.742 125.027 111.362 122.365 109.734 120.194C108.39 118.385 106.555 117.067 104.798 115.749C102.808 114.25 100.74 112.855 98.983 111.097C94.4603 106.574 96.0884 99.5707 102.756 97.3481C105.341 96.4952 108.028 96.1334 110.768 96.2368Z" fill="#E30104"/>
<path d="M135.268 117.326C135.268 122.236 135.242 127.146 135.294 132.031C135.294 133.013 135.061 133.427 134.002 133.349C132.425 133.246 130.823 133.246 129.221 133.297C128.264 133.323 127.954 133.039 127.98 132.057C128.032 125.079 128.006 118.127 128.032 111.149C128.032 108.384 127.98 105.644 128.058 102.879C128.083 101.664 127.747 101.173 126.481 101.225C124.853 101.302 123.199 101.225 121.571 101.251C120.589 101.276 120.201 100.915 120.201 99.8809C120.175 96.6504 120.149 96.6504 123.328 96.6504C129.35 96.6504 135.371 96.6762 141.393 96.6245C142.582 96.6245 143.099 96.9088 143.021 98.1752C142.84 101.147 143.616 100.915 140.282 100.966C139.119 100.992 137.956 101.018 136.793 100.992C135.707 100.966 135.216 101.302 135.216 102.543C135.346 107.505 135.294 112.415 135.268 117.326C135.294 117.326 135.294 117.326 135.268 117.326Z" fill="#FAC306"/>
<path d="M116.93 154.698C115.974 155.912 115.741 157.23 115.199 158.419C114.992 158.833 114.889 159.35 114.423 159.582C113.803 159.892 113.286 159.789 112.924 159.091C112.408 158.057 111.891 157.024 111.348 155.99C111.219 155.757 111.141 155.344 110.728 155.473C110.443 155.576 110.495 155.912 110.495 156.145C110.495 157.101 110.469 158.032 110.547 158.988C110.598 159.866 110.082 159.944 109.435 159.996C108.686 160.047 108.583 159.634 108.583 159.039C108.531 156.713 108.453 154.387 108.402 152.087C108.402 151.545 108.247 150.847 109.074 150.821C109.849 150.795 110.779 150.227 111.348 151.364C111.942 152.553 112.64 153.69 113.312 154.853C113.519 155.189 113.596 155.809 114.139 155.706C114.604 155.628 114.656 155.059 114.785 154.672C115.147 153.612 115.509 152.553 115.845 151.493C116.103 150.614 117.731 149.865 118.558 150.252C118.894 150.407 118.92 150.718 118.92 151.002C119.101 153.405 119.23 155.809 119.437 158.212C119.489 159.014 119.256 159.401 118.403 159.453C117.473 159.505 117.499 158.884 117.447 158.264C117.318 157.153 117.266 155.99 116.93 154.698Z" fill="#7E303B"/>
<path d="M137.14 153.792C137.295 154.955 137.424 156.015 137.553 157.074C137.605 157.565 137.631 158.056 136.959 158.134C136.39 158.211 135.899 158.082 135.822 157.41C135.537 154.8 135.279 152.19 135.02 149.605C134.969 149.192 135.098 148.804 135.537 148.701C136.158 148.52 136.752 148.623 137.14 149.192C138.07 150.484 139.156 151.647 140.267 152.784C140.525 153.042 140.758 153.534 141.197 153.301C141.611 153.068 141.378 152.603 141.301 152.241C141.12 151.13 140.939 150.045 140.706 148.933C140.577 148.261 140.835 148.003 141.482 147.925C142.076 147.848 142.748 147.564 142.903 148.468C143.368 151.078 143.782 153.714 144.195 156.351C144.247 156.712 144.221 157.074 143.756 157.152C143.084 157.255 142.412 157.514 141.817 156.919C140.603 155.756 139.362 154.645 138.148 153.508C137.889 153.249 137.682 152.732 137.269 152.887C136.83 153.042 137.295 153.534 137.14 153.792Z" fill="#7E303B"/>
<path d="M85.1821 158.702C85.208 156.299 85.2338 153.895 85.2338 151.492C85.2338 150.69 85.5181 150.329 86.371 150.38C87.5598 150.458 88.7745 150.406 89.9633 150.458C91.0746 150.509 91.9533 151.026 92.3926 152.06C92.8837 153.197 92.9095 154.515 92.005 155.316C90.7903 156.376 91.2555 157.177 91.9274 158.159C92.2117 158.573 93.1163 159.09 92.3409 159.581C91.7465 159.968 90.8161 159.917 90.3251 159.064C90.015 158.547 89.6532 158.082 89.3689 157.539C88.8778 156.583 88.1284 156.299 87.1463 156.66C86.6552 156.893 86.7586 157.358 86.7328 157.772C86.6294 159.296 86.4743 159.374 85.1821 158.702ZM88.5935 154.645C89.6273 154.748 90.4802 154.645 90.5577 153.533C90.6094 152.448 89.8599 152.138 88.9295 152.189C88.2059 152.241 87.2497 151.776 87.1463 153.171C87.0429 154.489 87.689 154.748 88.5935 154.645Z" fill="#7E303B"/>
<path d="M55.1254 156.505C54.2725 156.583 53.7556 156.221 53.5489 155.446C53.368 154.774 52.9286 154.438 52.2308 154.464C51.0678 154.515 49.8273 153.766 48.8711 155.187C48.4576 155.782 47.4238 155.368 46.8294 155.032C46.1833 154.67 46.8552 154.128 47.0878 153.74C48.38 151.569 49.6981 149.398 51.0161 147.253C51.2746 146.814 51.5072 146.323 52.1533 146.348C52.8252 146.4 52.9286 146.917 53.1095 147.408C54.0399 150.07 54.9703 152.758 55.9007 155.42C56.185 156.273 56.0816 156.738 55.1254 156.505ZM51.7398 152.525C52.0499 152.37 52.7477 152.732 52.6443 152.008C52.5409 151.311 52.4893 150.199 51.8948 150.148C51.1712 150.096 50.8352 151.181 50.6802 151.853C50.4476 152.68 51.3263 152.318 51.7398 152.525Z" fill="#7E303B"/>
<path d="M127.653 153.426C128.119 153.375 128.61 153.349 129.075 153.245C129.695 153.142 130.057 153.271 130.134 153.969C130.212 154.615 130.109 155.054 129.359 155.158C128.687 155.235 127.989 155.339 127.317 155.468C126.904 155.545 126.439 155.701 126.49 156.269C126.542 156.864 126.852 157.251 127.447 157.277C128.403 157.329 129.333 157.174 130.264 156.967C130.987 156.786 131.53 156.838 131.659 157.768C131.814 158.698 131.22 158.724 130.6 158.802C129.075 159.009 127.524 159.189 125.999 159.422C125.224 159.551 124.811 159.396 124.759 158.492C124.604 156.011 124.371 153.53 124.164 151.023C124.113 150.428 124.268 150.015 124.94 149.937C126.258 149.782 127.576 149.601 128.894 149.395C129.54 149.291 129.773 149.55 129.798 150.144C129.824 150.661 130.005 151.23 129.23 151.333C128.635 151.41 128.041 151.488 127.447 151.617C126.878 151.721 126.154 151.695 126.232 152.599C126.309 153.53 126.981 153.478 127.653 153.426Z" fill="#7E303B"/>
<path d="M78.9278 159.141C78.4109 159.167 77.8423 159.116 77.6614 158.314C77.5322 157.746 77.4547 157.022 76.6277 157.1C75.5681 157.177 74.3792 156.531 73.5522 157.746C73.3972 157.953 73.2938 158.211 73.087 158.366C72.6218 158.702 72.0533 158.676 71.6139 158.469C71.0195 158.159 71.5105 157.72 71.6656 157.384C72.8803 154.877 74.1466 152.396 75.3613 149.889C75.6456 149.321 76.0332 149.062 76.6794 149.088C77.4547 149.114 77.5322 149.657 77.7131 150.199C78.4884 152.758 79.2638 155.291 80.0391 157.823C80.4526 159.09 80.3751 159.193 78.9278 159.141ZM76.24 152.81C75.8007 153.585 74.8961 154.231 75.3871 155.187C75.5681 155.549 76.4468 155.549 76.6794 155.239C77.3771 154.386 76.576 153.611 76.24 152.81Z" fill="#7E303B"/>
<path d="M156.822 145.031C157.598 145.056 158.373 145.16 158.993 145.703C159.303 145.987 159.458 146.323 159.252 146.736C159.045 147.098 158.709 147.15 158.347 147.072C157.856 146.969 157.365 146.736 156.848 146.685C156.228 146.633 155.608 146.788 155.452 147.537C155.323 148.235 155.814 148.545 156.357 148.726C157.365 149.088 158.373 149.424 159.407 149.76C160.595 150.122 161.371 150.82 161.474 152.112C161.578 153.404 160.931 154.334 159.898 155.006C158.786 155.704 156.926 155.549 155.866 154.8C155.246 154.36 155.22 153.792 155.478 153.197C155.814 152.422 156.331 152.939 156.771 153.12C157.055 153.223 157.313 153.404 157.598 153.456C158.166 153.559 158.786 153.637 159.045 152.965C159.329 152.215 158.786 151.853 158.218 151.595C157.391 151.233 156.538 150.923 155.711 150.587C154.031 149.889 153.411 148.726 153.798 147.021C154.083 145.651 155.091 145.005 156.822 145.031Z" fill="#7E303B"/>
<path d="M62.7756 148.158C64.0678 148.235 65.3342 148.39 66.4972 149.036C67.4793 149.579 68.0995 150.303 68.0737 151.492C68.022 152.706 67.4017 153.507 66.3938 154.05C65.6443 154.464 64.8173 154.593 64.0161 154.489C62.8015 154.36 62.2587 154.8 62.3363 156.04C62.3621 156.609 62.4138 157.281 61.4576 157.281C60.5789 157.281 60.1137 157.126 60.2687 156.04C60.553 153.947 60.7339 151.853 60.9149 149.734C61.0699 148.08 61.0699 148.08 62.7756 148.158ZM63.9128 152.603C65.1274 152.577 65.9028 152.112 65.9028 151.388C65.9028 150.613 64.869 149.993 63.6026 149.967C62.3621 149.941 62.7239 150.897 62.6206 151.543C62.4655 152.551 63.1891 152.603 63.9128 152.603Z" fill="#7E303B"/>
<path d="M100.327 150.716C101.283 150.716 102.214 150.716 103.17 150.716C103.738 150.716 104.074 150.897 104.074 151.517C104.074 152.112 103.79 152.448 103.222 152.37C101.697 152.164 101.413 152.965 101.49 154.257C101.568 155.808 101.464 157.358 101.49 158.909C101.49 159.658 101.232 160.02 100.43 159.968C99.6551 159.943 99.2158 159.736 99.2416 158.857C99.2933 157.307 99.2158 155.756 99.2933 154.205C99.3708 152.939 99.0607 152.189 97.6134 152.37C97.019 152.448 96.6313 152.215 96.6313 151.517C96.6313 150.871 96.8123 150.561 97.51 150.561C98.4663 150.587 99.3967 150.561 100.353 150.561C100.327 150.639 100.327 150.665 100.327 150.716Z" fill="#7E303B"/>
<path d="M148.245 147.023C149.189 146.87 150.108 146.721 151.052 146.569C151.613 146.478 151.973 146.603 152.073 147.215C152.168 147.802 151.941 148.179 151.367 148.193C149.829 148.233 149.676 149.069 149.959 150.332C150.284 151.851 150.429 153.398 150.703 154.924C150.823 155.664 150.625 156.063 149.826 156.14C149.057 156.238 148.59 156.104 148.475 155.233C148.278 153.694 147.954 152.175 147.782 150.632C147.657 149.37 147.231 148.68 145.831 149.09C145.257 149.261 144.837 149.093 144.725 148.405C144.622 147.767 144.751 147.432 145.44 147.32C146.388 147.193 147.302 147.019 148.246 146.866C148.233 146.946 148.237 146.972 148.245 147.023Z" fill="#7E303B"/>
<path d="M115.627 91.0422C116.04 90.3185 116.144 89.5432 116.144 88.6904C116.118 60.4686 116.118 32.2468 116.144 4.05086C116.144 2.73281 116.092 1.4923 115.084 0.484377C115.342 0.432689 115.627 0.355155 115.885 0.303467C116.402 0.665284 116.299 1.20801 116.299 1.72489C116.324 31.058 116.35 60.391 116.35 89.7241C116.376 90.1893 116.841 91.1455 115.627 91.0422Z" fill="#93541E"/>
<path d="M114.619 0.484267C111.957 0.510111 109.295 0.535954 106.607 0.535954C90.5839 0.535954 74.5864 0.51011 58.563 0.51011C56.7022 0.51011 56.7022 0.51011 56.7022 2.37089C56.7022 13.6389 56.7022 24.9328 56.7022 36.2008C56.5988 36.2008 56.5213 36.175 56.4179 36.175C56.4179 32.9186 56.4179 29.6364 56.4179 26.3801C56.4179 18.1358 56.3921 9.86568 56.3921 1.62141C56.3921 1.4405 56.3921 1.23375 56.3921 1.05284C56.4179 0.975304 56.3921 0.923617 56.3921 0.846085C56.5213 0.639332 56.6505 0.432579 56.7798 0.199982C57.5551 0.225826 58.3304 0.251669 59.1057 0.251669C76.5505 0.277513 93.9694 0.329202 111.414 0.355046C112.474 0.329202 113.559 0.225825 114.619 0.484267Z" fill="#93541E"/>
<path d="M56.3917 1.59561C56.3917 9.83989 56.4175 18.11 56.4175 26.3543C56.4175 29.6106 56.4175 32.8928 56.4175 36.1492C56.3917 36.2267 56.3917 36.2784 56.3658 36.356C48.6901 36.3818 40.9886 36.4076 33.3129 36.4335C32.6668 36.4335 32.0206 36.511 31.4004 36.5369C31.8656 36.02 32.5117 36.1492 33.1061 36.1492C40.0323 36.1492 46.9586 36.1492 53.9106 36.1492C55.9782 36.1492 56.2107 35.9166 56.2107 33.8491C56.2107 23.6923 56.2107 13.5356 56.2107 3.35301C56.1849 2.78444 56.1074 2.16418 56.3917 1.59561Z" fill="#D49B3A"/>
<path d="M114.619 0.484311C113.559 0.200025 112.474 0.329246 111.414 0.329246C93.9695 0.277558 76.5505 0.251714 59.1058 0.225869C58.3304 0.225869 57.5551 0.200024 56.7798 0.17418C57.3225 -0.0584172 57.8911 0.0191156 58.4338 0.0191156C76.9641 0.0191156 95.4943 0.0191156 114.025 0.0191156C114.671 0.0191156 115.317 -0.110105 115.911 0.303401C115.653 0.355089 115.368 0.432622 115.11 0.484311C114.929 0.484311 114.774 0.484311 114.619 0.484311Z" fill="#FAC306"/>
<path d="M101.749 65.3789C102.498 65.6115 102.136 66.2317 102.136 66.6452C102.162 74.0883 102.162 81.5314 102.188 88.9746C102.188 90.9387 102.188 90.9387 104.204 90.9387C107.227 90.9387 110.225 90.887 113.249 90.9904C113.869 91.0162 114.516 90.3184 115.11 91.0421C112.19 91.3264 109.269 91.0938 106.349 91.1713C105.263 91.1971 104.204 91.1455 103.118 91.1972C102.24 91.223 101.904 90.9129 101.904 90.0083C101.878 81.7899 101.8 73.5973 101.749 65.3789Z" fill="#93541E"/>
<path d="M85.1821 158.702C86.4743 159.374 86.6294 159.297 86.7069 157.798C86.7328 157.384 86.6294 156.919 87.1204 156.686C87.1463 157.41 87.2238 158.108 87.198 158.831C87.198 159.297 86.9912 159.658 86.4226 159.633C85.9057 159.607 85.2855 159.813 84.9754 159.141C84.9237 158.935 85.0271 158.805 85.1821 158.702Z" fill="#93541E"/>
<path d="M56.3918 0.820343C56.4176 0.897875 56.4176 0.949564 56.3918 1.0271C56.3401 0.949564 56.3401 0.872031 56.3918 0.820343Z" fill="#D49B3A"/>
<path d="M102.136 35.1671C100.456 35.1671 98.7761 35.1412 97.0962 35.1671C96.3984 35.1671 96.0625 34.9086 96.0883 34.185C96.1141 32.5051 96.1141 30.8253 96.0883 29.1454C96.0883 28.4476 96.3984 28.1375 97.0962 28.1633C100.508 28.1892 103.893 28.1892 107.305 28.1633C108.132 28.1633 108.338 28.551 108.338 29.2746C108.313 30.877 108.313 32.4534 108.338 34.0558C108.364 34.9086 108.002 35.1929 107.175 35.1929C105.496 35.1671 103.816 35.1929 102.136 35.1671C102.136 35.1929 102.136 35.1929 102.136 35.1671Z" fill="#D3A03A"/>
<path d="M79.4707 51.8625C79.1089 49.7691 79.3415 47.6757 79.2898 45.5824C79.2898 45.143 79.4965 44.8329 79.9617 44.8329C83.5541 44.8329 87.1464 44.5744 90.7129 44.8846C90.7904 44.8846 90.8679 44.9621 90.9455 44.988C90.9455 46.7712 90.9196 48.5803 90.9972 50.3635C91.0489 51.4748 90.5837 51.7591 89.5757 51.7591C86.2419 51.7591 82.8563 51.8108 79.4707 51.8625Z" fill="#D3A03A"/>
<path d="M96.1142 18.0842C96.0883 16.1459 96.0883 14.2076 96.0366 12.2951C96.0366 11.649 96.3209 11.3647 96.967 11.3647C100.456 11.3647 103.919 11.3647 107.408 11.3647C107.951 11.3647 108.338 11.5456 108.313 12.1659C108.261 14.13 108.468 16.12 108.183 18.0842C104.178 18.0842 100.146 18.0842 96.1142 18.0842Z" fill="#D3A03A"/>
<path d="M102.11 51.6815C100.56 51.6815 99.009 51.6557 97.4583 51.7074C96.5538 51.7332 96.1144 51.4489 96.1403 50.4669C96.192 48.9679 96.1661 47.4689 96.1403 45.9441C96.1144 45.0913 96.3987 44.6778 97.3291 44.7036C100.56 44.7295 103.79 44.7295 106.995 44.7036C107.796 44.7036 108.209 44.9621 108.184 45.8149C108.158 47.4173 108.158 48.9937 108.184 50.5961C108.209 51.4489 107.822 51.7332 107.021 51.7074C105.392 51.6557 103.764 51.6815 102.11 51.6815Z" fill="#D3A03A"/>
<path d="M85.1306 35.1671C83.5799 35.1671 82.0293 35.1412 80.4786 35.1671C79.6775 35.1929 79.2898 34.9345 79.3157 34.0558C79.3415 32.4793 79.3157 30.8769 79.3157 29.2746C79.3157 28.5251 79.6 28.1891 80.3753 28.1891C83.6058 28.215 86.8105 28.215 90.041 28.215C90.6871 28.215 91.1006 28.4217 91.1006 29.1712C91.0747 30.7994 91.1006 32.4276 91.1264 34.0816C91.1264 34.8569 90.8163 35.1671 90.041 35.1671C88.387 35.1671 86.7588 35.1929 85.1306 35.1671Z" fill="#D3A03A"/>
<path d="M79.5481 18.0842C79.5222 16.1458 79.5222 14.2334 79.4705 12.2951C79.4447 11.5714 79.8065 11.313 80.5043 11.3388C83.6056 11.3647 86.681 11.3905 89.7823 11.4164C90.8161 12.0366 90.8936 13.0187 90.8161 14.0783C90.7644 14.9312 90.7644 15.784 90.8161 16.6369C90.8936 17.774 90.4284 18.1358 89.3171 18.11C86.0608 18.0583 82.8044 18.0842 79.5481 18.0842Z" fill="#D3A03A"/>
<path d="M56.3921 36.3818C56.3921 36.3043 56.4179 36.2526 56.4438 36.175C56.5472 36.175 56.6247 36.2009 56.7281 36.2009C61.6385 36.2009 66.5488 36.2009 71.4592 36.2267C73.0357 36.2267 73.2683 36.4335 73.2683 37.8808C73.2683 55.2739 73.2683 72.6669 73.2683 90.06C73.2683 90.2668 73.2425 90.4994 73.2425 90.7061C72.3638 90.3702 71.666 90.0084 72.2087 88.8195C72.3638 88.4577 72.2604 87.9667 72.2604 87.5532C72.2604 71.9175 72.2604 56.2559 72.2862 40.6202C72.2862 39.6898 71.9244 38.8111 72.1053 37.8291C72.2345 37.1054 71.4075 37.2347 70.9423 37.2347C67.3758 37.2088 63.8094 37.2347 60.2429 37.2347C59.0799 37.2347 57.9169 37.2347 56.7539 37.2347C56.5988 36.9245 56.4955 36.6661 56.3921 36.3818Z" fill="#C62E30"/>
<path d="M68.4613 10.8995C69.8827 10.8995 71.3042 10.8995 72.7256 10.8995C74.5605 10.8995 75.1549 11.4681 74.6897 13.2514C74.3279 14.6211 74.3021 15.965 74.3021 17.3089C74.3021 18.291 73.8886 18.6786 72.8807 18.6528C70.8131 18.5752 68.7456 18.6011 66.7039 18.6011C66.0578 18.6011 65.4375 18.6528 64.8173 18.9112C63.37 19.4798 61.8969 18.4202 61.9486 16.8695C61.9744 15.629 61.6643 14.3627 62.3104 13.1997C62.3363 13.1738 62.3362 13.1221 62.3362 13.0704C62.543 10.8995 62.543 10.8995 64.869 10.8995C66.0578 10.8737 67.2466 10.8737 68.4613 10.8995ZM68.4096 11.3389C66.859 11.3647 65.3083 11.3906 63.7835 11.3389C62.9565 11.313 62.6205 11.649 62.6464 12.476C62.6722 13.975 62.6722 15.474 62.6464 16.9729C62.6205 17.8516 62.9824 18.1876 63.8611 18.1876C66.859 18.1617 69.8827 18.1617 72.8807 18.1876C73.7594 18.1876 74.1212 17.7999 74.0953 16.9471C74.0695 15.4481 74.0695 13.9491 74.0953 12.4502C74.1212 11.6232 73.7593 11.313 72.9323 11.313C71.4334 11.3647 69.9086 11.3389 68.4096 11.3389Z" fill="#FAC306"/>
<path d="M79.4707 51.8625C82.8563 51.8366 86.216 51.7591 89.6016 51.7591C90.6095 51.7591 91.0747 51.4748 91.023 50.3635C90.9455 48.5802 90.9972 46.7712 90.9713 44.9879C91.3848 45.4014 91.3073 45.9441 91.3332 46.4352C91.3848 48.0117 91.2039 49.614 91.4624 51.1905C91.5658 51.7849 91.2815 52.1467 90.7129 52.1467C87.0947 52.1467 83.5024 52.1209 79.8842 52.095C79.755 52.1209 79.6258 51.94 79.4707 51.8625Z" fill="#FAC306"/>
<path d="M79.5483 18.0842C82.8047 18.0842 86.0611 18.0583 89.3174 18.11C90.4287 18.1359 90.8939 17.7482 90.8164 16.6369C90.7647 15.7841 90.7647 14.9312 90.8164 14.0783C90.8939 13.0187 90.7905 12.0367 89.7826 11.4164C90.8164 11.1838 91.1782 11.6232 91.1523 12.6311C91.1007 14.13 91.1523 15.629 91.1523 17.128C91.1523 17.5931 91.1782 18.0842 90.7388 18.3943C87.1982 18.3943 83.6317 18.3943 80.0911 18.3943C79.8843 18.2909 79.7292 18.1876 79.5483 18.0842Z" fill="#D49B3A"/>
<path d="M96.1143 18.0841C100.146 18.0841 104.178 18.0841 108.209 18.0841C108.054 18.1875 107.925 18.2909 107.77 18.3684C104.048 18.3684 100.327 18.3943 96.6053 18.3943C96.4502 18.3167 96.2693 18.1875 96.1143 18.0841Z" fill="#D49B3A"/>
<path d="M96.6055 18.4201C100.327 18.4201 104.049 18.3942 107.77 18.3942C107.434 18.6527 107.046 18.6268 106.659 18.6268C103.635 18.6268 100.611 18.6268 97.5876 18.6268C97.2774 18.601 96.9414 18.4718 96.6055 18.4201Z" fill="#93541E"/>
<path d="M80.0649 18.3942C83.6314 18.3942 87.1721 18.3942 90.7127 18.3942C90.0666 18.756 89.3688 18.5751 88.6969 18.601C86.2675 18.6268 83.8382 18.6268 81.4088 18.601C80.9695 18.601 80.4784 18.6785 80.0649 18.3942Z" fill="#93541E"/>
<path d="M163.697 61.9674C163.49 62.045 163.309 62.1225 163.076 62.1742C160.388 62.7428 159.897 62.3809 159.897 59.6415C159.897 57.7548 159.923 55.8682 159.897 53.9816C159.897 53.1287 160.208 52.6894 161.112 52.7669C162.973 52.922 164.86 52.5085 166.72 52.9737C166.384 52.9737 166.048 52.9737 165.687 52.9737C163.774 52.9995 163.697 53.1287 163.619 55.0154C163.593 57.3413 163.955 59.6673 163.697 61.9674Z" fill="#FAC306"/>
<path d="M136.302 52.7152C136.483 52.7411 136.664 52.7411 136.844 52.7669C136.999 52.8186 137.155 52.8961 137.335 52.922C139.558 53.2062 139.636 53.3096 139.661 55.5839C139.687 57.7548 139.661 59.9516 139.661 62.1225C138.938 62.4584 138.137 62.2775 137.387 62.3292C136.56 62.3809 136.25 61.9674 136.25 61.1662C136.302 58.3751 136.302 55.5581 136.302 52.7152Z" fill="#FAC306"/>
<path d="M163.697 61.9676C163.955 59.6416 163.593 57.3415 163.671 55.0155C163.748 53.1289 163.826 52.9997 165.738 52.9738C166.074 52.9738 166.41 52.9738 166.772 52.9738C167.263 53.6199 167.031 54.3694 167.056 55.093C167.108 56.9797 167.005 58.8663 167.108 60.7271C167.16 61.9417 166.72 62.3811 165.557 62.2519C164.937 62.1743 164.265 62.4328 163.697 61.9676Z" fill="#FAC306"/>
<path d="M143.487 59.4089C143.487 59.5898 143.487 59.7707 143.487 59.9516C143.358 60.1067 143.358 60.2876 143.487 60.4426C143.487 60.7786 143.487 61.1404 143.487 61.4764C143.099 61.6573 143.099 61.8124 143.487 61.9933C143.461 62.0708 143.461 62.1742 143.435 62.2517C142.789 62.2517 142.143 62.2259 141.497 62.2517C140.618 62.2776 140.256 61.7865 140.23 60.9854C140.153 58.8145 140.075 56.6177 140.075 54.4468C140.075 53.9816 139.998 53.3614 140.566 53.0771C141.678 52.5343 142.97 53.0512 143.461 54.2142C143.461 54.3951 143.461 54.6019 143.461 54.7828C143.151 56.3593 143.125 57.8841 143.487 59.4089Z" fill="#FAC306"/>
<path d="M151.731 67.2654C151.653 67.2913 151.576 67.3171 151.473 67.343C148.32 67.7823 148.216 67.7048 148.216 64.5777C148.216 63.5439 148.242 62.5101 148.216 61.5022C148.19 60.6493 148.526 60.21 149.431 60.2617C150.206 60.3134 150.982 60.1583 151.731 60.4167C151.731 62.691 151.731 64.9912 151.731 67.2654Z" fill="#FAC306"/>
<path d="M163.697 63.6215C167.832 63.5182 166.927 63.2597 167.031 66.7487C167.056 67.7307 167.005 68.7128 167.031 69.7207C167.082 70.7028 166.695 71.168 165.661 71.0388C164.989 70.9613 164.291 71.1939 163.645 70.8062C163.671 68.4027 163.697 65.9992 163.697 63.6215Z" fill="#FAC306"/>
<path d="M163.18 70.8062C162.637 71.168 162.017 70.9613 161.423 71.013C160.466 71.0905 160.001 70.7028 160.027 69.6691C160.079 68.0409 160.079 66.3869 160.027 64.7587C160.001 63.7766 160.415 63.4406 161.319 63.5182C161.914 63.5699 162.534 63.5699 163.128 63.5957C163.154 65.9992 163.18 68.4027 163.18 70.8062Z" fill="#FAC306"/>
<path d="M155.349 60.5461C155.375 62.381 155.323 64.216 155.401 66.0509C155.452 67.1364 155.039 67.5499 153.979 67.4206C153.436 67.3689 152.868 67.3948 152.325 67.369C152.325 65.9734 152.299 64.5519 152.299 63.1564C152.299 60.236 152.299 60.236 155.349 60.5461Z" fill="#FAC306"/>
<path d="M139.61 48.5286C139.532 48.5544 139.455 48.6061 139.377 48.6319C136.431 49.2264 136.095 48.9421 136.069 46.0217C136.069 42.6103 136.069 42.6103 139.584 42.9979C139.584 44.8328 139.61 46.6936 139.61 48.5286Z" fill="#FAC306"/>
<path d="M151.524 55.8166C150.413 55.8166 149.301 55.8166 148.19 55.7908C148.19 54.266 148.138 52.7154 148.164 51.1905C148.164 50.5961 147.906 49.6916 148.862 49.6916C149.818 49.6916 151.033 48.9938 151.653 50.4152C151.653 50.6478 151.653 50.9063 151.627 51.1389C151.601 52.6895 151.55 54.266 151.524 55.8166Z" fill="#FAC306"/>
<path d="M136.302 67.4465C136.302 66.852 136.302 66.2576 136.276 65.6632C136.379 63.7249 136.741 63.5181 138.421 64.4485C138.524 64.5002 138.705 64.5519 138.731 64.5002C139.506 63.7507 139.351 64.5261 139.377 64.9137C139.403 66.361 139.377 67.8341 139.403 69.2814C139.429 71.0646 139.455 71.0646 137.749 70.832C137.335 70.7803 137 70.7803 137.103 70.1601C137.18 69.6432 136.741 69.4365 136.328 69.2814C136.328 69.1005 136.328 68.9454 136.328 68.7645C137.051 68.2993 136.793 67.8858 136.302 67.4465Z" fill="#FAC306"/>
<path d="M151.653 50.4151C151.059 48.9937 149.819 49.6914 148.862 49.6914C147.906 49.6914 148.19 50.596 148.165 51.1904C148.139 52.7152 148.165 54.2659 148.19 55.7907C148.087 55.739 147.88 55.6614 147.88 55.6098C148.19 53.3613 147.363 51.087 148.19 48.8644C148.888 48.8644 149.56 48.8386 150.258 48.8644C151.188 48.9161 151.628 48.5285 151.524 47.5722C151.498 47.2363 151.524 46.8744 151.524 46.5385C151.524 43.1012 151.524 43.1012 148.165 43.1012C150.361 42.5843 152.584 42.9461 154.806 42.9203C155.272 42.9203 155.401 43.3596 155.401 43.7731C155.401 47.5205 155.401 51.2421 155.401 54.9895C155.401 55.6098 155.117 55.9716 154.496 56.0233C153.773 56.0749 153.049 56.2042 152.351 55.8165C152.661 55.8165 152.946 55.8165 153.256 55.8165C155.039 55.8165 155.168 55.6873 155.168 53.904C155.168 52.8703 155.142 51.8365 155.168 50.8028C155.194 49.6656 154.445 49.6398 153.592 49.6139C152.687 49.5881 152.274 49.8724 152.274 50.8544C152.274 52.3534 152.481 53.8524 152.119 55.3513C152.119 53.3096 152.119 51.2679 152.119 49.2004C151.628 49.5881 151.964 50.0533 151.653 50.4151ZM155.168 46.0991C155.168 45.5047 155.142 44.8844 155.168 44.29C155.22 43.2304 154.6 43.1012 153.747 43.127C152.972 43.1529 152.248 43.127 152.274 44.2125C152.3 45.4272 152.274 46.616 152.274 47.8307C152.274 48.5285 152.584 48.8128 153.282 48.8644C154.91 48.9937 155.142 48.7869 155.142 47.1329C155.168 46.7969 155.168 46.4609 155.168 46.0991Z" fill="#CA6925"/>
<path d="M148.164 43.1271C151.524 43.1271 151.524 43.1271 151.524 46.5643C151.524 46.9003 151.498 47.2621 151.524 47.5981C151.601 48.5543 151.188 48.942 150.257 48.8903C149.585 48.8386 148.888 48.8903 148.19 48.8903C148.19 46.952 148.19 45.0395 148.164 43.1271Z" fill="#FAC306"/>
<path d="M163.387 48.5285C160.053 48.7611 160.053 48.7611 160.053 45.5564C160.053 42.7136 160.053 42.7136 162.921 42.972C163.102 42.9979 163.257 43.0496 163.412 43.0754C163.387 44.8586 163.387 46.6936 163.387 48.5285Z" fill="#FAC306"/>
<path d="M143.461 68.2218C143.461 69.0747 143.461 69.9534 143.487 70.8062C142.711 70.8579 141.962 70.9096 141.187 70.9096C140.928 70.9096 140.67 70.7804 140.67 70.4444C140.696 68.8938 140.205 67.3948 140.411 65.8442C140.515 65.1464 140.463 64.2677 141.238 64.1385C142.479 63.9059 143.073 64.5778 143.28 65.7408C143.409 66.5936 142.841 67.4465 143.461 68.2218Z" fill="#FAC306"/>
<path d="M143.461 68.2218C142.815 67.4464 143.409 66.5936 143.28 65.7666C143.073 64.5777 142.479 63.9316 141.238 64.1642C140.489 64.2935 140.515 65.1722 140.411 65.87C140.204 67.4206 140.695 68.9454 140.67 70.4702C140.67 70.8062 140.928 70.9354 141.187 70.9354C141.962 70.9096 142.711 70.8579 143.487 70.832C143.306 71.504 142.763 71.3231 142.324 71.3231C140.98 71.3489 139.662 71.3231 138.318 71.3231C136.276 71.3231 136.276 71.3231 136.328 69.2814C136.741 69.4623 137.181 69.669 137.103 70.1601C137 70.7803 137.362 70.7545 137.749 70.832C139.455 71.0646 139.455 71.0646 139.403 69.2814C139.377 67.8341 139.403 66.361 139.377 64.9137C139.377 64.5519 139.507 63.7507 138.731 64.5002C138.68 64.5519 138.499 64.5002 138.421 64.4485C136.741 63.544 136.38 63.7507 136.276 65.6632C135.888 63.8024 136.044 63.5957 137.853 63.5957C139.3 63.5957 140.773 63.6474 142.22 63.6215C143.151 63.5957 143.564 63.9058 143.512 64.8879C143.461 65.9992 143.487 67.1105 143.461 68.2218Z" fill="#D49B3A"/>
<path d="M152.118 55.3514C152.506 53.8783 152.273 52.3535 152.273 50.8545C152.273 49.8724 152.687 49.5623 153.591 49.614C154.418 49.6398 155.168 49.6657 155.168 50.8028C155.142 51.8366 155.194 52.8703 155.168 53.9041C155.168 55.6874 155.039 55.8166 153.255 55.8166C152.945 55.8166 152.661 55.8166 152.351 55.8166C152.273 55.7907 152.196 55.7907 152.118 55.7907C152.118 55.6357 152.118 55.5064 152.118 55.3514Z" fill="#FAC306"/>
<path d="M141.703 42.9463C141.884 42.9463 142.065 42.9463 142.246 42.9463L142.349 42.9979L142.453 42.9463C142.711 42.9463 142.97 42.9721 143.228 42.9721C143.228 44.1092 143.228 45.2722 143.228 46.4094C143.228 48.3477 143.099 48.4769 141.135 48.5803H141.031L140.928 48.5544C140.592 47.469 140.411 46.3577 140.411 45.2205C140.437 44.2643 140.204 43.1272 141.703 42.9463Z" fill="#FAC306"/>
<path d="M164.213 42.9721C165.066 42.9721 165.919 42.9721 166.798 42.9979C166.798 44.2385 166.824 45.479 166.772 46.7195C166.746 47.6499 166.178 48.0634 165.247 48.0892C164.239 48.1151 164.213 47.4431 164.213 46.6937C164.213 45.4273 164.213 44.1868 164.213 42.9721Z" fill="#FAC306"/>
<path d="M143.487 54.24C142.996 53.0771 141.703 52.5602 140.592 53.1029C140.024 53.3872 140.075 54.0074 140.101 54.4726C140.127 56.6435 140.179 58.8403 140.256 61.0112C140.282 61.8124 140.644 62.3034 141.523 62.2776C142.169 62.2517 142.815 62.2776 143.461 62.2776C142.35 62.7428 141.161 62.3809 140.024 62.4843C139.894 62.3809 139.791 62.2517 139.662 62.1483C139.662 59.9774 139.662 57.7807 139.662 55.6098C139.636 53.3097 139.558 53.2321 137.336 52.9478C137.181 52.922 137.026 52.8445 136.845 52.7928C138.576 52.7669 140.334 52.8186 142.065 52.7152C143.28 52.6377 143.745 53.0771 143.487 54.24Z" fill="#D49B3A"/>
<path d="M139.662 62.1485C139.791 62.2518 139.894 62.3811 140.023 62.4844C139.713 62.6395 139.429 62.8204 139.093 62.9238C136.922 63.6733 135.785 62.8721 135.785 60.6237C135.785 58.4269 135.785 56.256 135.785 54.0593C135.785 53.5424 135.708 52.9997 136.302 52.7412C136.276 55.5582 136.276 58.3752 136.25 61.1922C136.25 61.9934 136.56 62.4069 137.387 62.3552C138.137 62.3294 138.912 62.4844 139.662 62.1485Z" fill="#D43228"/>
<path d="M155.349 60.546C152.325 60.2358 152.325 60.2358 152.325 63.1562C152.325 64.5518 152.351 65.9732 152.351 67.3688C152.144 67.343 151.964 67.3171 151.757 67.2654C151.757 64.9653 151.757 62.691 151.757 60.3909C152.946 60.0291 154.16 59.4347 155.349 60.546Z" fill="#CA6925"/>
<path d="M164.214 42.972C164.214 44.2125 164.214 45.453 164.214 46.6935C164.214 47.4172 164.24 48.0891 165.247 48.0891C166.152 48.0633 166.721 47.6498 166.772 46.7194C166.824 45.4789 166.798 44.2383 166.798 42.9978C166.876 42.9978 166.927 42.9978 167.005 42.9978C167.005 43.6698 167.031 44.3676 167.031 45.0395C167.031 48.27 167.031 48.27 163.878 48.4251C163.826 47.6239 163.774 46.8486 163.723 46.0474C163.929 45.6856 163.929 45.3238 163.723 44.9361C163.723 44.3676 163.723 43.799 163.723 43.2046C163.8 43.1012 163.878 43.0237 163.955 42.9203C164.033 42.9203 164.136 42.9461 164.214 42.972Z" fill="#D49B3A"/>
<path d="M163.18 70.8062C163.154 68.4027 163.154 66.025 163.128 63.6215C163.309 63.6215 163.516 63.6215 163.697 63.6215C163.697 66.025 163.671 68.4027 163.671 70.8062C163.516 70.7803 163.361 70.7803 163.18 70.8062Z" fill="#CA6925"/>
<path d="M139.61 48.5286C139.61 46.6937 139.61 44.8329 139.61 42.9979C139.817 42.9721 140.023 42.9721 140.204 42.9463C140.204 44.7553 140.178 46.5903 140.178 48.3994C139.972 48.4511 139.791 48.4769 139.61 48.5286Z" fill="#CA6925"/>
<path d="M163.852 48.4252C167.005 48.2701 167.005 48.2701 167.005 45.0396C167.005 44.3677 166.979 43.6699 166.979 42.9979C167.574 44.6519 167.212 46.3577 167.186 48.0117C167.186 48.5286 166.643 48.6061 166.204 48.6061C165.403 48.6061 164.601 48.5544 163.774 48.5544C163.826 48.5027 163.852 48.451 163.852 48.4252Z" fill="#CA6925"/>
<path d="M140.179 48.3994C140.179 46.5903 140.205 44.7553 140.205 42.9463C140.696 42.9463 141.212 42.9463 141.704 42.9463C140.205 43.1272 140.437 44.2643 140.437 45.2722C140.437 46.4094 140.618 47.5207 140.954 48.6061C140.696 48.5286 140.437 48.4769 140.179 48.3994Z" fill="#D49B3A"/>
<path d="M141.161 48.6061C143.125 48.5027 143.254 48.3735 143.254 46.4352C143.254 45.2981 143.254 44.1351 143.254 42.9979C143.771 44.6778 143.616 46.4352 143.383 48.0892C143.228 49.3039 141.988 48.6836 141.161 48.6061Z" fill="#D49B3A"/>
<path d="M152.118 55.3514C152.118 55.5064 152.118 55.6357 152.118 55.7907C152.015 55.7907 151.938 55.8166 151.834 55.8166C151.705 54.2659 152.015 52.6894 151.627 51.1388C151.627 50.9062 151.627 50.6477 151.653 50.4151C151.963 50.0533 151.627 49.5881 152.118 49.2005C152.118 51.268 152.118 53.3097 152.118 55.3514Z" fill="#D43228"/>
<path d="M163.852 48.4252C163.852 48.4769 163.826 48.5027 163.8 48.5544C163.645 48.5544 163.516 48.5286 163.361 48.5286C163.361 46.6937 163.387 44.8846 163.387 43.0496C163.464 43.0238 163.542 42.9721 163.619 42.9463C163.645 43.0238 163.671 43.1272 163.671 43.2047C163.671 43.7733 163.671 44.3418 163.671 44.9363C163.671 45.2981 163.671 45.6599 163.671 46.0476C163.774 46.8229 163.8 47.624 163.852 48.4252Z" fill="#93541E"/>
<path d="M143.486 59.4089C143.125 57.8841 143.15 56.3335 143.486 54.8087C143.486 56.3593 143.486 57.8841 143.486 59.4089Z" fill="#D49B3A"/>
<path d="M151.627 51.1388C152.015 52.6894 151.705 54.2659 151.834 55.8166C151.731 55.8166 151.627 55.7907 151.498 55.7907C151.55 54.2659 151.601 52.6894 151.627 51.1388Z" fill="#CA6925"/>
<path d="M136.302 67.4465C136.793 67.86 137.051 68.2994 136.328 68.7387C136.302 68.2994 136.302 67.8859 136.302 67.4465Z" fill="#D49B3A"/>
<path d="M143.487 62.0191C143.099 61.8382 143.099 61.6831 143.487 61.5022C143.512 61.6831 143.487 61.8382 143.487 62.0191Z" fill="#D49B3A"/>
<path d="M143.512 60.4685C143.383 60.3135 143.383 60.1325 143.512 59.9775C143.487 60.1325 143.512 60.2876 143.512 60.4685Z" fill="#D49B3A"/>
<path d="M163.723 43.2046C163.697 43.127 163.671 43.0237 163.671 42.9461C163.774 42.9461 163.878 42.9461 163.981 42.9203C163.878 43.0237 163.8 43.127 163.723 43.2046Z" fill="#CA6925"/>
<path d="M142.479 42.9463L142.375 42.998L142.272 42.9463C142.324 42.9204 142.401 42.9204 142.479 42.9463Z" fill="#D49B3A"/>
<path d="M62.8527 38.8111C60.6818 38.8111 58.7952 38.8111 56.8311 38.8111C57.1412 38.0875 57.6322 38.2425 58.0199 38.2425C61.819 38.2167 65.5922 38.2167 69.3913 38.2425C70.9161 38.2425 71.2004 38.5527 71.2004 40.0775C71.2004 47.3397 71.2004 54.6277 71.2004 61.8899C71.2004 62.2259 71.1745 62.5877 71.1229 62.9237C71.0453 63.3113 70.761 63.4922 70.3734 63.4922C69.9599 63.4922 69.7531 63.2338 69.7014 62.8461C69.6756 62.4068 69.6497 61.9933 69.6497 61.5539C69.6497 54.6277 69.6497 47.7015 69.6497 40.7753C69.6497 40.3876 69.6497 39.9999 69.6239 39.6123C69.5981 39.3021 69.5722 38.9403 69.2362 38.8886C68.6935 38.8111 68.9778 39.2504 68.9003 39.483C68.616 40.4651 67.5564 40.5168 66.6777 39.4055C66.1349 38.7336 65.5405 38.7336 64.8686 38.7594C64.5326 38.7594 64.1966 38.7594 64.2225 39.3021C64.2483 40.1292 63.6797 40.2842 63.0078 40.155C62.6201 40.0775 62.2325 40.0775 61.8707 40.155C61.5347 40.2325 61.1212 40.3101 61.0178 39.8449C60.9403 39.3797 61.3279 39.328 61.6897 39.2763C61.9482 39.2504 62.2842 39.3538 62.8527 38.8111Z" fill="#D43229"/>
<path d="M39.4122 59.4347C35.6648 59.5381 36.3885 59.719 36.3368 56.566C36.311 55.5839 36.3626 54.6019 36.3109 53.5939C36.2851 52.7928 36.6211 52.431 37.4481 52.431C39.0246 52.431 40.6269 52.431 42.2034 52.3793C43.0563 52.3534 43.2113 52.8445 43.2113 53.5164C43.2113 55.0671 43.1596 56.6177 43.2372 58.1425C43.2889 59.228 42.8495 59.6415 41.8157 59.5639C41.1696 59.5381 40.5235 59.5898 39.9033 59.383C39.9033 57.2638 39.9033 55.1446 39.9033 53.0254C39.7482 53.0254 39.5673 53.0254 39.4122 53.0254C39.4122 55.1963 39.4122 57.3155 39.4122 59.4347Z" fill="#FAC306"/>
<path d="M63.9124 80.8853C63.9124 82.1775 63.9124 83.4698 63.9124 84.762C63.9124 85.4339 63.654 85.8216 62.9304 85.8216C62.8787 85.8216 62.8528 85.8216 62.8011 85.8216C58.847 85.8474 59.674 86.0283 59.5965 82.8495C59.5706 80.9629 59.6223 79.0763 59.5706 77.1638C59.5448 76.2334 59.9066 75.8457 60.837 75.8457C64.5585 75.8457 63.8091 75.639 63.8866 78.7144C63.9124 79.4122 63.8866 80.1617 63.9124 80.8853C63.8866 80.8853 63.8866 80.8853 63.9124 80.8853Z" fill="#FAC306"/>
<path d="M39.8776 80.7561C39.8776 81.9966 39.8518 83.2372 39.8776 84.4777C39.9034 85.253 39.5416 85.5114 38.7921 85.5631C35.7684 85.7699 35.7684 85.7699 35.7942 82.7978C35.7942 80.9112 35.8459 79.0246 35.8201 77.1379C35.7942 76.1817 36.1044 75.7682 37.1381 75.7424C39.8518 75.6907 39.8518 75.6648 39.8518 78.4301C39.8518 79.2055 39.8518 79.9808 39.8776 80.7561Z" fill="#FAC306"/>
<path d="M69.1332 80.8853C69.1332 82.1258 69.1074 83.3922 69.1332 84.6327C69.1591 85.5372 68.7972 85.8474 67.9185 85.8215C64.7139 85.7957 65.2049 86.0283 65.1791 83.1854C65.1791 81.1954 65.2049 79.2313 65.1532 77.2413C65.1274 76.2075 65.4634 75.7423 66.5488 75.7682C69.6501 75.794 69.0815 75.6648 69.1332 78.3009C69.1591 79.1537 69.1332 80.0324 69.1332 80.8853Z" fill="#FAC306"/>
<path d="M43.0562 47.4948C41.0145 48.0892 38.9212 47.8566 36.8278 47.9342C36.3626 47.96 36.2075 47.5207 36.2334 47.1072C36.3626 45.3498 36.3109 43.5924 36.1558 41.835C36.1042 41.2405 36.2075 40.5686 36.9312 40.5944C38.9729 40.5944 41.0145 40.3618 43.0304 40.9046C43.0562 43.1013 43.0562 45.2981 43.0562 47.4948ZM42.7203 44.1609C42.7461 44.1609 42.7719 44.1609 42.7978 44.1609C42.7461 43.3598 42.7719 42.5327 42.6169 41.7316C42.4877 41.1372 41.9708 40.8529 41.3505 40.8529C40.9629 40.8529 40.5494 40.8012 40.3168 41.2147C40.0583 41.7057 40.2134 42.1192 40.7044 42.4035C40.9887 42.5586 40.937 42.7912 40.8595 43.0755C40.5494 44.1351 40.7303 45.1947 40.7044 46.2543C40.6786 46.797 40.6269 47.469 41.4539 47.4948C42.2292 47.5207 42.6686 47.0555 42.7203 46.3318C42.7719 45.6082 42.7203 44.8846 42.7203 44.1609Z" fill="#FAC306"/>
<path d="M41.1697 82.7203C41.1697 80.8854 41.2214 79.0504 41.1697 77.2155C41.1438 76.2076 41.5315 75.8199 42.5136 75.8975C43.2889 75.975 44.0384 75.975 44.8137 76.0008C44.8137 78.6111 44.7878 81.2472 44.8395 83.8574C44.8654 84.9429 44.426 85.253 43.3923 85.2789C42.6686 85.3047 41.9967 84.8654 41.273 85.2013C41.2472 84.4002 41.2214 83.5473 41.1697 82.7203Z" fill="#FAC306"/>
<path d="M50.448 64.371C52.3346 64.3968 52.3346 64.3968 52.3346 66.3351C52.3346 67.4723 52.3346 68.6353 52.5413 69.7724C52.5413 68.351 52.5672 66.9554 52.5413 65.534C52.5155 64.4485 53.1616 64.3451 53.9628 64.3968C54.7381 64.4743 55.8494 64.0091 55.8494 65.4564C55.8752 67.188 55.8752 68.8937 55.8494 70.6252C55.8494 71.0129 55.7719 71.5298 55.3067 71.504C53.2908 71.4264 51.2491 71.7882 49.2333 71.2972C49.2333 70.3926 49.2075 69.514 49.2591 68.6094C49.3367 67.2655 48.9749 65.8958 49.4917 64.5777C49.4917 64.8879 49.4659 65.1721 49.4659 65.4823C49.4659 66.9295 49.4659 68.4026 49.4659 69.8499C49.4659 70.3668 49.621 70.8062 50.2671 70.7803C51.0941 70.7286 50.5513 70.1859 50.5772 69.8499C50.5772 69.7465 50.6806 69.6432 50.7322 69.5398C52.0245 70.2376 52.0245 70.2376 52.0245 68.8162C52.0245 68.1701 52.0245 67.5239 52.0245 66.8778C52.0245 64.8362 52.0245 64.8362 50.0603 64.4743C50.2154 64.4227 50.3187 64.3968 50.448 64.371Z" fill="#FAC306"/>
<path d="M65.2567 70.8319C64.9982 72.5635 63.6543 71.6073 62.8015 71.7623C61.9486 71.9174 61.8969 71.2196 61.8969 70.5735C61.8969 68.997 61.9486 67.3947 61.8969 65.8182C61.8452 64.7327 62.3104 64.3451 63.3442 64.4226C63.9645 64.4743 64.6364 64.2934 65.2308 64.6552C65.2308 64.9912 65.2567 65.3013 65.2567 65.6373C65.2567 66.1541 65.2567 66.671 65.2567 67.1879C65.2567 67.3688 65.2567 67.5497 65.2567 67.7048C65.2567 68.2217 65.2567 68.7386 65.2567 69.2554C65.2567 69.7723 65.2567 70.3151 65.2567 70.8319Z" fill="#FAC306"/>
<path d="M39.3865 71.5557C39.1797 71.6332 38.973 71.7108 38.7662 71.7366C36.2335 72.0209 36.0526 71.8917 36.0526 69.3331C36.0526 68.1443 36.1043 66.9296 36.0268 65.7408C35.9751 64.7587 36.3369 64.2935 37.3448 64.3969C38.0168 64.4744 38.7146 64.2677 39.3607 64.6295C39.3865 66.9296 39.3865 69.2297 39.3865 71.5557Z" fill="#FAC306"/>
<path d="M52.1276 44.3418C52.1276 45.1947 52.0759 46.0475 52.1534 46.9004C52.2051 47.5723 52.0759 48.0892 51.3264 47.9858C50.5252 47.9083 49.233 48.5544 49.1038 47.2363C48.897 45.298 48.897 43.2822 49.1038 41.3439C49.2589 40.0517 50.5769 40.7753 51.3522 40.6461C52.05 40.5169 52.1534 41.0337 52.1276 41.6282C52.1017 42.5327 52.1276 43.4373 52.1276 44.3418Z" fill="#FAC306"/>
<path d="M52.593 44.3159C52.593 43.6698 52.593 43.0237 52.593 42.3776C52.593 40.7236 53.5492 40.0775 55.1516 40.6461C55.6943 40.827 55.7202 41.2405 55.7202 41.6798C55.7202 43.4372 55.7202 45.1946 55.7202 46.952C55.7202 48.2959 54.7381 47.9858 53.9886 48.0116C53.1874 48.0633 52.5155 47.9858 52.593 46.8745C52.6189 46.0475 52.593 45.1688 52.593 44.3159Z" fill="#FAC306"/>
<path d="M52.5668 52.7412C52.7994 52.6637 53.0578 52.5603 53.2904 52.5344C55.5905 52.3277 55.6422 52.3794 55.6422 54.7053C55.6422 55.7391 55.6422 56.747 55.6422 57.7808C55.6422 59.4348 55.3838 59.6933 53.7298 59.7191C53.3163 59.7191 52.8769 59.7966 52.4893 59.5123C52.5409 57.2381 52.5409 54.9896 52.5668 52.7412Z" fill="#FAC306"/>
<path d="M61.8708 47.0554C61.8708 45.4531 61.9484 43.8766 61.845 42.2742C61.7674 41.0337 62.2843 40.6461 63.4215 40.7753C63.9384 40.827 64.4552 40.827 64.9721 40.8528C64.9721 42.4035 64.9721 43.9283 64.9721 45.4789C64.9721 47.9341 64.7912 48.0892 62.3102 47.7015C62.181 47.6757 62.0517 47.624 61.9484 47.5981C61.9225 47.5465 61.8967 47.5206 61.8708 47.4689C61.8708 47.3655 61.8708 47.2105 61.8708 47.0554Z" fill="#D3A03A"/>
<path d="M61.974 59.4347C61.9481 57.3672 61.9223 55.2996 61.8706 53.2321C62.8268 52.5085 63.8864 52.6894 64.9719 52.7928C64.9719 53.9816 64.9977 55.1963 64.9719 56.3851C64.9461 59.7965 65.3854 59.4089 61.974 59.4347Z" fill="#FAC306"/>
<path d="M67.0395 64.3452C68.3317 64.2418 68.7194 64.8104 68.6419 66.0767C68.5126 67.9117 68.5902 69.7466 68.5643 71.5815C68.0474 71.5815 67.5306 71.5815 67.0137 71.5815C66.3417 71.6074 65.9282 71.3231 65.9282 70.6253C65.9282 68.8162 65.9541 67.033 65.9799 65.2239C65.9799 64.8362 66.2383 64.6036 66.5226 64.3969V64.3193C66.7035 64.3452 66.8845 64.3452 67.0395 64.3452Z" fill="#FAC306"/>
<path d="M71.1488 73.7007C71.3556 75.4839 70.5027 76.9312 70.6061 78.5594C70.787 80.8595 70.5027 83.1855 71.0971 85.4856C71.2522 86.08 71.1488 86.7778 71.1488 87.4239C71.1488 87.7599 71.1488 88.1734 70.7095 88.2509C70.2184 88.3285 70.0634 87.9149 69.9342 87.5531C69.6757 86.6744 69.5982 85.8216 69.7791 84.8912C70.3218 81.7899 70.4252 78.6886 69.7274 75.5873C69.4948 74.5794 69.5982 73.5456 69.6757 72.5119C69.7016 72.1242 69.8825 71.7107 70.3735 71.7365C70.8904 71.7624 71.0971 72.1242 71.123 72.6152C71.1747 73.0287 71.1488 73.4681 71.1488 73.7007Z" fill="#D43229"/>
<path d="M39.6709 64.6294C39.8001 64.5777 39.9035 64.526 40.0327 64.5002C42.8497 63.9058 43.2374 64.2159 43.2632 67.0329C43.2632 68.015 43.1857 69.0229 43.2891 69.9791C43.4441 71.2972 42.9273 71.814 41.6351 71.7882C41.0406 71.7882 40.4462 71.9433 39.9035 71.6073C39.7743 69.2813 40.2136 66.9295 39.6709 64.6294ZM42.7463 68.17C42.7463 67.4981 42.7205 66.8003 42.7463 66.1283C42.7463 65.2238 42.1519 65.1463 41.4541 65.1204C40.7305 65.1204 40.1878 65.2755 40.1878 66.1542C40.1878 67.188 40.2653 68.2217 40.1619 69.2296C40.0586 70.5218 40.653 70.8578 41.816 70.8578C43.0823 70.8578 42.6947 69.9791 42.7722 69.333C42.798 68.9454 42.7463 68.5577 42.7463 68.17Z" fill="#D49B3A"/>
<path d="M52.5669 52.7412C52.5669 54.9896 52.5411 57.2381 52.5411 59.5123C51.4556 59.7966 50.3444 59.9 49.2589 59.5123C49.6983 59.5123 50.1118 59.4607 50.5511 59.5123C51.7399 59.6416 52.1793 59.1247 52.1018 57.9617C52.0242 56.7729 52.0501 55.5582 52.0759 54.3435C52.1018 53.3614 51.9984 52.7153 50.732 52.7153C49.4398 52.7153 49.2331 53.3873 49.2331 54.4211C49.2589 56.1009 49.2072 57.7808 49.2072 59.4607C48.7162 57.3673 49.0263 55.2739 49.0263 53.1805C49.0263 52.4827 49.6466 52.3277 50.241 52.276C51.0421 52.1985 51.8692 52.1468 52.5669 52.7412Z" fill="#CA6925"/>
<path d="M65.2046 52.7927C65.3855 52.7669 65.5665 52.7411 65.7474 52.7152C65.7474 52.8961 65.7732 53.0512 65.7732 53.2321C65.7732 55.2996 65.7991 57.3672 65.7991 59.4347C66.1092 59.8999 66.5744 59.6673 66.962 59.6673C68.8228 59.6931 68.8228 59.6931 68.8228 57.884C68.8228 56.1783 68.8228 54.4726 68.8228 52.7927C69.3655 54.9378 69.0037 57.1346 69.0296 59.3055C69.0296 59.6414 68.797 59.8999 68.461 59.8999C66.2901 59.874 64.1192 60.2617 61.9741 59.6673C62.5168 59.6673 63.0854 59.6414 63.6281 59.6931C64.7653 59.8223 65.2563 59.4088 65.2046 58.1942C65.1271 56.3851 65.2046 54.6018 65.2046 52.7927Z" fill="#CA6925"/>
<path d="M65.7476 40.8528C66.8072 40.8528 67.8409 40.8787 68.9005 40.8787C68.8747 41.0337 68.8747 41.2146 68.8489 41.3697C68.4095 41.3697 67.996 41.3955 67.5566 41.3697C66.3678 41.2405 65.9285 41.7574 66.006 42.9462C66.0835 43.8766 66.0318 44.8328 66.0318 45.789C66.0318 46.6936 66.2128 47.5206 67.2724 47.5464C68.4353 47.5723 68.5646 46.6936 68.6163 45.7632C68.6679 44.4968 68.3578 43.1788 68.8489 41.9383C68.8489 43.9024 68.8489 45.8666 68.8489 47.8307C67.8409 48.3218 66.8072 48.0892 65.7734 48.0375C65.7476 45.6081 65.7476 43.2305 65.7476 40.8528Z" fill="#D49B3A"/>
<path d="M65.7473 40.8528C65.7473 43.2305 65.7732 45.6081 65.7732 47.9858C64.8428 48.0116 63.9382 48.0633 63.0079 48.0892C62.5943 48.0892 62.1292 48.1409 61.9482 47.6498C62.0775 47.6757 62.2067 47.7273 62.3101 47.7532C64.7911 48.1409 64.972 47.9858 64.972 45.5306C64.972 43.98 64.972 42.4551 64.972 40.9045C65.2304 40.8528 65.4889 40.8528 65.7473 40.8528Z" fill="#CA6925"/>
<path d="M66.5227 64.4226C66.2384 64.6293 65.9799 64.8878 65.9799 65.2496C65.9541 67.0587 65.9283 68.8419 65.9283 70.651C65.9283 71.3488 66.3676 71.6331 67.0137 71.6073C67.5306 71.5814 68.0475 71.6073 68.5644 71.6073C66.8328 72.2275 65.8507 72.0208 65.2563 70.8578C65.2563 70.3409 65.2563 69.7982 65.2563 69.2813C65.5406 68.7644 65.5406 68.2475 65.2563 67.7306C65.2563 67.5497 65.2563 67.3688 65.2563 67.2138C65.5406 66.6969 65.5406 66.18 65.2563 65.6631C65.2563 65.3271 65.2305 65.017 65.2305 64.681C65.644 64.5001 66.0575 64.2934 66.5227 64.4226Z" fill="#CA6925"/>
<path d="M41.1698 82.7204C41.1956 83.5474 41.2215 84.4003 41.2731 85.2273C41.9193 85.77 42.6687 85.5116 43.3665 85.5116C45.0205 85.5374 45.0464 85.4857 45.0464 83.8834C45.0464 81.2731 45.0464 78.6629 45.0464 76.0268C45.3565 76.3886 45.3048 76.8279 45.3048 77.2673C45.3048 79.6708 45.3307 82.0743 45.3048 84.4778C45.3048 85.8734 45.0981 86.0026 43.7542 85.8217C43.625 85.7958 43.4957 85.7958 43.3665 85.7958C40.4203 85.6149 40.4203 85.6149 41.1698 82.7204Z" fill="#CA6925"/>
<path d="M67.4014 48.5543C67.8924 48.6835 68.7195 48.3734 68.6678 49.0712C68.5902 50.105 67.5823 50.105 66.807 50.2342C66.0058 50.3634 65.98 49.7432 65.98 49.2521C66.0058 48.1667 66.9104 48.7869 67.4014 48.5543Z" fill="#D43229"/>
<path d="M65.7734 53.2321C65.7734 53.0512 65.7476 52.8961 65.7476 52.7152C66.7813 52.4309 67.8151 52.3276 68.8489 52.7669C68.8489 54.4726 68.8489 56.1783 68.8489 57.8582C68.8489 59.6673 68.8488 59.6931 66.9881 59.6414C66.6004 59.6414 66.1352 59.8482 65.8251 59.4088C66.2644 59.4088 66.6779 59.383 67.1173 59.4088C68.2027 59.5122 68.6938 59.0987 68.6421 57.9357C68.5646 56.8244 68.6163 55.7131 68.6163 54.576C68.6163 53.8524 68.5904 53.1287 67.8151 52.8186C67.0915 52.586 66.3678 52.6118 65.7734 53.2321Z" fill="#D49B3A"/>
<path d="M45.0462 76.0525C45.0462 78.6627 45.0462 81.273 45.0462 83.9091C45.0462 85.5114 45.0203 85.5631 43.3663 85.5373C42.6685 85.5114 41.8932 85.7957 41.2729 85.253C41.9966 84.9428 42.6685 85.3563 43.3922 85.3305C44.4259 85.3047 44.8653 84.9687 44.8394 83.9091C44.7878 81.2988 44.8136 78.6627 44.8136 76.0525C44.8911 76.0008 44.9687 76.0266 45.0462 76.0525Z" fill="#D49B3A"/>
<path d="M39.6705 64.6295C40.2132 66.9296 39.7739 69.2814 39.9031 71.6074C39.7222 71.6074 39.5671 71.5815 39.3862 71.5815C39.3862 69.2556 39.3862 66.9554 39.4121 64.6295C39.4896 64.6036 39.593 64.6295 39.6705 64.6295Z" fill="#CA6925"/>
<path d="M39.4121 59.4348C39.4121 57.3156 39.4121 55.1705 39.4121 53.0513C39.5672 53.0513 39.7481 53.0513 39.9031 53.0513C39.9031 55.1705 39.9031 57.2897 39.9031 59.4089C39.7481 59.4348 39.593 59.4348 39.4121 59.4348Z" fill="#CA6925"/>
<path d="M66.1353 89.6723C67.3241 89.2847 68.5388 89.4397 69.7534 89.4397C69.9602 89.4397 70.1928 89.5431 70.1928 89.8016C70.1928 90.0342 70.0377 90.2668 69.7793 90.1634C68.6163 89.6723 67.3241 90.1117 66.1353 89.6723Z" fill="#C62E30"/>
<path d="M65.2046 52.7929C65.2046 54.5761 65.1271 56.3852 65.2046 58.1685C65.2563 59.3831 64.7911 59.7967 63.6281 59.6674C63.0854 59.6157 62.5168 59.6416 61.9741 59.6416C61.9482 59.5641 61.9482 59.4865 61.9482 59.409C65.3597 59.3831 64.9203 59.7708 64.9462 56.3852C64.9462 55.1964 64.9462 53.9817 64.9462 52.7929C64.9979 52.7671 65.0754 52.7671 65.1271 52.7412L65.2046 52.7929Z" fill="#D49B3A"/>
<path d="M49.4914 64.5519C48.9746 65.8699 49.3622 67.2397 49.2588 68.5836C49.2072 69.4881 49.233 70.3668 49.233 71.2714C48.6644 69.1263 48.9745 66.9296 49.0521 64.7586C49.0779 63.9316 49.8274 64.0092 50.4218 64.371C50.3184 64.3968 50.1892 64.4227 50.0858 64.4485C49.9049 64.5002 49.6982 64.526 49.4914 64.5519Z" fill="#CA6925"/>
<path d="M68.8486 47.779C68.8486 45.8149 68.8486 43.8507 68.8486 41.8866C68.8486 41.7057 68.8486 41.5248 68.8486 41.3439C68.8745 41.1888 68.8745 41.0079 68.9003 40.8528C69.2363 43.1788 69.3138 45.4789 68.8486 47.779Z" fill="#CA6925"/>
<path d="M43.0562 47.4948C43.0562 45.298 43.0562 43.0754 43.0562 40.8787C43.418 43.1013 43.418 45.298 43.0562 47.4948Z" fill="#CA6925"/>
<path d="M67.0398 64.3451C66.8589 64.3451 66.7038 64.3451 66.5229 64.3451C66.1611 62.9495 66.2386 62.8719 67.7892 63.2596C67.5825 63.6731 66.9622 63.8023 67.0398 64.3451Z" fill="#D43229"/>
<path d="M68.2024 52.095C67.8923 52.1208 67.6855 51.9916 67.6855 51.6815C67.6855 51.2938 67.9698 51.2163 68.3058 51.1904C68.5642 51.1904 68.8744 51.1904 68.8227 51.5522C68.771 51.8624 68.4867 52.0433 68.2024 52.095Z" fill="#C62E30"/>
<path d="M65.1528 52.7412C65.1011 52.767 65.0236 52.767 64.9719 52.7928C63.9123 52.6895 62.8268 52.5086 61.8706 53.2322C61.8964 52.431 62.5167 52.431 63.0594 52.4569C63.7572 52.4827 64.5067 52.2501 65.1528 52.7412Z" fill="#CA6925"/>
<path d="M56.7799 37.2088C56.3922 37.7515 56.1079 38.165 55.5135 38.0875C55.4618 38.0875 55.3843 37.8549 55.436 37.7773C55.6686 37.2088 56.2113 37.2346 56.7799 37.2088Z" fill="#C62E30"/>
<path d="M56.4438 40.6461C56.1595 40.2068 56.1337 39.8966 56.4696 39.5348C56.7539 39.8708 56.7539 40.1809 56.4438 40.6461Z" fill="#D43229"/>
<path d="M61.8708 47.0554C61.8708 47.2104 61.8708 47.3396 61.8708 47.4947C61.4832 47.3655 61.5349 47.2104 61.8708 47.0554Z" fill="#CA6925"/>
<path d="M65.6699 40.0776C65.6958 40.0518 65.6958 40.0001 65.7216 40.0001C65.7474 40.0001 65.7733 40.0259 65.825 40.0517C65.7991 40.0776 65.7991 40.1293 65.7733 40.1293C65.7475 40.1293 65.7216 40.1034 65.6699 40.0776Z" fill="#D43229"/>
<path d="M68.4096 11.3388C69.9086 11.3388 71.4075 11.3646 72.9065 11.3388C73.7335 11.3129 74.0695 11.6489 74.0695 12.4759C74.0436 13.9749 74.0436 15.4738 74.0695 16.9728C74.0953 17.8257 73.7593 18.2133 72.8548 18.2133C69.8569 18.1875 66.8331 18.1875 63.8352 18.2133C62.9565 18.2133 62.5947 17.8773 62.6205 16.9986C62.6722 15.4997 62.6722 14.0007 62.6205 12.5018C62.5947 11.6748 62.9306 11.3388 63.7577 11.3646C65.3342 11.3905 66.859 11.3646 68.4096 11.3388Z" fill="#D3A03A"/>
<path d="M155.168 46.0992C155.168 46.4352 155.168 46.797 155.168 47.133C155.168 48.787 154.909 48.9937 153.307 48.8645C152.609 48.8128 152.273 48.5285 152.299 47.8308C152.299 46.6161 152.325 45.4272 152.299 44.2126C152.273 43.1271 152.997 43.1271 153.772 43.1271C154.599 43.1013 155.245 43.2305 155.194 44.2901C155.142 44.9104 155.168 45.5048 155.168 46.0992Z" fill="#FAC306"/>
<path d="M163.723 46.0475C163.723 45.6857 163.723 45.3239 163.723 44.9362C163.929 45.2981 163.929 45.6599 163.723 46.0475Z" fill="#CA6925"/>
<path d="M42.7202 44.1609C42.7202 44.8846 42.7719 45.6082 42.6944 46.3319C42.6168 47.0555 42.1775 47.5207 41.428 47.4948C40.601 47.469 40.6785 46.797 40.6785 46.2543C40.7044 45.1947 40.4976 44.1093 40.8336 43.0755C40.9111 42.817 40.9628 42.5845 40.6785 42.4035C40.1875 42.1193 40.0583 41.7058 40.2909 41.2147C40.4976 40.8012 40.937 40.8529 41.3246 40.8529C41.9449 40.8529 42.4876 41.1372 42.591 41.7316C42.746 42.5328 42.7202 43.3339 42.7719 44.1609C42.7719 44.1351 42.746 44.1609 42.7202 44.1609Z" fill="#D3A03A"/>
<path d="M49.4917 64.5518C49.6985 64.526 49.8794 64.5001 50.0861 64.4485C52.0503 64.8103 52.0503 64.8103 52.0503 66.852C52.0503 67.4981 52.0503 68.1442 52.0503 68.7903C52.0244 70.2117 52.0244 70.2117 50.7581 69.5139C50.7064 69.6173 50.6288 69.7207 50.603 69.824C50.5771 70.16 51.1199 70.7027 50.2929 70.7544C49.6726 70.7803 49.4917 70.3409 49.4917 69.824C49.4917 68.3768 49.4917 66.9036 49.4917 65.4564C49.4917 65.1462 49.4917 64.862 49.4917 64.5518Z" fill="#FAC306"/>
<path d="M65.2567 65.6373C65.541 66.1542 65.541 66.6711 65.2567 67.188C65.2308 66.6711 65.2308 66.1542 65.2567 65.6373Z" fill="#D43228"/>
<path d="M65.2305 67.705C65.5148 68.2218 65.5148 68.7387 65.2305 69.2556C65.2305 68.7387 65.2305 68.2218 65.2305 67.705Z" fill="#D43228"/>
<path d="M42.7463 68.1701C42.7463 68.5577 42.7722 68.9454 42.7463 69.333C42.6688 69.9791 43.0564 70.8579 41.7901 70.8579C40.6271 70.8579 40.0327 70.5219 40.1361 69.2297C40.2136 68.2217 40.1619 67.188 40.1619 66.1542C40.1619 65.2755 40.7046 65.1205 41.4283 65.1205C42.126 65.1205 42.7463 65.198 42.7205 66.1284C42.7463 66.8003 42.7463 67.4981 42.7463 68.1701Z" fill="#FAC306"/>
<path d="M49.207 59.4089C49.2329 57.729 49.2587 56.0491 49.2329 54.3693C49.2329 53.3355 49.4396 52.6635 50.7318 52.6635C51.9982 52.6635 52.1274 53.3097 52.0757 54.2917C52.024 55.5064 52.024 56.6952 52.1016 57.9099C52.1791 59.0729 51.7656 59.6156 50.5509 59.4606C50.1374 59.4089 49.6981 59.4606 49.2587 59.4606C49.2587 59.4864 49.207 59.4089 49.207 59.4089Z" fill="#FAC306"/>
<path d="M65.7734 53.2322C66.3679 52.612 67.0915 52.5861 67.7893 52.8704C68.5646 53.1805 68.5904 53.9042 68.5904 54.6278C68.5904 55.7391 68.5388 56.8762 68.6163 57.9875C68.6938 59.1247 68.2028 59.564 67.0915 59.4607C66.678 59.409 66.2386 59.4607 65.7993 59.4607C65.7993 57.3673 65.7734 55.2998 65.7734 53.2322Z" fill="#FAC306"/>
<path d="M68.8226 41.3438C68.8226 41.5248 68.8226 41.7057 68.8226 41.8866C68.3574 43.1271 68.6675 44.4451 68.59 45.7115C68.5383 46.6419 68.3832 47.5206 67.2461 47.4947C66.1865 47.4689 66.0056 46.6419 66.0056 45.7373C66.0056 44.7811 66.0573 43.8507 65.9797 42.8945C65.9022 41.7315 66.3157 41.1888 67.5304 41.318C67.9697 41.3955 68.4091 41.3438 68.8226 41.3438Z" fill="#D3A03A"/>
</svg>
