<svg width="32" height="33" viewBox="0 0 32 33" fill="none" xmlns="http://www.w3.org/2000/svg">
<g clip-path="url(#clip0_55_36)">
<path d="M30.683 13.208C31.058 11.599 32.251 9.989 32.251 9.989H26.902C23.897 8.046 20.255 7.021 16.214 7.021C12.027 7.021 8.24595 8.062 5.26095 10.021H0.251953C0.251953 10.021 1.42795 11.604 1.80795 13.202C0.834953 14.546 0.251953 16.166 0.251953 17.947C0.251953 22.363 3.85095 25.958 8.26695 25.958C10.794 25.958 13.032 24.775 14.512 22.953L16.209 25.505L17.933 22.921C18.7102 23.9212 19.7178 24.7186 20.87 25.245C22.813 26.125 24.995 26.224 26.995 25.484C31.136 23.948 33.255 19.323 31.735 15.183C31.4735 14.474 31.11 13.807 30.656 13.203L30.683 13.208ZM26.453 23.973C25.6659 24.2678 24.8279 24.4027 23.9881 24.3697C23.1483 24.3368 22.3235 24.1366 21.562 23.781C20.4787 23.2788 19.5597 22.4804 18.911 21.478C18.639 21.078 18.411 20.645 18.239 20.182C18.04 19.655 17.947 19.114 17.895 18.562C17.796 17.453 17.952 16.333 18.431 15.291C18.7829 14.5263 19.2825 13.8386 19.901 13.2675C20.5195 12.6964 21.2447 12.2531 22.035 11.963C25.354 10.744 29.035 12.447 30.254 15.754C31.478 19.062 29.775 22.745 26.473 23.969H26.453V23.973ZM13.563 21.527C12.9771 22.3933 12.188 23.103 11.2647 23.594C10.3413 24.0851 9.31176 24.3426 8.26595 24.344C4.74095 24.344 1.86495 21.469 1.86495 17.948C1.86495 14.427 4.74095 11.547 8.26595 11.547C11.793 11.547 14.662 14.427 14.662 17.948C14.662 18.167 14.626 18.364 14.599 18.588C14.49 19.667 14.146 20.688 13.563 21.547V21.527ZM4.19695 17.864C4.19695 20.052 5.97795 21.823 8.16095 21.823C10.344 21.823 12.12 20.052 12.12 17.864C12.12 16.814 11.7028 15.807 10.9604 15.0646C10.2179 14.3221 9.21095 13.905 8.16095 13.905C7.11096 13.905 6.10397 14.3221 5.36152 15.0646C4.61906 15.807 4.20195 16.814 4.20195 17.864H4.19695ZM20.265 17.864C20.2642 18.6467 20.4956 19.4121 20.9299 20.0632C21.3643 20.7144 21.982 21.2221 22.705 21.522C23.4279 21.8219 24.2236 21.9007 24.9914 21.7482C25.7591 21.5958 26.4644 21.2191 27.0179 20.6657C27.5714 20.1123 27.9484 19.4071 28.101 18.6394C28.2536 17.8717 28.1751 17.076 27.8753 16.3529C27.5756 15.6299 27.0681 15.012 26.417 14.5775C25.766 14.143 25.0007 13.9114 24.218 13.912C23.1695 13.9131 22.1642 14.3295 21.4222 15.0703C20.6801 15.811 20.2619 16.8155 20.259 17.864H20.265ZM5.56795 17.864C5.56821 17.1781 5.84011 16.5202 6.32418 16.0343C6.80824 15.5483 7.46506 15.2739 8.15095 15.271C9.56795 15.271 10.75 16.438 10.75 17.864C10.75 18.554 10.4759 19.2157 9.98799 19.7035C9.50012 20.1914 8.83841 20.4655 8.14845 20.4655C7.45849 20.4655 6.79679 20.1914 6.30892 19.7035C5.82104 19.2157 5.54695 18.554 5.54695 17.864H5.56795ZM21.615 17.864C21.615 17.1763 21.8881 16.5167 22.3744 16.0305C22.8607 15.5442 23.5202 15.271 24.208 15.271C24.8878 15.2862 25.5346 15.5674 26.0094 16.0543C26.4841 16.5411 26.749 17.1948 26.747 17.8749C26.7451 18.5549 26.4765 19.207 25.9989 19.6911C25.5213 20.1753 24.8729 20.4528 24.193 20.464C23.8514 20.4644 23.5131 20.3974 23.1975 20.2669C22.8819 20.1364 22.5951 19.9449 22.3536 19.7034C22.1121 19.4618 21.9206 19.1751 21.7901 18.8594C21.6595 18.5438 21.5926 18.2055 21.593 17.864H21.615ZM16.208 8.421C19.088 8.421 21.688 8.937 23.969 9.969C23.1012 9.99194 22.2426 10.1537 21.426 10.448C20.4357 10.8071 19.5274 11.3608 18.7546 12.0764C17.9817 12.7921 17.36 13.6552 16.926 14.615C16.51 15.495 16.291 16.427 16.207 17.37C16.0593 15.3766 15.1737 13.5099 13.7231 12.1346C12.2726 10.7593 10.3614 9.97432 8.36295 9.933C10.644 8.954 13.291 8.422 16.15 8.422L16.208 8.421Z" fill="#3A1F17"/>
</g>
<defs>
<clipPath id="clip0_55_36">
<rect width="32" height="32" fill="white" transform="translate(0 0.5)"/>
</clipPath>
</defs>
</svg>
