<svg width="12" height="24" viewBox="0 0 12 24" fill="none" xmlns="http://www.w3.org/2000/svg">
<path d="M11.6858 22.138L2.46378 12.768C2.26152 12.5636 2.14808 12.2876 2.14808 12C2.14808 11.7124 2.26152 11.4365 2.46378 11.232L11.6838 1.86202C11.8859 1.65631 11.9992 1.37943 11.9992 1.09102C11.9992 0.802603 11.8859 0.525728 11.6838 0.320017C11.585 0.218719 11.467 0.138216 11.3366 0.0832481C11.2063 0.0282803 11.0662 -3.8147e-05 10.9248 -3.8147e-05C10.7833 -3.8147e-05 10.6433 0.0282803 10.5129 0.0832481C10.3826 0.138216 10.2645 0.218719 10.1658 0.320017L0.945779 9.68802C0.339927 10.3051 0.000488281 11.1353 0.000488281 12C0.000488281 12.8648 0.339927 13.695 0.945779 14.312L10.1658 23.68C10.2646 23.7816 10.3827 23.8624 10.5133 23.9175C10.6438 23.9727 10.7841 24.0011 10.9258 24.0011C11.0675 24.0011 11.2078 23.9727 11.3383 23.9175C11.4688 23.8624 11.587 23.7816 11.6858 23.68C11.8879 23.4743 12.0012 23.1974 12.0012 22.909C12.0012 22.6206 11.8879 22.3437 11.6858 22.138Z" fill="#E30104"/>
</svg>
