<svg width="384" height="258" viewBox="0 0 384 258" fill="none" xmlns="http://www.w3.org/2000/svg">
<rect x="0.598887" y="0.388739" width="261.98" height="39.3077" rx="15.5" transform="matrix(0.980092 -0.198543 0.217681 0.97602 0.956598 52.3411)" stroke="#3A1F17"/>
<path d="M27.5712 65.1957L31.438 64.4124C32.3951 64.2185 33.0722 63.8156 33.4693 63.2039C33.8791 62.5896 33.9905 61.863 33.8035 61.0242C33.6221 60.2109 33.2017 59.612 32.5424 59.2275C31.8931 58.8277 31.0643 58.73 30.0561 58.9342L26.3425 59.6865L27.5712 65.1957ZM27.7064 72.9785L24.522 58.7004L30.1116 57.5681C31.5154 57.2838 32.6788 57.4466 33.6018 58.0566C34.5219 58.6538 35.1053 59.5053 35.3519 60.6109C35.5758 61.6149 35.502 62.48 35.1304 63.2061C34.7588 63.9322 34.2852 64.44 33.7095 64.7293C34.3078 64.9003 34.7736 65.1645 35.1067 65.5221C35.4399 65.8797 35.7638 66.4051 36.0785 67.0985C36.4032 67.7766 36.6271 68.2426 36.7505 68.4965C36.8837 68.7352 37.0935 69.0779 37.3799 69.5246C37.679 69.9688 38.015 70.3988 38.3879 70.8147L36.6651 71.1637C36.3574 70.801 36.0633 70.409 35.7826 69.9877C35.5118 69.5511 35.3055 69.1944 35.1638 68.9176C35.0192 68.6281 34.7966 68.1684 34.4961 67.5386C34.1715 66.8605 33.7915 66.3531 33.3562 66.0162C32.9337 65.6767 32.3524 65.582 31.6122 65.7319L27.8603 66.4919L29.2378 72.6683L27.7064 72.9785ZM39.2689 66.8706L37.7851 60.2177L39.2782 59.9152L40.694 66.2631C41.1418 68.2711 42.1059 69.1251 43.5862 68.8252C44.4923 68.6417 45.1035 68.1526 45.4198 67.358C45.7488 66.5608 45.8071 65.6856 45.5945 64.7325L44.2935 58.8992L45.7483 58.6045L48.0357 68.8603L46.6191 69.1473L46.2493 67.4888C46.2407 67.9289 46.0194 68.432 45.5855 68.998C45.1643 69.5615 44.4752 69.9402 43.518 70.1341C42.5354 70.3332 41.6513 70.1669 40.8659 69.6353C40.0903 69.0885 39.558 68.1669 39.2689 66.8706ZM49.8247 66.386L50.7904 65.5129C51.8069 66.5423 52.9597 66.9264 54.2486 66.6653C55.027 66.5076 55.6148 66.2424 56.0119 65.8698C56.4217 65.4945 56.5671 65.04 56.448 64.5063C56.397 64.2775 56.2942 64.0858 56.1397 63.9312C55.9823 63.7638 55.8207 63.6372 55.6548 63.5512C55.4988 63.45 55.233 63.3644 54.8573 63.2944C54.4787 63.2117 54.1674 63.1618 53.9236 63.1448C53.6896 63.1125 53.299 63.0654 52.7517 63.0036C52.2738 62.9543 51.8598 62.8921 51.5096 62.8169C51.1594 62.7418 50.7865 62.6247 50.3909 62.4658C49.9925 62.2941 49.6593 62.0561 49.3913 61.7517C49.1361 61.4448 48.9589 61.0689 48.8597 60.6241C48.6698 59.7726 48.8599 59.0102 49.43 58.3369C50.0001 57.6635 50.8849 57.2053 52.0845 56.9623C52.9268 56.7917 53.7485 56.8577 54.5496 57.1603C55.3507 57.4629 55.9709 57.8818 56.4104 58.4171L55.5596 59.2669C55.1924 58.8764 54.7181 58.574 54.1368 58.3597C53.5654 58.1301 52.9734 58.0773 52.3609 58.2014C51.5824 58.3591 51.023 58.6318 50.6827 59.0195C50.3522 59.392 50.2437 59.8324 50.3571 60.3407C50.4223 60.633 50.5584 60.8844 50.7654 61.0948C50.9695 61.2926 51.2446 61.4494 51.5906 61.5652C51.9464 61.6658 52.2633 61.7411 52.5412 61.7911C52.8291 61.8257 53.2055 61.869 53.6706 61.9209C54.0662 61.9603 54.4157 62.0024 54.7191 62.0472C55.0353 62.0894 55.3856 62.1646 55.7698 62.2727C56.154 62.3808 56.4837 62.5133 56.7588 62.6701C57.031 62.8142 57.2777 63.0232 57.4988 63.2972C57.7172 63.5585 57.8646 63.8607 57.9411 64.2038C58.1225 65.0172 57.9119 65.7771 57.3092 66.4836C56.7164 67.1749 55.7883 67.6485 54.5249 67.9044C53.6061 68.0905 52.744 68.0527 51.9386 67.7907C51.1305 67.5161 50.4258 67.0479 49.8247 66.386ZM59.415 64.4432L60.3807 63.5701C61.3973 64.5995 62.55 64.9836 63.8389 64.7225C64.6174 64.5648 65.2051 64.2997 65.6022 63.927C66.012 63.5518 66.1574 63.0973 66.0384 62.5635C65.9874 62.3348 65.8846 62.1431 65.73 61.9884C65.5727 61.821 65.411 61.6944 65.2452 61.6084C65.0892 61.5072 64.8233 61.4216 64.4476 61.3516C64.069 61.2689 63.7578 61.219 63.5139 61.202C63.28 61.1697 62.8893 61.1227 62.342 61.0609C61.8642 61.0116 61.4502 60.9493 61.0999 60.8742C60.7497 60.799 60.3768 60.6819 59.9812 60.523C59.5828 60.3513 59.2496 60.1133 58.9817 59.809C58.7265 59.502 58.5493 59.1261 58.4501 58.6813C58.2602 57.8299 58.4503 57.0674 59.0204 56.3941C59.5904 55.7207 60.4753 55.2625 61.6749 55.0195C62.5171 54.8489 63.3388 54.9149 64.1399 55.2175C64.941 55.5201 65.5613 55.9391 66.0008 56.4743L65.1499 57.3241C64.7827 56.9336 64.3085 56.6312 63.7272 56.4169C63.1558 56.1873 62.5638 56.1345 61.9512 56.2586C61.1728 56.4163 60.6134 56.689 60.273 57.0768C59.9426 57.4492 59.8341 57.8896 59.9475 58.3979C60.0126 58.6902 60.1487 58.9416 60.3557 59.152C60.5599 59.3498 60.8349 59.5066 61.1809 59.6225C61.5368 59.723 61.8537 59.7983 62.1316 59.8483C62.4194 59.8829 62.7959 59.9262 63.261 59.9781C63.6566 60.0175 64.0061 60.0596 64.3095 60.1044C64.6257 60.1466 64.9759 60.2218 65.3602 60.3299C65.7444 60.438 66.0741 60.5705 66.3491 60.7273C66.6213 60.8714 66.868 61.0804 67.0892 61.3544C67.3075 61.6157 67.455 61.9179 67.5315 62.261C67.7129 63.0744 67.5022 63.8343 66.8995 64.5409C66.3068 65.2321 65.3787 65.7057 64.1153 65.9616C63.1964 66.1478 62.3344 66.1099 61.529 65.848C60.7208 65.5734 60.0162 65.1051 59.415 64.4432ZM67.6497 51.757L67.2203 49.8316L69.0962 49.4516L69.5256 51.377L67.6497 51.757ZM70.6812 64.2729L68.3938 54.0171L69.8487 53.7224L72.136 63.9782L70.6812 64.2729ZM75.7415 60.4983C75.8492 60.9812 76.1455 61.3529 76.6304 61.6133C77.1124 61.861 77.7108 61.9124 78.4255 61.7677C79.3315 61.5841 80.0384 61.1354 80.5461 60.4216C81.0666 59.7051 81.2262 58.8957 81.0249 57.9934L80.7061 56.5637C80.1757 56.8173 79.3193 57.1634 78.1367 57.6022C77.181 57.9818 76.5081 58.4037 76.1181 58.8679C75.7281 59.3321 75.6026 59.8756 75.7415 60.4983ZM74.2739 60.9151C73.8487 59.0088 75.0655 57.5271 77.9241 56.4698C79.2031 55.9849 80.044 55.6286 80.4467 55.4009L80.3149 54.8099C80.1732 54.1745 79.8259 53.6936 79.2729 53.3673C78.72 53.041 78.0224 52.9631 77.1801 53.1338C76.5675 53.2579 76.0067 53.5242 75.4976 53.9329C74.9985 54.3262 74.605 54.8044 74.317 55.3675L73.1814 54.7607C73.5614 54.0727 74.0677 53.472 74.7002 52.9587C75.3454 52.4428 76.07 52.1034 76.874 51.9406C79.6305 51.3822 81.3078 52.4437 81.9058 55.1252L83.3726 61.7019L81.9561 61.9889L81.5819 60.3114C81.4996 60.8992 81.1848 61.4611 80.6374 61.997C80.0872 62.5202 79.3782 62.8697 78.5104 63.0455C77.3746 63.2756 76.4281 63.1884 75.671 62.7839C74.9267 62.3768 74.4609 61.7539 74.2739 60.9151ZM91.3043 57.3456C91.412 57.8286 91.7083 58.2002 92.1932 58.4606C92.6752 58.7083 93.2736 58.7598 93.9882 58.615C94.8943 58.4315 95.6012 57.9828 96.1089 57.2689C96.6294 56.5525 96.789 55.7431 96.5877 54.8408L96.2689 53.4111C95.7385 53.6646 94.8821 54.0108 93.6995 54.4496C92.7437 54.8292 92.0709 55.251 91.6809 55.7152C91.2909 56.1795 91.1654 56.7229 91.3043 57.3456ZM89.8367 57.7625C89.4115 55.8562 90.6283 54.3744 93.4869 53.3171C94.7659 52.8322 95.6068 52.4759 96.0095 52.2482L95.8777 51.6573C95.736 51.0219 95.3887 50.541 94.8357 50.2147C94.2828 49.8884 93.5852 49.8105 92.7429 49.9811C92.1303 50.1052 91.5695 50.3716 91.0604 50.7802C90.5613 51.1735 90.1677 51.6517 89.8798 52.2148L88.7442 51.6081C89.1242 50.9201 89.6305 50.3194 90.263 49.8061C90.9082 49.2902 91.6328 48.9508 92.4368 48.7879C95.1933 48.2295 96.8705 49.2911 97.4686 51.9726L98.9354 58.5493L97.5189 58.8362L97.1447 57.1587C97.0624 57.7465 96.7476 58.3084 96.2002 58.8444C95.65 59.3676 94.941 59.7171 94.0732 59.8929C92.9374 60.123 91.9909 60.0358 91.2338 59.6313C90.4895 59.2242 90.0237 58.6012 89.8367 57.7625ZM101.902 57.9482L99.6151 47.6924L101.07 47.3977L101.461 49.1515L101.48 49.1476C101.52 48.6082 101.79 48.0554 102.291 47.4891C102.791 46.9228 103.456 46.5556 104.286 46.3876C105.243 46.1937 106.094 46.3333 106.84 46.8066C107.599 47.2772 108.14 48.2369 108.463 49.6857L109.942 56.3196L108.449 56.622L107.025 50.236C106.583 48.2534 105.647 47.4069 104.218 47.6965C103.426 47.8567 102.815 48.3128 102.382 49.0645C101.949 49.8163 101.832 50.637 102.031 51.5266L103.396 57.6458L101.902 57.9482ZM111.053 50.715C110.676 49.0248 110.788 47.614 111.39 46.4827C111.988 45.3387 112.913 44.64 114.163 44.3866C114.916 44.2341 115.615 44.3183 116.26 44.6392C116.918 44.9576 117.425 45.3731 117.779 45.8857L116.363 39.5378L117.818 39.2431L121.121 54.0549L119.705 54.3419L119.293 52.4928C119.166 53.1825 118.869 53.7939 118.401 54.3271C117.943 54.8449 117.344 55.1788 116.604 55.3287C116.081 55.4347 115.546 55.4301 115 55.3149C114.47 55.2098 113.942 54.9978 113.418 54.6791C112.903 54.345 112.431 53.8429 112.001 53.1728C111.582 52.4874 111.266 51.6681 111.053 50.715ZM112.546 50.4125C112.833 51.6961 113.343 52.6686 114.077 53.3301C114.812 53.9916 115.626 54.2318 116.519 54.0509C117.348 53.8828 117.965 53.3594 118.369 52.4805C118.784 51.5864 118.846 50.4912 118.557 49.1949C118.271 47.9113 117.749 46.9478 116.992 46.3042C116.248 45.658 115.461 45.4189 114.631 45.5869C113.725 45.7705 113.078 46.3067 112.689 47.1957C112.31 48.0694 112.263 49.1417 112.546 50.4125ZM126.959 45.4208C126.44 43.0951 126.6 41.1501 127.438 39.5856C128.276 38.0211 129.601 37.0553 131.413 36.6882C132.536 36.4607 133.557 36.5795 134.474 37.0445C135.401 37.4942 136.158 38.1048 136.743 38.8761L135.543 39.5973C134.348 38.2455 133.055 37.7105 131.664 37.9922C130.286 38.2714 129.315 39.0593 128.75 40.3558C128.183 41.6396 128.109 43.222 128.528 45.1028C128.953 47.0091 129.704 48.4311 130.78 49.3687C131.853 50.2936 133.066 50.619 134.419 50.345C135.274 50.1718 135.968 49.7854 136.502 49.186C137.032 48.5738 137.379 47.8859 137.542 47.1223L139.018 47.2815C138.791 48.2972 138.336 49.2194 137.654 50.0483C136.969 50.8645 136.001 51.3992 134.751 51.6526C132.951 52.0171 131.33 51.6548 129.887 50.5658C128.453 49.4615 127.477 47.7465 126.959 45.4208ZM142.216 49.7816L139.032 35.5035L140.563 35.1933L143.748 49.4714L142.216 49.7816ZM145.886 46.229L147.192 45.4464C148.376 46.7474 149.867 47.2156 151.667 46.8511C152.662 46.6495 153.418 46.2438 153.936 45.6342C154.454 45.0246 154.619 44.3005 154.432 43.4617C154.338 43.0423 154.167 42.6918 153.917 42.4103C153.665 42.1161 153.314 41.8883 152.865 41.727C152.428 41.5631 152.028 41.4448 151.665 41.3723C151.302 41.2997 150.812 41.2262 150.195 41.152C149.702 41.0925 149.352 41.0504 149.147 41.0257C148.941 41.0009 148.609 40.9486 148.151 40.8687C147.706 40.7862 147.367 40.7021 147.135 40.6163C146.915 40.528 146.634 40.4056 146.293 40.249C145.948 40.0797 145.68 39.8949 145.489 39.6946C145.31 39.4917 145.128 39.243 144.942 38.9486C144.766 38.6388 144.637 38.2997 144.555 37.9311C144.303 36.8001 144.536 35.8098 145.253 34.9605C145.968 34.0984 147.053 33.5201 148.508 33.2253C149.618 33.0004 150.638 33.0594 151.568 33.4023C152.511 33.7426 153.246 34.2578 153.773 34.948L152.574 35.6692C151.549 34.6017 150.277 34.2217 148.758 34.5294C147.763 34.731 147.034 35.1111 146.572 35.6697C146.109 36.2282 145.961 36.876 146.125 37.6131C146.199 37.9436 146.345 38.2394 146.563 38.5007C146.778 38.7493 146.995 38.9444 147.214 39.0861C147.442 39.2126 147.783 39.3361 148.237 39.4567C148.7 39.562 149.057 39.6359 149.306 39.6783C149.566 39.7054 149.984 39.7537 150.559 39.823C150.695 39.8353 150.798 39.8477 150.868 39.8602C151.538 39.9368 152.105 40.0278 152.569 40.1331C153.033 40.2385 153.523 40.4047 154.041 40.632C154.558 40.8592 154.977 41.1796 155.296 41.5932C155.624 41.9914 155.856 42.4892 155.989 43.0865C156.275 44.3701 156.046 45.4658 155.301 46.3738C154.567 47.2664 153.44 47.8666 151.922 48.1742C150.62 48.4379 149.455 48.3883 148.427 48.0254C147.399 47.6624 146.552 47.0636 145.886 46.229ZM162.091 40.3959C161.728 38.7692 161.85 37.3698 162.455 36.1978C163.058 35.0131 164.061 34.2785 165.465 33.9941C166.384 33.808 167.228 33.9159 167.998 34.3178C168.778 34.7044 169.357 35.238 169.736 35.9184L168.553 36.5365C168.248 36.067 167.841 35.7046 167.33 35.4493C166.833 35.1915 166.303 35.1195 165.741 35.2332C164.797 35.4245 164.133 35.9774 163.751 36.8918C163.368 37.8062 163.312 38.8734 163.584 40.0934C163.873 41.3897 164.396 42.3596 165.154 43.0032C165.911 43.6468 166.736 43.8781 167.629 43.6972C168.229 43.5757 168.729 43.2752 169.129 42.7957C169.539 42.3009 169.789 41.7786 169.88 41.2289L171.232 41.3733C171.134 42.1901 170.789 42.9441 170.196 43.6354C169.613 44.3113 168.85 44.7449 167.906 44.9362C166.54 45.2129 165.319 44.9421 164.243 44.1241C163.18 43.3034 162.462 42.0607 162.091 40.3959ZM173.423 38.1002C173.713 39.3965 174.242 40.3651 175.012 41.0061C175.782 41.6472 176.613 41.8772 177.507 41.6962C178.387 41.5178 179.042 40.9866 179.472 40.1026C179.915 39.216 179.991 38.1246 179.702 36.8283C179.407 35.5066 178.87 34.5329 178.09 33.9072C177.311 33.2815 176.487 33.0565 175.619 33.2323C174.738 33.4107 174.075 33.9368 173.63 34.8107C173.198 35.682 173.129 36.7785 173.423 38.1002ZM171.93 38.4027C171.582 36.8395 171.693 35.4555 172.265 34.2505C172.849 33.0429 173.875 32.2905 175.343 31.9932C176.797 31.6985 178.049 31.9895 179.099 32.8661C180.148 33.7428 180.847 34.9627 181.195 36.5258C181.343 37.1867 181.396 37.8466 181.357 38.5055C181.33 39.1618 181.198 39.7994 180.963 40.4182C180.737 41.0218 180.349 41.5521 179.797 42.0092C179.258 42.4637 178.587 42.7724 177.783 42.9353C176.992 43.0956 176.248 43.0802 175.552 42.8892C174.866 42.6828 174.284 42.349 173.808 41.8876C173.342 41.4109 172.95 40.8793 172.632 40.2928C172.314 39.7063 172.081 39.0762 171.93 38.4027ZM183.794 37.5933L182.31 30.9403L183.804 30.6379L185.219 36.9858C185.667 38.9938 186.631 39.8478 188.112 39.5479C189.018 39.3644 189.629 38.8753 189.945 38.0807C190.274 37.2835 190.332 36.4083 190.12 35.4551L188.819 29.6219L190.274 29.3272L192.561 39.583L191.144 39.87L190.775 38.2115C190.766 38.6516 190.545 39.1546 190.111 39.7207C189.69 40.2842 189 40.6629 188.043 40.8568C187.061 41.0559 186.177 40.8896 185.391 40.358C184.616 39.8111 184.083 38.8896 183.794 37.5933ZM195.643 38.9587L193.356 28.7028L194.81 28.4081L195.202 30.1619L195.221 30.158C195.26 29.6187 195.531 29.0658 196.031 28.4995C196.532 27.9332 197.197 27.5661 198.026 27.398C198.983 27.2041 199.835 27.3438 200.581 27.817C201.339 28.2876 201.88 29.2473 202.203 30.6961L203.683 37.33L202.19 37.6325L200.765 31.2464C200.323 29.2639 199.387 28.4174 197.958 28.7069C197.167 28.8672 196.555 29.3232 196.122 30.075C195.69 30.8267 195.573 31.6474 195.771 32.537L197.136 38.6562L195.643 38.9587ZM203.375 27.9681L203.099 26.7291L204.898 26.3645L204.167 23.0857L205.66 22.7833L206.392 26.0621L209.11 25.5114L209.386 26.7505L206.668 27.3012L208.007 33.306C208.149 33.9414 208.371 34.368 208.673 34.5858C208.975 34.8035 209.394 34.8581 209.93 34.7495L211.117 34.5091L211.397 35.7673L210.019 36.0465C208.13 36.4291 206.972 35.6609 206.544 33.7419L205.175 27.6036L203.375 27.9681ZM213.522 35.3368L211.235 25.081L212.651 24.794L212.983 26.2809C213.085 25.7821 213.33 25.2942 213.717 24.8173C214.104 24.3404 214.668 24.0269 215.408 23.877C215.956 23.7658 216.461 23.7565 216.922 23.8492L217.22 25.1836C216.721 25.0987 216.216 25.108 215.705 25.2114C214.838 25.3872 214.233 25.8483 213.893 26.5946C213.553 27.341 213.501 28.248 213.74 29.3155L215.015 35.0344L213.522 35.3368ZM218.052 21.2892L217.622 19.3638L219.498 18.9838L219.928 20.9092L218.052 21.2892ZM221.083 33.8051L218.796 23.5493L220.251 23.2545L222.538 33.5104L221.083 33.8051ZM224.115 27.7517C223.758 26.1504 223.902 24.7662 224.549 23.5992C225.193 22.4194 226.204 21.6899 227.582 21.4107C228.986 21.1263 230.199 21.392 231.221 22.2077C232.241 23.0107 232.919 24.1683 233.256 25.6807C233.296 25.8586 233.34 26.1153 233.388 26.4509L225.731 28.002C225.961 29.0314 226.445 29.8565 227.184 30.4773C227.922 31.0981 228.802 31.305 229.823 31.0982C230.487 30.9638 231.04 30.6924 231.482 30.2839C231.922 29.8628 232.224 29.3633 232.388 28.7854L233.737 28.9107C233.585 29.7251 233.205 30.4462 232.598 31.0739C231.992 31.7016 231.158 32.1227 230.099 32.3373C228.67 32.6268 227.408 32.3512 226.313 31.5103C225.219 30.6694 224.486 29.4165 224.115 27.7517ZM225.519 26.8696L231.682 25.6209C231.459 24.617 230.996 23.8274 230.294 23.2523C229.589 22.6645 228.777 22.4637 227.859 22.6498C226.927 22.8385 226.253 23.3469 225.838 24.1749C225.435 25.0003 225.329 25.8986 225.519 26.8696ZM235.506 28.7714L236.472 27.8983C237.488 28.9277 238.641 29.3118 239.93 29.0507C240.709 28.893 241.296 28.6279 241.693 28.2552C242.103 27.88 242.249 27.4255 242.13 26.8917C242.079 26.663 241.976 26.4712 241.821 26.3166C241.664 26.1492 241.502 26.0226 241.336 25.9366C241.18 25.8354 240.915 25.7498 240.539 25.6798C240.16 25.5971 239.849 25.5472 239.605 25.5302C239.371 25.4979 238.981 25.4509 238.433 25.3891C237.955 25.3398 237.541 25.2775 237.191 25.2024C236.841 25.1272 236.468 25.0101 236.072 24.8512C235.674 24.6795 235.341 24.4415 235.073 24.1371C234.818 23.8302 234.64 23.4543 234.541 23.0095C234.351 22.1581 234.541 21.3956 235.112 20.7223C235.682 20.0489 236.566 19.5907 237.766 19.3477C238.608 19.1771 239.43 19.2431 240.231 19.5457C241.032 19.8483 241.652 20.2673 242.092 20.8025L241.241 21.6523C240.874 21.2618 240.4 20.9594 239.818 20.7451C239.247 20.5155 238.655 20.4627 238.042 20.5868C237.264 20.7445 236.705 21.0172 236.364 21.405C236.034 21.7774 235.925 22.2178 236.039 22.7261C236.104 23.0184 236.24 23.2698 236.447 23.4802C236.651 23.678 236.926 23.8348 237.272 23.9507C237.628 24.0512 237.945 24.1265 238.223 24.1765C238.511 24.2111 238.887 24.2544 239.352 24.3063C239.748 24.3457 240.097 24.3878 240.401 24.4326C240.717 24.4748 241.067 24.55 241.451 24.6581C241.836 24.7662 242.165 24.8987 242.44 25.0555C242.713 25.1996 242.959 25.4086 243.18 25.6826C243.399 25.9439 243.546 26.2461 243.623 26.5892C243.804 27.4026 243.593 28.1625 242.991 28.8691C242.398 29.5603 241.47 30.0339 240.206 30.2898C239.288 30.476 238.426 30.4381 237.62 30.1762C236.812 29.9016 236.107 29.4333 235.506 28.7714Z" fill="#3A1F17"/>
<rect x="281.501" y="16.186" width="73.1102" height="39.22" rx="15.5" stroke="#3A1F17"/>
<path d="M300.049 36.0029V26.667H301.611V35.9639C301.611 37.4222 301.943 38.5094 302.607 39.2256C303.285 39.9417 304.15 40.2998 305.205 40.2998C306.286 40.2998 307.158 39.9352 307.822 39.2061C308.499 38.4639 308.838 37.3831 308.838 35.9639V26.667H310.4V36.0029C310.4 37.7738 309.951 39.1605 309.053 40.1631C308.154 41.1527 306.872 41.6475 305.205 41.6475C303.577 41.6475 302.308 41.1592 301.396 40.1826C300.498 39.2061 300.049 37.8128 300.049 36.0029ZM313.154 38.542L314.6 38.0342C315.472 39.5446 316.826 40.2998 318.662 40.2998C319.678 40.2998 320.505 40.0524 321.143 39.5576C321.781 39.0628 322.1 38.3857 322.1 37.5264C322.1 37.0967 322.008 36.7191 321.826 36.3936C321.644 36.055 321.351 35.762 320.947 35.5146C320.557 35.2673 320.192 35.0719 319.854 34.9287C319.515 34.7855 319.053 34.6162 318.467 34.4209C317.998 34.2646 317.666 34.154 317.471 34.0889C317.275 34.0238 316.963 33.9066 316.533 33.7373C316.117 33.568 315.804 33.4183 315.596 33.2881C315.4 33.1579 315.153 32.9821 314.854 32.7607C314.554 32.5264 314.333 32.292 314.189 32.0576C314.059 31.8232 313.936 31.5433 313.818 31.2178C313.714 30.8792 313.662 30.5212 313.662 30.1436C313.662 28.9847 314.105 28.0602 314.99 27.3701C315.876 26.667 317.061 26.3154 318.545 26.3154C319.678 26.3154 320.661 26.5758 321.494 27.0967C322.34 27.6175 322.946 28.2686 323.311 29.0498L321.982 29.5186C321.214 28.2686 320.055 27.6436 318.506 27.6436C317.49 27.6436 316.696 27.8714 316.123 28.3271C315.55 28.7829 315.264 29.3883 315.264 30.1436C315.264 30.4821 315.342 30.8011 315.498 31.1006C315.654 31.387 315.824 31.6214 316.006 31.8037C316.201 31.973 316.507 32.1618 316.924 32.3701C317.354 32.5654 317.686 32.7087 317.92 32.7998C318.167 32.8779 318.564 33.0081 319.111 33.1904C319.242 33.2295 319.339 33.262 319.404 33.2881C320.042 33.4964 320.576 33.6982 321.006 33.8936C321.436 34.0889 321.878 34.3493 322.334 34.6748C322.79 35.0003 323.128 35.3975 323.35 35.8662C323.584 36.3219 323.701 36.8558 323.701 37.4678C323.701 38.7829 323.239 39.8115 322.314 40.5537C321.403 41.2829 320.173 41.6475 318.623 41.6475C317.295 41.6475 316.169 41.3675 315.244 40.8076C314.32 40.2477 313.623 39.4925 313.154 38.542ZM328.447 35.8271H333.955L332.236 30.9053C332.132 30.6058 331.963 30.1305 331.729 29.4795C331.507 28.8154 331.351 28.3532 331.26 28.0928H331.143C330.596 29.6943 330.277 30.6318 330.186 30.9053L328.447 35.8271ZM324.775 41.2959L330.244 26.667H332.158L337.627 41.2959H335.908L334.424 37.0771H327.979L326.494 41.2959H324.775Z" fill="#3A1F17"/>
<rect x="0.598887" y="0.388739" width="282.526" height="39.3077" rx="15.5" transform="matrix(0.980092 -0.198543 0.217681 0.97602 -0.0726984 132.364)" stroke="#3A1F17"/>
<path d="M24.6525 148.052C24.2897 146.425 24.4111 145.025 25.0167 143.853C25.6194 142.669 26.6227 141.934 28.0265 141.65C28.9453 141.464 29.7897 141.572 30.5596 141.974C31.3394 142.36 31.9185 142.894 32.297 143.574L31.1144 144.192C30.8096 143.723 30.402 143.36 29.8916 143.105C29.3939 142.847 28.8643 142.775 28.3028 142.889C27.3585 143.08 26.6948 143.633 26.3119 144.547C25.9289 145.462 25.8735 146.529 26.1456 147.749C26.4347 149.045 26.9578 150.015 27.7149 150.659C28.472 151.302 29.2972 151.534 30.1905 151.353C30.7903 151.231 31.2902 150.931 31.6901 150.451C32.0999 149.957 32.3502 149.434 32.4411 148.885L33.7937 149.029C33.6958 149.846 33.3505 150.6 32.7577 151.291C32.1748 151.967 31.4112 152.401 30.4669 152.592C29.1014 152.869 27.8806 152.598 26.8045 151.78C25.7411 150.959 25.0238 149.716 24.6525 148.052ZM35.9848 145.756C36.2739 147.052 36.8034 148.021 37.5733 148.662C38.3431 149.303 39.1747 149.533 40.068 149.352C40.9486 149.174 41.6037 148.642 42.0334 147.758C42.4759 146.872 42.5526 145.78 42.2635 144.484C41.9687 143.162 41.4315 142.189 40.6517 141.563C39.8719 140.937 39.0481 140.712 38.1803 140.888C37.2998 141.066 36.6368 141.593 36.1915 142.466C35.7589 143.338 35.69 144.434 35.9848 145.756ZM34.4917 146.058C34.1431 144.495 34.2545 143.111 34.8261 141.906C35.4104 140.699 36.4364 139.946 37.904 139.649C39.3588 139.354 40.6108 139.645 41.6599 140.522C42.7091 141.398 43.408 142.618 43.7566 144.182C43.904 144.842 43.9578 145.502 43.918 146.161C43.891 146.817 43.7598 147.455 43.5244 148.074C43.2988 148.678 42.9103 149.208 42.3586 149.665C41.8198 150.119 41.1484 150.428 40.3444 150.591C39.5531 150.751 38.8094 150.736 38.1133 150.545C37.427 150.339 36.8457 150.005 36.3693 149.543C35.9029 149.067 35.5109 148.535 35.1934 147.948C34.8758 147.362 34.6419 146.732 34.4917 146.058ZM46.3556 145.249L44.8718 138.596L46.3649 138.294L47.7806 144.642C48.2285 146.649 49.1926 147.503 50.6729 147.204C51.579 147.02 52.1902 146.531 52.5065 145.736C52.8355 144.939 52.8938 144.064 52.6812 143.111L51.3802 137.278L52.835 136.983L55.1224 147.239L53.7058 147.526L53.3359 145.867C53.3274 146.307 53.1061 146.81 52.6722 147.376C52.251 147.94 51.5618 148.319 50.6047 148.513C49.6221 148.712 48.738 148.545 47.9525 148.014C47.177 147.467 46.6447 146.545 46.3556 145.249ZM58.2043 146.614L55.9169 136.359L57.3718 136.064L57.7629 137.818L57.7821 137.814C57.8218 137.274 58.092 136.722 58.5926 136.155C59.0932 135.589 59.7582 135.222 60.5877 135.054C61.5449 134.86 62.3963 134.999 63.1421 135.473C63.9006 135.943 64.4414 136.903 64.7646 138.352L66.2441 144.986L64.751 145.288L63.3267 138.902C62.8846 136.92 61.9488 136.073 60.5195 136.363C59.7283 136.523 59.1164 136.979 58.6839 137.731C58.2513 138.482 58.1342 139.303 58.3326 140.193L59.6974 146.312L58.2043 146.614ZM65.9368 135.624L65.6604 134.385L67.4598 134.02L66.7286 130.741L68.2217 130.439L68.9529 133.718L71.6712 133.167L71.9475 134.406L69.2293 134.957L70.5685 140.962C70.7103 141.597 70.9321 142.024 71.2341 142.241C71.5361 142.459 71.9551 142.514 72.4911 142.405L73.6779 142.165L73.9585 143.423L72.5803 143.702C70.6915 144.085 69.5332 143.317 69.1052 141.398L67.7362 135.259L65.9368 135.624ZM76.0833 142.993L73.796 132.737L75.2125 132.45L75.5441 133.937C75.6463 133.438 75.8909 132.95 76.2781 132.473C76.6652 131.996 77.2289 131.683 77.9691 131.533C78.5178 131.422 79.0226 131.412 79.4834 131.505L79.781 132.839C79.2819 132.754 78.7771 132.764 78.2667 132.867C77.3989 133.043 76.7948 133.504 76.4544 134.25C76.114 134.997 76.0629 135.904 76.301 136.971L77.5764 142.69L76.0833 142.993ZM80.6131 128.945L80.1837 127.02L82.0596 126.64L82.489 128.565L80.6131 128.945ZM83.6446 141.461L81.3572 131.205L82.8121 130.91L85.0994 141.166L83.6446 141.461ZM86.6761 135.407C86.319 133.806 86.4637 132.422 87.1104 131.255C87.7543 130.075 88.7654 129.346 90.1436 129.066C91.5474 128.782 92.7604 129.048 93.7827 129.863C94.802 130.666 95.4804 131.824 95.8177 133.336C95.8574 133.514 95.9013 133.771 95.9495 134.107L88.2925 135.658C88.5221 136.687 89.0062 137.512 89.7449 138.133C90.4835 138.754 91.3633 138.961 92.3843 138.754C93.0479 138.619 93.6009 138.348 94.0433 137.94C94.4829 137.519 94.785 137.019 94.9496 136.441L96.298 136.566C96.1462 137.381 95.7668 138.102 95.1599 138.73C94.5529 139.357 93.7198 139.778 92.6606 139.993C91.2313 140.283 89.9694 140.007 88.8749 139.166C87.7803 138.325 87.0474 137.072 86.6761 135.407ZM88.0799 134.525L94.2438 133.277C94.0199 132.273 93.557 131.483 92.8552 130.908C92.1506 130.32 91.3388 130.119 90.42 130.305C89.4884 130.494 88.8148 131.003 88.3993 131.831C87.9965 132.656 87.89 133.554 88.0799 134.525ZM98.0676 136.427L99.0333 135.554C100.05 136.583 101.203 136.968 102.491 136.706C103.27 136.549 103.858 136.284 104.255 135.911C104.665 135.536 104.81 135.081 104.691 134.547C104.64 134.319 104.537 134.127 104.383 133.972C104.225 133.805 104.064 133.678 103.898 133.592C103.742 133.491 103.476 133.405 103.1 133.335C102.722 133.253 102.41 133.203 102.166 133.186C101.933 133.154 101.542 133.107 100.995 133.045C100.517 132.995 100.103 132.933 99.7525 132.858C99.4023 132.783 99.0294 132.666 98.6338 132.507C98.2354 132.335 97.9022 132.097 97.6342 131.793C97.379 131.486 97.2018 131.11 97.1026 130.665C96.9127 129.814 97.1028 129.051 97.6729 128.378C98.243 127.705 99.1278 127.246 100.327 127.003C101.17 126.833 101.991 126.899 102.792 127.201C103.594 127.504 104.214 127.923 104.653 128.458L103.802 129.308C103.435 128.917 102.961 128.615 102.38 128.401C101.808 128.171 101.216 128.118 100.604 128.243C99.8253 128.4 99.2659 128.673 98.9256 129.061C98.5951 129.433 98.4866 129.873 98.6 130.382C98.6652 130.674 98.8013 130.925 99.0083 131.136C99.2124 131.334 99.4875 131.49 99.8334 131.606C100.189 131.707 100.506 131.782 100.784 131.832C101.072 131.867 101.448 131.91 101.913 131.962C102.309 132.001 102.659 132.044 102.962 132.088C103.278 132.131 103.628 132.206 104.013 132.314C104.397 132.422 104.727 132.554 105.002 132.711C105.274 132.855 105.521 133.064 105.742 133.338C105.96 133.6 106.107 133.902 106.184 134.245C106.365 135.058 106.155 135.818 105.552 136.525C104.959 137.216 104.031 137.69 102.768 137.946C101.849 138.132 100.987 138.094 100.182 137.832C99.3734 137.557 98.6687 137.089 98.0676 136.427ZM113.397 130.074C113.686 131.37 114.215 132.339 114.985 132.98C115.755 133.621 116.587 133.851 117.48 133.67C118.361 133.492 119.016 132.961 119.445 132.077C119.888 131.19 119.965 130.098 119.675 128.802C119.381 127.481 118.843 126.507 118.064 125.881C117.284 125.255 116.46 125.03 115.592 125.206C114.712 125.385 114.049 125.911 113.603 126.785C113.171 127.656 113.102 128.752 113.397 130.074ZM111.904 130.377C111.555 128.813 111.667 127.429 112.238 126.224C112.822 125.017 113.848 124.264 115.316 123.967C116.771 123.672 118.023 123.963 119.072 124.84C120.121 125.717 120.82 126.937 121.169 128.5C121.316 129.161 121.37 129.82 121.33 130.479C121.303 131.136 121.172 131.773 120.936 132.392C120.711 132.996 120.322 133.526 119.771 133.983C119.232 134.438 118.56 134.746 117.756 134.909C116.965 135.069 116.221 135.054 115.525 134.863C114.839 134.657 114.258 134.323 113.781 133.862C113.315 133.385 112.923 132.853 112.605 132.267C112.288 131.68 112.054 131.05 111.904 130.377ZM121.603 124.347L121.327 123.108L123.088 122.751L122.735 121.169C122.511 120.165 122.6 119.37 123.003 118.784C123.403 118.185 124.05 117.795 124.943 117.614L126.283 117.342L126.555 118.562L125.406 118.795C124.36 119.007 123.979 119.748 124.262 121.019L124.581 122.449L127.031 121.953L127.307 123.192L124.857 123.688L126.868 132.705L125.375 133.007L123.364 123.99L121.603 124.347ZM132.859 122.067L132.582 120.828L134.382 120.463L133.65 117.185L135.144 116.882L135.875 120.161L138.593 119.61L138.869 120.849L136.151 121.4L137.49 127.405C137.632 128.04 137.854 128.467 138.156 128.685C138.458 128.902 138.877 128.957 139.413 128.848L140.6 128.608L140.88 129.866L139.502 130.145C137.613 130.528 136.455 129.76 136.027 127.841L134.658 121.703L132.859 122.067ZM143.12 129.412L139.817 114.601L141.271 114.306L142.657 120.52L142.696 120.513C142.829 119.914 143.133 119.362 143.606 118.854C144.093 118.344 144.7 118.015 145.427 117.867C147.647 117.418 149.053 118.514 149.642 121.158L151.122 127.792L149.667 128.086L148.243 121.7C147.8 119.718 146.865 118.871 145.435 119.161C144.644 119.321 144.027 119.785 143.585 120.552C143.142 121.319 143.02 122.147 143.219 123.037L144.575 129.118L143.12 129.412ZM152.239 122.126C151.882 120.525 152.027 119.14 152.673 117.973C153.317 116.794 154.328 116.064 155.706 115.785C157.11 115.501 158.323 115.766 159.345 116.582C160.365 117.385 161.043 118.543 161.38 120.055C161.42 120.233 161.464 120.49 161.512 120.825L153.855 122.376C154.085 123.406 154.569 124.231 155.308 124.852C156.046 125.472 156.926 125.679 157.947 125.472C158.611 125.338 159.164 125.067 159.606 124.658C160.046 124.237 160.348 123.738 160.512 123.16L161.861 123.285C161.709 124.099 161.33 124.82 160.723 125.448C160.116 126.076 159.283 126.497 158.223 126.712C156.794 127.001 155.532 126.725 154.438 125.885C153.343 125.044 152.61 123.791 152.239 122.126ZM153.643 121.244L159.807 119.995C159.583 118.991 159.12 118.202 158.418 117.627C157.713 117.039 156.902 116.838 155.983 117.024C155.051 117.213 154.378 117.721 153.962 118.549C153.559 119.375 153.453 120.273 153.643 121.244ZM170.509 118.285L175.907 117.192L173.152 112.729C172.984 112.458 172.715 112.027 172.343 111.438C171.982 110.834 171.728 110.414 171.582 110.178L171.467 110.201C171.28 111.873 171.171 112.851 171.142 113.136L170.509 118.285ZM168.101 124.352L170.276 108.988L172.152 108.608L180.697 121.8L179.012 122.142L176.639 118.319L170.322 119.598L169.785 124.011L168.101 124.352ZM182.151 121.506L179.864 111.25L181.281 110.963L181.612 112.45C181.714 111.951 181.959 111.463 182.346 110.986C182.733 110.509 183.297 110.196 184.037 110.046C184.586 109.935 185.091 109.925 185.552 110.018L185.849 111.352C185.35 111.268 184.845 111.277 184.335 111.38C183.467 111.556 182.863 112.017 182.523 112.763C182.182 113.51 182.131 114.417 182.369 115.484L183.645 121.203L182.151 121.506ZM189.413 117.285C189.521 117.768 189.817 118.14 190.302 118.4C190.784 118.648 191.383 118.699 192.097 118.554C193.003 118.371 193.71 117.922 194.218 117.208C194.738 116.492 194.898 115.683 194.697 114.78L194.378 113.351C193.847 113.604 192.991 113.95 191.808 114.389C190.853 114.769 190.18 115.191 189.79 115.655C189.4 116.119 189.274 116.662 189.413 117.285ZM187.946 117.702C187.52 115.796 188.737 114.314 191.596 113.257C192.875 112.772 193.716 112.415 194.118 112.188L193.987 111.597C193.845 110.961 193.498 110.48 192.945 110.154C192.392 109.828 191.694 109.75 190.852 109.921C190.239 110.045 189.678 110.311 189.169 110.72C188.67 111.113 188.277 111.591 187.989 112.154L186.853 111.548C187.233 110.86 187.739 110.259 188.372 109.746C189.017 109.23 189.742 108.89 190.546 108.727C193.302 108.169 194.979 109.231 195.578 111.912L197.044 118.489L195.628 118.776L195.254 117.098C195.171 117.686 194.856 118.248 194.309 118.784C193.759 119.307 193.05 119.657 192.182 119.832C191.046 120.062 190.1 119.975 189.343 119.571C188.598 119.164 188.133 118.541 187.946 117.702ZM200.126 117.864L196.823 103.053L198.278 102.758L199.702 109.144C199.761 108.574 200.027 108.002 200.5 107.428C200.972 106.854 201.591 106.49 202.357 106.335C203.633 106.076 204.782 106.355 205.804 107.171C206.824 107.974 207.522 109.22 207.899 110.91C208.108 111.851 208.161 112.717 208.058 113.508C207.964 114.284 207.747 114.926 207.407 115.433C207.079 115.938 206.689 116.342 206.237 116.646C205.8 116.961 205.32 117.171 204.797 117.277C204.07 117.424 203.378 117.345 202.723 117.039C202.065 116.721 201.549 116.288 201.173 115.74L201.581 117.57L200.126 117.864ZM200.395 112.43C200.684 113.727 201.202 114.704 201.949 115.363C202.706 116.007 203.5 116.245 204.329 116.077C205.21 115.898 205.847 115.377 206.241 114.514C206.646 113.635 206.7 112.535 206.406 111.213C206.119 109.929 205.61 108.963 204.879 108.314C204.147 107.666 203.335 107.432 202.441 107.613C201.612 107.781 200.989 108.305 200.572 109.187C200.168 110.066 200.109 111.147 200.395 112.43ZM212.54 104.63L214.187 104.297L217.119 110.358C217.764 111.754 218.137 112.562 218.239 112.781L218.316 112.765C218.312 112.447 218.316 111.988 218.329 111.388C218.342 110.787 218.347 110.361 218.344 110.109L218.494 103.424L220.255 103.068L223.281 109.189C223.38 109.395 223.553 109.752 223.799 110.26C224.046 110.767 224.247 111.192 224.403 111.532L224.48 111.516C224.484 111.356 224.481 110.474 224.469 108.869L224.562 102.195L226.208 101.862L225.662 112.691L223.805 113.068L220.877 107.205C220.187 105.725 219.815 104.923 219.761 104.801L219.684 104.817C219.698 106.315 219.7 107.191 219.691 107.446L219.518 113.936L217.661 114.312L212.54 104.63ZM229.821 106.489C230.11 107.786 230.64 108.754 231.409 109.395C232.179 110.036 233.011 110.266 233.904 110.085C234.785 109.907 235.44 109.376 235.87 108.492C236.312 107.605 236.389 106.514 236.1 105.217C235.805 103.896 235.268 102.922 234.488 102.296C233.708 101.671 232.884 101.446 232.017 101.621C231.136 101.8 230.473 102.326 230.028 103.2C229.595 104.071 229.526 105.168 229.821 106.489ZM228.328 106.792C227.979 105.229 228.091 103.845 228.662 102.64C229.247 101.432 230.273 100.68 231.74 100.382C233.195 100.088 234.447 100.379 235.496 101.255C236.545 102.132 237.244 103.352 237.593 104.915C237.74 105.576 237.794 106.236 237.754 106.895C237.727 107.551 237.596 108.189 237.361 108.807C237.135 109.411 236.746 109.941 236.195 110.398C235.656 110.853 234.985 111.162 234.181 111.324C233.389 111.485 232.646 111.469 231.949 111.278C231.263 111.072 230.682 110.738 230.206 110.277C229.739 109.8 229.347 109.269 229.03 108.682C228.712 108.095 228.478 107.465 228.328 106.792ZM241.11 109.562L238.823 99.3062L240.239 99.0193L240.571 100.506C240.673 100.007 240.918 99.5194 241.305 99.0425C241.692 98.5656 242.256 98.2522 242.996 98.1022C243.545 97.9911 244.049 97.9818 244.51 98.0744L244.808 99.4088C244.309 99.324 243.804 99.3332 243.294 99.4366C242.426 99.6124 241.822 100.074 241.481 100.82C241.141 101.566 241.09 102.473 241.328 103.541L242.603 109.26L241.11 109.562ZM248.518 108.061L245.215 93.2495L246.67 92.9548L249.973 107.767L248.518 108.061ZM251.429 102.092C251.052 100.402 251.164 98.9913 251.765 97.86C252.364 96.716 253.288 96.0173 254.539 95.7639C255.292 95.6114 255.991 95.6956 256.636 96.0165C257.294 96.3349 257.8 96.7504 258.154 97.263L256.739 90.9151L258.193 90.6204L261.497 105.432L260.08 105.719L259.668 103.87C259.542 104.56 259.245 105.171 258.777 105.704C258.318 106.222 257.719 106.556 256.979 106.706C256.456 106.812 255.921 106.807 255.376 106.692C254.845 106.587 254.318 106.375 253.793 106.056C253.279 105.722 252.806 105.22 252.377 104.55C251.957 103.865 251.641 103.045 251.429 102.092ZM252.922 101.79C253.208 103.073 253.718 104.046 254.453 104.707C255.187 105.369 256.001 105.609 256.894 105.428C257.724 105.26 258.341 104.737 258.745 103.858C259.159 102.964 259.221 101.868 258.932 100.572C258.646 99.2886 258.124 98.3251 257.367 97.6815C256.623 97.0353 255.836 96.7962 255.007 96.9642C254.1 97.1478 253.453 97.6841 253.065 98.573C252.686 99.4467 252.638 100.519 252.922 101.79Z" fill="#3A1F17"/>
<rect x="0.552319" y="0.447152" width="212.989" height="39.2422" rx="15.5" transform="matrix(0.995021 -0.0996702 0.109618 0.993974 18.4811 217.558)" stroke="#3A1F17"/>
<path d="M42.257 240.872L40.6534 226.331L49.7485 225.42L49.8941 226.74L42.3537 227.495L42.9103 232.543L49.7122 231.862L49.8557 233.162L43.0538 233.844L43.6661 239.396L51.362 238.625L51.5075 239.945L42.257 240.872ZM53.3184 236.054L52.5712 229.279L54.087 229.127L54.8 235.592C55.0255 237.636 55.8897 238.584 57.3926 238.433C58.3125 238.341 58.9728 237.915 59.3737 237.155C59.7875 236.394 59.9409 235.528 59.8339 234.557L59.1787 228.617L60.6557 228.469L61.8076 238.913L60.3694 239.057L60.1832 237.368C60.1266 237.806 59.852 238.285 59.3592 238.805C58.8794 239.324 58.1536 239.633 57.1819 239.73C56.1843 239.83 55.3245 239.576 54.6025 238.968C53.892 238.345 53.464 237.374 53.3184 236.054ZM64.9364 238.6L63.7846 228.155L65.2227 228.011L65.3897 229.526C65.5456 229.039 65.8418 228.577 66.2784 228.141C66.7149 227.705 67.3089 227.449 68.0604 227.374C68.6175 227.318 69.1198 227.359 69.5673 227.498L69.7172 228.857C69.2308 228.722 68.7285 228.681 68.2103 228.733C67.3293 228.821 66.679 229.22 66.2594 229.929C65.8399 230.639 65.6901 231.537 65.81 232.624L66.4523 238.448L64.9364 238.6ZM72.4645 232.566C72.6101 233.886 73.0301 234.904 73.7247 235.619C74.4193 236.335 75.22 236.647 76.127 236.556C77.0209 236.467 77.7295 236.003 78.2528 235.166C78.7891 234.327 78.9844 233.248 78.8388 231.927C78.6904 230.581 78.2631 229.558 77.557 228.856C76.8509 228.155 76.0574 227.849 75.1764 227.937C74.2824 228.026 73.5666 228.484 73.0289 229.31C72.5042 230.135 72.316 231.22 72.4645 232.566ZM70.9486 232.718C70.7731 231.126 71.0349 229.758 71.7341 228.615C72.4462 227.471 73.5473 226.824 75.0372 226.675C76.5142 226.527 77.7258 226.942 78.672 227.92C79.6182 228.899 80.1791 230.184 80.3547 231.776C80.4289 232.449 80.4103 233.111 80.2988 233.764C80.2004 234.415 80.0004 235.037 79.699 235.629C79.4092 236.208 78.9654 236.697 78.3676 237.097C77.7828 237.496 77.0823 237.737 76.2661 237.818C75.4628 237.899 74.7259 237.809 74.0554 237.549C73.3964 237.275 72.8556 236.884 72.4328 236.377C72.0217 235.855 71.6904 235.287 71.4391 234.671C71.1878 234.055 71.0243 233.404 70.9486 232.718ZM84.3559 231.355C84.4987 232.649 84.8799 233.671 85.4996 234.42C86.1178 235.157 86.8934 235.478 87.8262 235.385C88.7072 235.296 89.3964 234.835 89.8938 234C90.3912 233.165 90.5664 232.081 90.4194 230.748C90.2809 229.492 89.8889 228.491 89.2433 227.745C88.6106 226.997 87.8214 226.67 86.8756 226.765C85.9946 226.853 85.3205 227.333 84.8533 228.204C84.3847 229.062 84.2189 230.113 84.3559 231.355ZM83.9602 241.307L82.3052 226.3L83.7433 226.156L83.951 228.039C84.1747 227.336 84.5431 226.757 85.0559 226.299C85.5803 225.828 86.2053 225.556 86.9308 225.484C88.2005 225.356 89.3056 225.756 90.2461 226.682C91.1866 227.609 91.7497 228.913 91.9352 230.596C92.1336 232.395 91.8523 233.823 91.0913 234.881C90.3289 235.926 89.3517 236.508 88.1597 236.627C87.3824 236.705 86.6995 236.57 86.1111 236.224C85.5213 235.864 85.0625 235.387 84.7349 234.791L85.4371 241.159L83.9602 241.307ZM93.639 230.366C93.4591 228.736 93.754 227.371 94.5237 226.274C95.292 225.163 96.3757 224.537 97.775 224.397C99.2001 224.255 100.376 224.641 101.302 225.555C102.227 226.457 102.774 227.678 102.944 229.218C102.964 229.4 102.979 229.66 102.991 229.999L95.2169 230.778C95.3325 231.826 95.7232 232.696 96.389 233.388C97.0548 234.081 97.906 234.375 98.9425 234.271C99.6162 234.204 100.195 233.989 100.679 233.626C101.162 233.251 101.516 232.783 101.743 232.224L103.068 232.484C102.828 233.28 102.373 233.96 101.702 234.525C101.03 235.089 100.157 235.425 99.0816 235.533C97.6306 235.678 96.4074 235.277 95.4122 234.33C94.417 233.383 93.826 232.062 93.639 230.366ZM95.1295 229.628L101.387 229.001C101.274 227.979 100.901 227.146 100.267 226.503C99.6312 225.847 98.847 225.566 97.9141 225.659C96.9683 225.754 96.2439 226.193 95.7408 226.976C95.2507 227.758 95.0469 228.642 95.1295 229.628ZM106.405 231.737C106.459 232.229 106.713 232.629 107.166 232.937C107.617 233.232 108.206 233.343 108.932 233.27C109.851 233.178 110.602 232.802 111.185 232.142C111.78 231.48 112.027 230.69 111.925 229.771L111.765 228.315C111.21 228.515 110.322 228.774 109.1 229.092C108.109 229.375 107.395 229.728 106.957 230.151C106.519 230.574 106.335 231.103 106.405 231.737ZM104.902 232.006C104.688 230.064 106.058 228.71 109.012 227.943C110.335 227.588 111.209 227.317 111.634 227.131L111.568 226.529C111.496 225.882 111.204 225.368 110.69 224.988C110.177 224.608 109.493 224.46 108.637 224.546C108.016 224.608 107.429 224.817 106.879 225.173C106.341 225.515 105.898 225.952 105.55 226.484L104.489 225.766C104.941 225.119 105.51 224.571 106.194 224.123C106.891 223.674 107.647 223.408 108.464 223.327C111.262 223.046 112.812 224.272 113.113 227.002L113.852 233.7L112.414 233.844L112.225 232.136C112.079 232.713 111.705 233.241 111.103 233.72C110.5 234.186 109.757 234.464 108.876 234.552C107.723 234.667 106.793 234.486 106.085 234.007C105.39 233.527 104.996 232.86 104.902 232.006ZM116.864 233.398L115.712 222.954L117.189 222.806L117.386 224.592L117.406 224.59C117.504 224.057 117.833 223.533 118.392 223.019C118.951 222.505 119.651 222.206 120.493 222.122C121.465 222.024 122.295 222.249 122.984 222.795C123.686 223.339 124.119 224.349 124.281 225.825L125.026 232.581L123.51 232.733L122.793 226.229C122.571 224.21 121.734 223.273 120.283 223.419C119.479 223.499 118.822 223.892 118.31 224.598C117.799 225.303 117.593 226.109 117.693 227.015L118.38 233.247L116.864 233.398ZM131.602 226.642C131.419 224.986 131.693 223.604 132.422 222.497C133.15 221.377 134.227 220.746 135.652 220.603C136.585 220.51 137.411 220.702 138.132 221.179C138.864 221.642 139.381 222.232 139.683 222.947L138.441 223.445C138.189 222.946 137.824 222.545 137.345 222.239C136.879 221.933 136.361 221.808 135.791 221.865C134.832 221.961 134.113 222.445 133.633 223.318C133.153 224.19 132.981 225.248 133.118 226.49C133.264 227.81 133.677 228.829 134.359 229.546C135.04 230.263 135.835 230.576 136.742 230.485C137.351 230.424 137.88 230.174 138.329 229.737C138.79 229.285 139.096 228.79 139.246 228.251L140.574 228.531C140.387 229.334 139.962 230.051 139.298 230.68C138.645 231.295 137.839 231.651 136.881 231.747C135.494 231.885 134.312 231.494 133.332 230.571C132.366 229.647 131.789 228.338 131.602 226.642ZM143.107 225.49C143.253 226.81 143.673 227.828 144.367 228.543C145.062 229.259 145.863 229.571 146.77 229.48C147.663 229.391 148.372 228.927 148.895 228.09C149.432 227.251 149.627 226.171 149.481 224.851C149.333 223.505 148.906 222.482 148.2 221.78C147.493 221.079 146.7 220.772 145.819 220.861C144.925 220.95 144.209 221.408 143.671 222.234C143.147 223.058 142.959 224.144 143.107 225.49ZM141.591 225.642C141.416 224.05 141.677 222.682 142.377 221.539C143.089 220.395 144.19 219.748 145.68 219.599C147.157 219.451 148.368 219.866 149.315 220.844C150.261 221.822 150.822 223.107 150.997 224.699C151.071 225.372 151.053 226.035 150.941 226.687C150.843 227.338 150.643 227.96 150.342 228.553C150.052 229.132 149.608 229.621 149.01 230.021C148.425 230.42 147.725 230.66 146.909 230.742C146.105 230.823 145.369 230.733 144.698 230.473C144.039 230.199 143.498 229.808 143.075 229.301C142.664 228.779 142.333 228.21 142.082 227.594C141.83 226.978 141.667 226.327 141.591 225.642ZM153.462 226.023L152.715 219.247L154.23 219.096L154.943 225.56C155.169 227.605 156.033 228.552 157.536 228.402C158.456 228.31 159.116 227.884 159.517 227.124C159.931 226.363 160.084 225.497 159.977 224.526L159.322 218.586L160.799 218.438L161.951 228.882L160.513 229.026L160.327 227.337C160.27 227.775 159.995 228.254 159.503 228.774C159.023 229.293 158.297 229.601 157.325 229.699C156.328 229.799 155.468 229.545 154.746 228.936C154.035 228.314 153.607 227.343 153.462 226.023ZM165.08 228.569L163.928 218.124L165.405 217.976L165.602 219.762L165.621 219.76C165.72 219.227 166.048 218.703 166.607 218.189C167.166 217.675 167.867 217.376 168.709 217.292C169.681 217.195 170.511 217.419 171.2 217.965C171.902 218.51 172.334 219.52 172.497 220.995L173.242 227.751L171.726 227.903L171.009 221.399C170.786 219.38 169.949 218.444 168.498 218.589C167.695 218.669 167.038 219.062 166.526 219.768C166.014 220.473 165.808 221.279 165.908 222.185L166.596 228.417L165.08 228.569ZM173.959 218.395L173.82 217.133L175.647 216.95L175.278 213.611L176.794 213.459L177.163 216.798L179.922 216.522L180.061 217.784L177.302 218.06L177.976 224.176C178.047 224.823 178.221 225.27 178.497 225.517C178.773 225.764 179.184 225.86 179.728 225.806L180.933 225.685L181.074 226.967L179.675 227.107C177.757 227.299 176.691 226.418 176.475 224.463L175.786 218.212L173.959 218.395ZM183.231 226.75L182.079 216.306L183.517 216.162L183.684 217.676C183.84 217.189 184.137 216.728 184.573 216.292C185.01 215.855 185.604 215.6 186.355 215.524C186.912 215.469 187.415 215.51 187.862 215.648L188.012 217.007C187.526 216.873 187.023 216.831 186.505 216.883C185.624 216.972 184.974 217.37 184.554 218.08C184.135 218.789 183.985 219.687 184.105 220.775L184.747 226.599L183.231 226.75ZM189.263 213.211L189.047 211.251L190.952 211.06L191.168 213.021L189.263 213.211ZM190.908 225.982L189.756 215.537L191.233 215.389L192.385 225.834L190.908 225.982ZM194.579 220.255C194.399 218.625 194.694 217.26 195.464 216.163C196.232 215.052 197.316 214.426 198.715 214.286C200.14 214.144 201.316 214.53 202.242 215.444C203.167 216.346 203.714 217.567 203.884 219.107C203.904 219.289 203.919 219.549 203.931 219.888L196.157 220.666C196.273 221.715 196.663 222.585 197.329 223.277C197.995 223.97 198.846 224.264 199.883 224.16C200.556 224.092 201.135 223.877 201.619 223.515C202.102 223.139 202.456 222.672 202.683 222.113L204.008 222.373C203.769 223.169 203.313 223.849 202.642 224.414C201.97 224.978 201.097 225.314 200.022 225.422C198.571 225.567 197.348 225.166 196.352 224.219C195.357 223.272 194.766 221.951 194.579 220.255ZM196.07 219.517L202.327 218.89C202.215 217.868 201.841 217.035 201.207 216.392C200.571 215.736 199.787 215.455 198.854 215.548C197.909 215.643 197.184 216.082 196.681 216.865C196.191 217.647 195.987 218.531 196.07 219.517ZM205.781 222.411L206.835 221.638C207.732 222.765 208.835 223.263 210.144 223.132C210.934 223.053 211.547 222.848 211.982 222.516C212.43 222.183 212.624 221.745 212.564 221.202C212.538 220.969 212.457 220.768 212.32 220.598C212.182 220.416 212.036 220.273 211.88 220.171C211.737 220.055 211.482 219.943 211.116 219.835C210.749 219.715 210.446 219.634 210.205 219.593C209.977 219.537 209.594 219.451 209.057 219.335C208.588 219.238 208.183 219.135 207.844 219.025C207.504 218.915 207.147 218.761 206.771 218.563C206.394 218.352 206.089 218.082 205.856 217.752C205.637 217.42 205.502 217.028 205.452 216.575C205.356 215.708 205.628 214.968 206.268 214.354C206.907 213.74 207.836 213.373 209.054 213.251C209.909 213.165 210.718 213.313 211.48 213.695C212.243 214.076 212.813 214.556 213.191 215.133L212.254 215.894C211.932 215.468 211.494 215.12 210.94 214.848C210.397 214.562 209.815 214.45 209.193 214.513C208.403 214.592 207.818 214.807 207.437 215.159C207.068 215.497 206.913 215.925 206.97 216.443C207.002 216.741 207.11 217.005 207.293 217.235C207.474 217.452 207.73 217.636 208.061 217.786C208.403 217.922 208.71 218.029 208.98 218.106C209.262 218.169 209.632 218.25 210.088 218.348C210.476 218.427 210.819 218.504 211.115 218.579C211.425 218.653 211.764 218.763 212.134 218.909C212.504 219.055 212.817 219.22 213.073 219.404C213.328 219.575 213.55 219.808 213.739 220.103C213.928 220.385 214.041 220.7 214.08 221.05C214.171 221.878 213.879 222.614 213.203 223.257C212.539 223.887 211.566 224.266 210.283 224.394C209.35 224.487 208.498 224.363 207.727 224.022C206.954 223.668 206.306 223.131 205.781 222.411Z" fill="#3A1F17"/>
<rect x="296.941" y="80.9307" width="78.2568" height="39.22" rx="15.5" stroke="#3A1F17"/>
<path d="M315.601 106.041V91.4116H317.163V106.041H315.601ZM320.737 106.041V95.5327H322.222V97.3296H322.241C322.397 96.8088 322.782 96.3205 323.394 95.8647C324.006 95.409 324.735 95.1812 325.581 95.1812C326.558 95.1812 327.358 95.4871 327.983 96.0991C328.621 96.7111 328.94 97.7593 328.94 99.2437V106.041H327.417V99.4976C327.417 97.4663 326.688 96.4507 325.229 96.4507C324.422 96.4507 323.726 96.7762 323.14 97.4272C322.554 98.0783 322.261 98.8595 322.261 99.771V106.041H320.737ZM331.245 100.767C331.245 99.0353 331.662 97.6746 332.495 96.6851C333.328 95.6825 334.383 95.1812 335.659 95.1812C336.427 95.1812 337.091 95.4025 337.651 95.8452C338.224 96.2879 338.628 96.7957 338.862 97.3687V90.8647H340.347V106.041H338.901V104.146C338.628 104.797 338.205 105.337 337.632 105.767C337.072 106.184 336.414 106.392 335.659 106.392C335.125 106.392 334.604 106.281 334.097 106.06C333.602 105.852 333.133 105.539 332.69 105.123C332.261 104.693 331.909 104.107 331.636 103.365C331.375 102.61 331.245 101.744 331.245 100.767ZM332.769 100.767C332.769 102.082 333.055 103.137 333.628 103.931C334.201 104.725 334.943 105.123 335.854 105.123C336.701 105.123 337.417 104.732 338.003 103.951C338.602 103.156 338.901 102.095 338.901 100.767C338.901 99.452 338.602 98.4038 338.003 97.6226C337.417 96.8413 336.701 96.4507 335.854 96.4507C334.93 96.4507 334.181 96.8478 333.608 97.6421C333.049 98.4233 332.769 99.465 332.769 100.767ZM343.745 93.1694V91.1968H345.659V93.1694H343.745ZM343.979 106.041V95.5327H345.464V106.041H343.979ZM349.741 103.345C349.741 103.84 349.95 104.263 350.366 104.615C350.783 104.953 351.356 105.123 352.085 105.123C353.009 105.123 353.797 104.823 354.448 104.224C355.112 103.625 355.444 102.863 355.444 101.939V100.474C354.871 100.617 353.96 100.787 352.71 100.982C351.694 101.164 350.946 101.444 350.464 101.822C349.982 102.199 349.741 102.707 349.741 103.345ZM348.218 103.462C348.218 101.509 349.728 100.298 352.749 99.8296C354.103 99.6082 355.002 99.4259 355.444 99.2827V98.6772C355.444 98.0262 355.21 97.4858 354.741 97.0562C354.272 96.6265 353.608 96.4116 352.749 96.4116C352.124 96.4116 351.519 96.5614 350.933 96.8608C350.36 97.1473 349.871 97.5379 349.468 98.0327L348.491 97.2124C349.012 96.6134 349.637 96.1252 350.366 95.7476C351.108 95.37 351.89 95.1812 352.71 95.1812C355.522 95.1812 356.929 96.5549 356.929 99.3022V106.041H355.483V104.322C355.275 104.882 354.845 105.37 354.194 105.787C353.543 106.19 352.775 106.392 351.89 106.392C350.731 106.392 349.826 106.119 349.175 105.572C348.537 105.025 348.218 104.322 348.218 103.462Z" fill="#3A1F17"/>
<rect x="0.442701" y="0.546822" width="109" height="40" rx="15.5" transform="matrix(0.995021 0.0996702 -0.109618 0.993974 271.258 165.527)" stroke="#3A1F17"/>
<path d="M286.288 193.208L287.891 178.667L293.372 179.216C294.784 179.357 295.855 179.857 296.586 180.716C297.329 181.575 297.631 182.646 297.489 183.927C297.344 185.247 296.808 186.247 295.881 186.926C294.955 187.605 293.805 187.876 292.432 187.739L288.506 187.345L287.842 193.363L286.288 193.208ZM288.65 186.045L292.342 186.414C293.366 186.517 294.183 186.35 294.794 185.914C295.42 185.467 295.787 184.751 295.896 183.767C296.001 182.81 295.796 182.056 295.28 181.507C294.779 180.947 294.004 180.614 292.954 180.509L289.3 180.143L288.65 186.045ZM298.963 191.769C298.908 192.261 299.069 192.702 299.445 193.093C299.823 193.471 300.374 193.696 301.1 193.769C302.02 193.861 302.836 193.642 303.55 193.111C304.276 192.582 304.69 191.858 304.792 190.939L304.952 189.483C304.366 189.569 303.441 189.646 302.176 189.716C301.145 189.796 300.369 189.999 299.849 190.326C299.328 190.654 299.033 191.135 298.963 191.769ZM297.434 191.733C297.648 189.792 299.284 188.739 302.341 188.574C303.713 188.489 304.627 188.397 305.083 188.299L305.149 187.697C305.22 187.05 305.046 186.49 304.627 186.016C304.208 185.542 303.571 185.262 302.716 185.177C302.094 185.114 301.475 185.203 300.859 185.442C300.257 185.67 299.729 186.009 299.273 186.461L298.391 185.548C298.975 185.005 299.65 184.582 300.417 184.279C301.197 183.978 301.995 183.868 302.812 183.95C305.61 184.23 306.859 185.736 306.558 188.466L305.819 195.164L304.381 195.02L304.569 193.312C304.301 193.847 303.819 194.29 303.126 194.639C302.434 194.976 301.647 195.1 300.766 195.011C299.613 194.896 298.743 194.534 298.155 193.925C297.58 193.318 297.34 192.588 297.434 191.733ZM308.987 195.481L310.65 180.397L312.166 180.549L311.076 190.43L316.202 185.644L318.184 185.843L313.993 189.643L317.46 196.33L315.633 196.147L312.905 190.594L310.854 192.449L310.503 195.633L308.987 195.481ZM320.464 183.696L320.681 181.736L322.585 181.926L322.369 183.887L320.464 183.696ZM319.287 196.513L320.439 186.069L321.916 186.217L320.764 196.661L319.287 196.513ZM323.614 194.866L324.814 194.319C325.446 195.599 326.416 196.305 327.724 196.436C328.515 196.515 329.159 196.436 329.657 196.198C330.167 195.961 330.453 195.571 330.513 195.027C330.538 194.794 330.503 194.581 330.406 194.388C330.311 194.183 330.199 194.014 330.069 193.884C329.954 193.741 329.729 193.581 329.395 193.404C329.062 193.214 328.783 193.074 328.557 192.986C328.345 192.887 327.989 192.727 327.49 192.506C327.052 192.319 326.679 192.137 326.371 191.963C326.063 191.788 325.746 191.566 325.422 191.298C325.1 191.017 324.86 190.692 324.705 190.324C324.562 189.956 324.515 189.546 324.565 189.093C324.661 188.225 325.089 187.555 325.848 187.082C326.608 186.608 327.596 186.432 328.814 186.554C329.669 186.64 330.428 186.945 331.091 187.469C331.753 187.994 332.207 188.576 332.451 189.215L331.367 189.774C331.145 189.294 330.793 188.866 330.31 188.49C329.842 188.103 329.297 187.879 328.675 187.816C327.885 187.737 327.265 187.832 326.816 188.101C326.382 188.359 326.136 188.746 326.079 189.264C326.046 189.562 326.094 189.841 326.222 190.103C326.352 190.351 326.562 190.582 326.853 190.794C327.159 190.995 327.435 191.16 327.683 191.289C327.945 191.407 328.289 191.559 328.713 191.746C329.076 191.9 329.394 192.043 329.668 192.175C329.955 192.308 330.263 192.483 330.593 192.699C330.922 192.916 331.193 193.139 331.403 193.369C331.615 193.587 331.781 193.859 331.902 194.185C332.025 194.498 332.067 194.83 332.029 195.179C331.937 196.007 331.491 196.669 330.69 197.165C329.903 197.649 328.868 197.826 327.585 197.698C326.652 197.604 325.846 197.314 325.166 196.827C324.488 196.328 323.97 195.674 323.614 194.866ZM333.825 188.686L333.965 187.424L335.791 187.607L336.16 184.267L337.675 184.419L337.307 187.758L340.067 188.035L339.928 189.297L337.168 189.02L336.494 195.136C336.422 195.783 336.495 196.255 336.711 196.551C336.927 196.847 337.307 197.023 337.851 197.077L339.056 197.198L338.915 198.479L337.516 198.339C335.598 198.147 334.747 197.074 334.963 195.12L335.652 188.868L333.825 188.686ZM342.145 196.094C342.091 196.586 342.252 197.027 342.628 197.418C343.005 197.796 343.557 198.022 344.282 198.094C345.202 198.187 346.019 197.967 346.732 197.437C347.459 196.908 347.873 196.184 347.974 195.265L348.134 193.809C347.549 193.894 346.623 193.972 345.358 194.041C344.327 194.121 343.552 194.325 343.031 194.652C342.51 194.979 342.215 195.46 342.145 196.094ZM340.616 196.059C340.83 194.118 342.466 193.064 345.523 192.9C346.895 192.815 347.809 192.723 348.265 192.625L348.331 192.023C348.403 191.376 348.229 190.815 347.81 190.341C347.39 189.868 346.753 189.588 345.898 189.502C345.276 189.44 344.657 189.528 344.041 189.768C343.44 189.995 342.911 190.335 342.455 190.787L341.573 189.874C342.157 189.33 342.833 188.907 343.6 188.605C344.38 188.303 345.178 188.194 345.994 188.275C348.792 188.556 350.041 190.061 349.74 192.792L349.001 199.49L347.563 199.346L347.752 197.637C347.483 198.173 347.002 198.616 346.308 198.965C345.616 199.301 344.83 199.425 343.949 199.337C342.796 199.221 341.925 198.859 341.337 198.251C340.762 197.644 340.522 196.913 340.616 196.059ZM352.014 199.791L353.165 189.347L354.642 189.495L354.445 191.281L354.465 191.283C354.677 190.781 355.113 190.334 355.772 189.942C356.431 189.55 357.181 189.396 358.024 189.48C358.995 189.578 359.758 189.962 360.313 190.632C360.881 191.304 361.084 192.378 360.921 193.853L360.176 200.609L358.66 200.457L359.377 193.954C359.6 191.935 358.986 190.852 357.535 190.707C356.731 190.627 356.002 190.881 355.348 191.47C354.694 192.058 354.317 192.806 354.217 193.712L353.529 199.943L352.014 199.791Z" fill="#3A1F17"/>
</svg>
