<svg width="384" height="258" viewBox="0 0 384 258" fill="none" xmlns="http://www.w3.org/2000/svg">
<rect x="1.59303" y="48.6205" width="231" height="40" rx="15.5" transform="rotate(-12 1.59303 48.6205)" stroke="#3A1F17"/>
<path d="M24.0427 69.9182L21.0012 55.609L26.3887 54.4639C27.7769 54.1688 28.9535 54.318 29.9183 54.9117C30.8958 55.5026 31.5186 56.4285 31.7866 57.6894C32.0628 58.9885 31.8668 60.1017 31.1986 61.0292C30.5305 61.9566 29.5214 62.5637 28.1714 62.8507L24.3123 63.671L25.5711 69.5934L24.0427 69.9182ZM24.0402 62.391L27.67 61.6194C28.6762 61.4056 29.4017 60.9984 29.8465 60.3981C30.3013 59.7822 30.4258 58.9903 30.2201 58.0224C30.0197 57.0799 29.5879 56.4262 28.9247 56.0613C28.2714 55.681 27.429 55.6005 26.3974 55.8198L22.8057 56.5832L24.0402 62.391ZM35.9414 62.0178C36.2176 63.3169 36.7361 64.2849 37.4972 64.9219C38.2582 65.5588 39.0845 65.7825 39.976 65.593C40.8548 65.4062 41.5123 64.8671 41.9485 63.9757C42.3974 63.0816 42.4838 61.985 42.2077 60.6859C41.9261 59.3613 41.3998 58.3883 40.6288 57.7668C39.8577 57.1453 39.0391 56.9266 38.1731 57.1106C37.2943 57.2974 36.629 57.8315 36.1774 58.7129C35.7385 59.5916 35.6599 60.6932 35.9414 62.0178ZM34.4513 62.3345C34.1183 60.768 34.242 59.3772 34.8224 58.1623C35.4155 56.9447 36.4444 56.1802 37.9091 55.8689C39.361 55.5602 40.6056 55.8415 41.6427 56.7126C42.6798 57.5837 43.3648 58.8026 43.6978 60.3691C43.8386 61.0314 43.8862 61.6935 43.8405 62.3555C43.8076 63.0148 43.671 63.6562 43.4308 64.2796C43.2006 64.8876 42.8087 65.4236 42.255 65.8873C41.7141 66.3484 41.0424 66.6643 40.24 66.8348C39.4503 67.0027 38.7096 66.9937 38.0179 66.8079C37.3362 66.6067 36.7601 66.2766 36.2898 65.8175C35.8295 65.3429 35.4439 64.8125 35.1329 64.2263C34.822 63.6402 34.5948 63.0096 34.4513 62.3345ZM45.379 60.0118C45.0325 58.3815 45.1662 56.9753 45.7802 55.7932C46.3915 54.5983 47.3977 53.852 48.7986 53.5542C49.7157 53.3593 50.5558 53.4603 51.319 53.8571C52.0923 54.2385 52.6644 54.7692 53.0352 55.4492L51.8515 56.0802C51.5521 55.6113 51.1494 55.251 50.6433 54.9991C50.1499 54.7446 49.623 54.6769 49.0626 54.796C48.1201 54.9963 47.4539 55.5573 47.0641 56.4788C46.6743 57.4003 46.6093 58.4724 46.8692 59.695C47.1453 60.9941 47.6575 61.9635 48.4058 62.6032C49.1541 63.2428 49.974 63.4679 50.8656 63.2784C51.4642 63.1511 51.9649 62.845 52.3676 62.3601C52.7804 61.8597 53.0346 61.3331 53.1301 60.7803L54.4762 60.9135C54.3712 61.7345 54.0203 62.4947 53.4235 63.1939C52.8367 63.8778 52.072 64.3198 51.1295 64.5202C49.7667 64.8098 48.5531 64.5486 47.4886 63.7366C46.4369 62.9218 45.7337 61.6802 45.379 60.0118ZM55.1987 57.9245C54.8522 56.2943 54.9859 54.8881 55.5999 53.706C56.2112 52.5111 57.2173 51.7648 58.6183 51.467C59.5353 51.2721 60.3755 51.373 61.1387 51.7699C61.912 52.1513 62.4841 52.682 62.8549 53.3619L61.6712 53.9929C61.3718 53.5241 60.9691 53.1637 60.463 52.9119C59.9696 52.6574 59.4427 52.5897 58.8823 52.7088C57.9398 52.9091 57.2736 53.47 56.8838 54.3915C56.4939 55.313 56.429 56.3851 56.6889 57.6078C56.965 58.9069 57.4772 59.8763 58.2255 60.5159C58.9738 61.1556 59.7937 61.3806 60.6853 61.1911C61.2839 61.0639 61.7846 60.7578 62.1873 60.2728C62.6001 59.7724 62.8543 59.2458 62.9497 58.6931L64.2959 58.8263C64.1909 59.6473 63.84 60.4074 63.2431 61.1067C62.6563 61.7905 61.8917 62.2326 60.9492 62.4329C59.5864 62.7226 58.3728 62.4614 57.3083 61.6494C56.2565 60.8346 55.5533 59.593 55.1987 57.9245ZM66.7985 60.8302L64.6138 50.552L66.0848 50.2393L67.23 55.6268C67.3031 55.9707 67.4567 56.8499 67.6908 58.2644L67.7672 58.2482L68.4219 56.6314L71.3959 49.1104L73.0389 48.7612L75.2236 59.0394L73.7525 59.3521L72.5627 53.7545C72.3461 52.7356 72.1943 51.8959 72.1072 51.2356L72.069 51.2437L71.5126 52.7597L68.4415 60.481L66.7985 60.8302ZM77.7294 50.8193C77.8485 51.3796 78.1189 51.7748 78.5405 52.0047C78.9621 52.2345 79.5231 52.275 80.2236 52.1261L83.0893 51.517L82.3583 48.0782L79.5882 48.667C78.8495 48.824 78.3293 49.101 78.0276 49.4979C77.7232 49.8821 77.6238 50.3225 77.7294 50.8193ZM77.1722 58.6252C77.5122 57.5945 77.6959 56.5171 77.7232 55.3931C77.7423 54.8566 77.8035 54.4243 77.9068 54.0962C78.0228 53.7653 78.2502 53.4574 78.589 53.1724C77.2816 52.9711 76.4993 52.2655 76.2421 51.0555C76.0689 50.2404 76.2247 49.5017 76.7096 48.8396C77.1918 48.1647 77.9805 47.7108 79.0759 47.478L83.5654 46.5237L85.7501 56.8019L84.2791 57.1146L83.3573 52.7779L80.5298 53.3789C80.0076 53.4899 79.6567 53.7176 79.4769 54.0619C79.2972 54.4063 79.2042 54.8454 79.1978 55.3792C79.1494 56.6541 79.0027 57.6238 78.7579 58.2882L77.1722 58.6252ZM93.5829 55.137L91.3982 44.8588L92.8693 44.5461L94.0144 49.9336C94.0875 50.2775 94.2411 51.1567 94.4752 52.5712L94.5516 52.555L95.2064 50.9382L98.1803 43.4172L99.8233 43.068L102.008 53.3462L100.537 53.6589L99.3471 48.0613C99.1306 47.0424 98.9787 46.2027 98.8916 45.5424L98.8534 45.5505L98.297 47.0665L95.2259 54.7878L93.5829 55.137ZM108.061 46.6884C107.714 45.0581 107.848 43.6519 108.462 42.4698C109.073 41.2749 110.079 40.5286 111.48 40.2308C112.397 40.0359 113.237 40.1369 114.001 40.5337C114.774 40.9151 115.346 41.4458 115.717 42.1258L114.533 42.7568C114.234 42.2879 113.831 41.9276 113.325 41.6757C112.832 41.4212 112.305 41.3535 111.744 41.4726C110.802 41.6729 110.136 42.2339 109.746 43.1554C109.356 44.0769 109.291 45.1489 109.551 46.3716C109.827 47.6707 110.339 48.6401 111.088 49.2798C111.836 49.9194 112.656 50.1445 113.547 49.955C114.146 49.8277 114.647 49.5216 115.049 49.0367C115.462 48.5363 115.716 48.0097 115.812 47.4569L117.158 47.5901C117.053 48.4111 116.702 49.1713 116.105 49.8705C115.518 50.5544 114.754 50.9964 113.811 51.1968C112.448 51.4864 111.235 51.2252 110.17 50.4132C109.119 49.5984 108.415 48.3568 108.061 46.6884ZM116.632 40.7932L116.368 39.5514L124.583 37.8052L124.847 39.047L121.484 39.7617L123.405 48.7981L121.934 49.1108L120.013 40.0744L116.632 40.7932ZM129.167 42.1821C129.438 43.4557 129.918 44.4319 130.608 45.1105C131.296 45.7765 132.098 46.012 133.015 45.817C133.881 45.633 134.519 45.0979 134.93 44.2119C135.341 43.3259 135.406 42.227 135.128 40.9152C134.865 39.6797 134.376 38.7254 133.66 38.0522C132.958 37.3762 132.141 37.137 131.212 37.3347C130.346 37.5188 129.724 38.0702 129.347 38.989C128.967 39.8951 128.907 40.9594 129.167 42.1821ZM129.766 52.1385L126.627 37.3707L128.041 37.0702L128.434 38.9234C128.587 38.1988 128.895 37.5809 129.358 37.0697C129.832 36.543 130.426 36.2039 131.139 36.0523C132.387 35.787 133.524 36.0644 134.55 36.8846C135.577 37.7047 136.266 38.9427 136.618 40.5984C136.994 42.3688 136.857 43.8222 136.207 44.9588C135.554 46.0827 134.641 46.7692 133.47 47.0182C132.706 47.1807 132.014 47.1213 131.395 46.8402C130.774 46.5463 130.27 46.1208 129.886 45.5636L131.218 51.8299L129.766 52.1385ZM140.287 42.4542C140.39 42.9382 140.682 43.3088 141.162 43.5661C141.64 43.8106 142.236 43.857 142.949 43.7054C143.853 43.5132 144.562 43.0565 145.074 42.3353C145.599 41.6113 145.765 40.7972 145.573 39.893L145.269 38.4601C144.738 38.7193 143.882 39.0744 142.699 39.5254C141.744 39.9148 141.07 40.3443 140.677 40.8138C140.284 41.2834 140.154 41.8302 140.287 42.4542ZM138.821 42.8856C138.415 40.9752 139.641 39.4766 142.498 38.3901C143.777 37.892 144.618 37.5269 145.021 37.2948L144.895 36.7025C144.76 36.0657 144.418 35.5859 143.87 35.263C143.322 34.9402 142.628 34.8681 141.787 35.0468C141.176 35.1767 140.615 35.4491 140.104 35.8638C139.603 36.2632 139.207 36.7468 138.915 37.3147L137.789 36.7153C138.174 36.0212 138.684 35.4136 139.319 34.8927C139.966 34.369 140.691 34.0219 141.493 33.8513C144.244 33.2666 145.906 34.3179 146.477 37.0052L147.878 43.5963L146.464 43.8968L146.107 42.2156C146.019 42.8066 145.701 43.3735 145.15 43.9164C144.597 44.4466 143.888 44.8038 143.022 44.9878C141.888 45.2288 140.946 45.1495 140.196 44.7499C139.458 44.3476 139 43.7262 138.821 42.8856ZM150.839 42.9669L148.654 32.6887L150.125 32.376L151.051 36.7318L156.439 35.5867L155.513 31.2308L156.965 30.9222L159.149 41.2004L157.697 41.509L156.703 36.8285L151.315 37.9736L152.31 42.6542L150.839 42.9669ZM171.3 38.6178L169.115 28.3396L170.586 28.0269L172.771 38.3051L171.3 38.6178ZM162.206 40.5507L160.021 30.2725L161.512 29.9558L162.401 34.1396L164.827 33.6239C166.05 33.364 167.024 33.4366 167.749 33.8416C168.484 34.2311 168.956 34.9162 169.164 35.8969C169.354 36.7884 169.204 37.5858 168.714 38.2888C168.234 38.9765 167.428 39.4408 166.294 39.6817L162.206 40.5507ZM163.428 38.9731L165.931 38.4411C167.345 38.1406 167.924 37.3918 167.67 36.1945C167.415 34.9973 166.562 34.553 165.11 34.8616L162.665 35.3814L163.428 38.9731ZM178.703 29.5763C178.207 27.2456 178.384 25.2911 179.234 23.7128C180.083 22.1346 181.412 21.1532 183.22 20.7688C184.341 20.5306 185.356 20.641 186.266 21.0999C187.186 21.5434 187.933 22.1498 188.51 22.9193L187.308 23.6539C186.13 22.3069 184.847 21.781 183.458 22.0761C182.083 22.3684 181.108 23.168 180.534 24.4748C179.957 25.7689 179.869 27.3584 180.269 29.2433C180.676 31.1538 181.41 32.5751 182.474 33.5071C183.534 34.4265 184.74 34.7427 186.09 34.4557C186.943 34.2744 187.638 33.8804 188.175 33.2738C188.709 32.6544 189.06 31.9607 189.23 31.1925L190.699 31.3395C190.463 32.3613 190.002 33.2913 189.315 34.1296C188.625 34.9551 187.656 35.5005 186.408 35.7658C184.612 36.1475 183 35.7979 181.573 34.717C180.155 33.6206 179.198 31.9071 178.703 29.5763ZM193.862 33.822L190.821 19.5128L192.349 19.1879L193.689 25.4924L200.719 23.998L199.379 17.6935L200.908 17.3687L203.949 31.6779L202.421 32.0028L200.992 25.278L193.961 26.7724L195.391 33.4971L193.862 33.822ZM207.923 30.8333L204.882 16.524L213.326 14.7292L213.606 16.0474L206.69 17.5174L209.451 30.5084L207.923 30.8333Z" fill="#3A1F17"/>
<rect x="273.5" y="11.5" width="77" height="40" rx="15.5" stroke="#3A1F17"/>
<path d="M290.016 29.6953C290.016 27.3125 290.595 25.4375 291.754 24.0703C292.913 22.7031 294.417 22.0195 296.266 22.0195C297.411 22.0195 298.382 22.3385 299.176 22.9766C299.983 23.6016 300.589 24.3503 300.992 25.2227L299.664 25.6914C298.792 24.1289 297.646 23.3477 296.227 23.3477C294.82 23.3477 293.701 23.9271 292.867 25.0859C292.034 26.2318 291.617 27.7682 291.617 29.6953C291.617 31.6484 292.04 33.1914 292.887 34.3242C293.733 35.444 294.846 36.0039 296.227 36.0039C297.099 36.0039 297.861 35.763 298.512 35.2812C299.163 34.7865 299.651 34.181 299.977 33.4648L301.383 33.9141C300.94 34.8646 300.296 35.6784 299.449 36.3555C298.603 37.0195 297.542 37.3516 296.266 37.3516C294.43 37.3516 292.926 36.6745 291.754 35.3203C290.595 33.9531 290.016 32.0781 290.016 29.6953ZM303.961 37V22.3711H305.523V35.6719H311.188V22.3711H312.75V35.6719H318.531V22.3711H320.094V37H303.961ZM325.719 31.5312H331.227L329.508 26.6094C329.404 26.3099 329.234 25.8346 329 25.1836C328.779 24.5195 328.622 24.0573 328.531 23.7969H328.414C327.867 25.3984 327.548 26.3359 327.457 26.6094L325.719 31.5312ZM322.047 37L327.516 22.3711H329.43L334.898 37H333.18L331.695 32.7812H325.25L323.766 37H322.047Z" fill="#3A1F17"/>
<rect x="0.59303" y="130.195" width="253" height="40" rx="15.5" transform="rotate(-12 0.59303 130.195)" stroke="#3A1F17"/>
<path d="M20.8041 146.597C20.4576 144.967 20.5914 143.561 21.2053 142.378C21.8166 141.184 22.8228 140.437 24.2238 140.139C25.1408 139.945 25.9809 140.045 26.7442 140.442C27.5174 140.824 28.0895 141.354 28.4603 142.034L27.2766 142.665C26.9773 142.197 26.5745 141.836 26.0684 141.584C25.575 141.33 25.0481 141.262 24.4877 141.381C23.5452 141.582 22.8791 142.142 22.4892 143.064C22.0994 143.985 22.0344 145.058 22.2943 146.28C22.5704 147.579 23.0826 148.549 23.8309 149.188C24.5792 149.828 25.3992 150.053 26.2907 149.864C26.8893 149.736 27.39 149.43 27.7927 148.945C28.2055 148.445 28.4597 147.918 28.5552 147.366L29.9013 147.499C29.7963 148.32 29.4454 149.08 28.8486 149.779C28.2618 150.463 27.4971 150.905 26.5546 151.105C25.1919 151.395 23.9782 151.134 22.9137 150.322C21.862 149.507 21.1588 148.265 20.8041 146.597ZM29.3751 140.702L29.1112 139.46L37.3261 137.714L37.59 138.956L34.2277 139.67L36.1484 148.707L34.6774 149.019L32.7566 139.983L29.3751 140.702ZM41.9105 142.091C42.1812 143.364 42.6616 144.341 43.3516 145.019C44.0389 145.685 44.8411 145.921 45.7581 145.726C46.6242 145.542 47.2626 145.007 47.6733 144.121C48.084 143.235 48.1499 142.136 47.8711 140.824C47.6085 139.588 47.1194 138.634 46.4039 137.961C45.7011 137.285 44.8849 137.046 43.9551 137.243C43.0891 137.427 42.4675 137.979 42.0904 138.898C41.7106 139.804 41.6506 140.868 41.9105 142.091ZM42.5092 152.047L39.3703 137.279L40.784 136.979L41.1779 138.832C41.33 138.107 41.638 137.49 42.1017 136.978C42.5755 136.452 43.169 136.112 43.8822 135.961C45.1304 135.696 46.2676 135.973 47.2939 136.793C48.3202 137.613 49.0093 138.851 49.3612 140.507C49.7375 142.277 49.6005 143.731 48.9502 144.867C48.2972 145.991 47.3849 146.678 46.2131 146.927C45.4489 147.089 44.7574 147.03 44.1386 146.749C43.517 146.455 43.0139 146.029 42.6292 145.472L43.9612 151.738L42.5092 152.047ZM53.0304 142.363C53.1332 142.847 53.425 143.217 53.9057 143.475C54.3836 143.719 54.9792 143.766 55.6924 143.614C56.5967 143.422 57.305 142.965 57.8173 142.244C58.3423 141.52 58.5087 140.706 58.3165 139.802L58.0119 138.369C57.4813 138.628 56.625 138.983 55.4429 139.434C54.4874 139.823 53.8132 140.253 53.4205 140.722C53.0278 141.192 52.8977 141.739 53.0304 142.363ZM51.5646 142.794C51.1585 140.884 52.3842 139.385 55.2415 138.299C56.5201 137.801 57.361 137.436 57.7642 137.203L57.6383 136.611C57.503 135.974 57.1614 135.494 56.6135 135.172C56.0657 134.849 55.3715 134.777 54.5309 134.955C53.9195 135.085 53.3584 135.358 52.8476 135.772C52.3467 136.172 51.9503 136.655 51.6584 137.223L50.5326 136.624C50.9175 135.93 51.4273 135.322 52.0621 134.801C52.7095 134.278 53.4345 133.931 54.2368 133.76C56.9879 133.175 58.649 134.227 59.2202 136.914L60.6212 143.505L59.2075 143.805L58.8501 142.124C58.7627 142.715 58.444 143.282 57.8938 143.825C57.3409 144.355 56.6314 144.712 55.7653 144.896C54.6318 145.137 53.6898 145.058 52.9393 144.659C52.2015 144.256 51.7433 143.635 51.5646 142.794ZM63.5824 142.875L61.3977 132.597L62.8687 132.285L63.7946 136.64L69.182 135.495L68.2562 131.139L69.7081 130.831L71.8928 141.109L70.4409 141.418L69.446 136.737L64.0585 137.882L65.0534 142.563L63.5824 142.875ZM84.0432 138.526L81.8585 128.248L83.3296 127.936L85.5143 138.214L84.0432 138.526ZM74.9495 140.459L72.7648 130.181L74.255 129.864L75.1443 134.048L77.5706 133.533C78.7932 133.273 79.7671 133.345 80.4921 133.75C81.2272 134.14 81.699 134.825 81.9074 135.806C82.0969 136.697 81.9469 137.494 81.4574 138.197C80.9779 138.885 80.1714 139.349 79.0379 139.59L74.9495 140.459ZM76.1717 138.882L78.6743 138.35C80.0881 138.049 80.6677 137.3 80.4132 136.103C80.1588 134.906 79.3055 134.462 77.8536 134.77L75.4082 135.29L76.1717 138.882ZM93.7037 133.717C93.8066 134.201 94.0984 134.572 94.579 134.829C95.057 135.074 95.6526 135.12 96.3658 134.969C97.2701 134.776 97.9784 134.32 98.4906 133.599C99.0157 132.875 99.1821 132.06 98.9899 131.156L98.6853 129.723C98.1547 129.983 97.2983 130.338 96.1163 130.789C95.1607 131.178 94.4866 131.608 94.0939 132.077C93.7011 132.547 93.5711 133.093 93.7037 133.717ZM92.238 134.149C91.8319 132.238 93.0575 130.74 95.9149 129.653C97.1934 129.155 98.0343 128.79 98.4376 128.558L98.3117 127.966C98.1764 127.329 97.8347 126.849 97.2869 126.526C96.7391 126.203 96.0448 126.131 95.2042 126.31C94.5929 126.44 94.0318 126.712 93.5209 127.127C93.0201 127.526 92.6237 128.01 92.3317 128.578L91.206 127.979C91.5909 127.284 92.1007 126.677 92.7354 126.156C93.3829 125.632 94.1078 125.285 94.9102 125.115C97.6612 124.53 99.3224 125.581 99.8936 128.268L101.295 134.86L99.8808 135.16L99.5235 133.479C99.4361 134.07 99.1173 134.637 98.5671 135.18C98.0143 135.71 97.3048 136.067 96.4387 136.251C95.3052 136.492 94.3632 136.413 93.6126 136.013C92.8749 135.611 92.4166 134.989 92.238 134.149ZM104.726 128.739C104.997 130.013 105.477 130.989 106.167 131.667C106.854 132.333 107.657 132.569 108.574 132.374C109.44 132.19 110.078 131.655 110.489 130.769C110.899 129.883 110.965 128.784 110.686 127.472C110.424 126.237 109.935 125.282 109.219 124.609C108.517 123.933 107.7 123.694 106.771 123.891C105.904 124.076 105.283 124.627 104.906 125.546C104.526 126.452 104.466 127.516 104.726 128.739ZM105.325 138.695L102.186 123.928L103.599 123.627L103.993 125.48C104.145 124.756 104.453 124.138 104.917 123.626C105.391 123.1 105.984 122.761 106.698 122.609C107.946 122.344 109.083 122.621 110.109 123.441C111.136 124.262 111.825 125.499 112.177 127.155C112.553 128.926 112.416 130.379 111.766 131.516C111.113 132.639 110.2 133.326 109.029 133.575C108.264 133.737 107.573 133.678 106.954 133.397C106.332 133.103 105.829 132.678 105.445 132.12L106.777 138.387L105.325 138.695ZM115.846 129.011C115.949 129.495 116.24 129.866 116.721 130.123C117.199 130.367 117.795 130.414 118.508 130.262C119.412 130.07 120.12 129.613 120.633 128.892C121.158 128.168 121.324 127.354 121.132 126.45L120.827 125.017C120.297 125.276 119.44 125.631 118.258 126.082C117.303 126.472 116.629 126.901 116.236 127.371C115.843 127.84 115.713 128.387 115.846 129.011ZM114.38 129.442C113.974 127.532 115.2 126.033 118.057 124.947C119.335 124.449 120.176 124.084 120.58 123.852L120.454 123.259C120.318 122.622 119.977 122.143 119.429 121.82C118.881 121.497 118.187 121.425 117.346 121.604C116.735 121.734 116.174 122.006 115.663 122.421C115.162 122.82 114.766 123.304 114.474 123.871L113.348 123.272C113.733 122.578 114.243 121.97 114.877 121.449C115.525 120.926 116.25 120.579 117.052 120.408C119.803 119.823 121.464 120.875 122.036 123.562L123.437 130.153L122.023 130.454L121.666 128.772C121.578 129.363 121.259 129.93 120.709 130.473C120.156 131.003 119.447 131.361 118.581 131.545C117.447 131.786 116.505 131.706 115.755 131.307C115.017 130.904 114.559 130.283 114.38 129.442ZM124.618 124.531C123.919 121.245 124.181 118.627 125.404 116.676C126.512 114.936 128.412 113.7 131.105 112.968L131.618 114.157C128.311 115.007 126.408 116.795 125.91 119.524L125.832 120.099C126.005 119.597 126.299 119.162 126.713 118.794C127.137 118.411 127.642 118.157 128.228 118.033C129.566 117.748 130.754 118.048 131.794 118.932C132.834 119.816 133.518 121.028 133.845 122.569C133.986 123.232 134.033 123.894 133.988 124.556C133.955 125.215 133.818 125.856 133.578 126.48C133.348 127.088 132.962 127.622 132.421 128.084C131.88 128.545 131.209 128.86 130.406 129.031C129.617 129.199 128.876 129.19 128.184 129.004C127.503 128.803 126.927 128.473 126.456 128.014C125.996 127.539 125.61 127.009 125.299 126.423C124.988 125.836 124.761 125.206 124.618 124.531ZM126.108 124.214C126.384 125.513 126.903 126.481 127.664 127.118C128.425 127.755 129.251 127.979 130.142 127.789C131.021 127.602 131.679 127.063 132.115 126.172C132.551 125.28 132.631 124.185 132.355 122.886C132.073 121.562 131.547 120.589 130.776 119.967C130.018 119.343 129.206 119.123 128.339 119.307C127.461 119.494 126.795 120.028 126.344 120.909C125.905 121.788 125.826 122.889 126.108 124.214ZM135.526 122.212C135.18 120.582 135.314 119.176 135.928 117.993C136.539 116.799 137.545 116.052 138.946 115.754C139.863 115.56 140.703 115.661 141.466 116.057C142.24 116.439 142.812 116.969 143.183 117.649L141.999 118.28C141.699 117.812 141.297 117.451 140.791 117.199C140.297 116.945 139.77 116.877 139.21 116.996C138.267 117.197 137.601 117.758 137.211 118.679C136.822 119.601 136.757 120.673 137.016 121.895C137.293 123.194 137.805 124.164 138.553 124.803C139.301 125.443 140.121 125.668 141.013 125.479C141.611 125.351 142.112 125.045 142.515 124.56C142.928 124.06 143.182 123.533 143.277 122.981L144.624 123.114C144.519 123.935 144.168 124.695 143.571 125.394C142.984 126.078 142.219 126.52 141.277 126.72C139.914 127.01 138.7 126.749 137.636 125.937C136.584 125.122 135.881 123.88 135.526 122.212ZM147.126 125.118L144.941 114.84L146.412 114.527L147.379 119.074L151.227 113.504L153.175 113.089L149.049 119.038L155.532 123.331L153.717 123.717L148.292 120.177L147.773 120.927L148.597 124.805L147.126 125.118ZM156.656 117.721C156.932 119.02 157.451 119.988 158.212 120.625C158.973 121.262 159.799 121.486 160.69 121.296C161.569 121.109 162.227 120.57 162.663 119.679C163.112 118.785 163.198 117.688 162.922 116.389C162.641 115.064 162.114 114.091 161.343 113.47C160.572 112.848 159.754 112.63 158.887 112.814C158.009 113 157.343 113.535 156.892 114.416C156.453 115.295 156.374 116.396 156.656 117.721ZM155.166 118.038C154.833 116.471 154.956 115.08 155.537 113.865C156.13 112.648 157.159 111.883 158.624 111.572C160.075 111.263 161.32 111.545 162.357 112.416C163.394 113.287 164.079 114.506 164.412 116.072C164.553 116.734 164.601 117.397 164.555 118.059C164.522 118.718 164.385 119.359 164.145 119.983C163.915 120.591 163.523 121.127 162.969 121.59C162.428 122.051 161.757 122.367 160.954 122.538C160.165 122.706 159.424 122.697 158.732 122.511C158.051 122.31 157.475 121.98 157.004 121.52C156.544 121.046 156.158 120.516 155.847 119.929C155.536 119.343 155.309 118.713 155.166 118.038ZM167.874 120.708L165.689 110.43L171.84 109.122L172.104 110.364L167.424 111.359L169.345 120.395L167.874 120.708ZM175.646 113.684C175.922 114.984 176.44 115.952 177.201 116.588C177.962 117.225 178.789 117.449 179.68 117.26C180.559 117.073 181.217 116.534 181.653 115.642C182.102 114.748 182.188 113.652 181.912 112.352C181.63 111.028 181.104 110.055 180.333 109.433C179.562 108.812 178.743 108.593 177.877 108.777C176.998 108.964 176.333 109.498 175.882 110.38C175.443 111.258 175.364 112.36 175.646 113.684ZM174.156 114.001C173.823 112.435 173.946 111.044 174.527 109.829C175.12 108.611 176.149 107.847 177.613 107.535C179.065 107.227 180.31 107.508 181.347 108.379C182.384 109.25 183.069 110.469 183.402 112.036C183.543 112.698 183.59 113.36 183.545 114.022C183.512 114.681 183.375 115.323 183.135 115.946C182.905 116.554 182.513 117.09 181.959 117.554C181.418 118.015 180.747 118.331 179.944 118.501C179.155 118.669 178.414 118.66 177.722 118.475C177.04 118.273 176.464 117.943 175.994 117.484C175.534 117.01 175.148 116.479 174.837 115.893C174.526 115.307 174.299 114.676 174.156 114.001ZM191.639 115.656L189.455 105.378L191.06 105.037L194.562 109.584C195.223 110.442 195.81 111.229 196.322 111.945L196.36 111.937C196.782 110.037 196.991 109.081 196.988 109.068L198.338 103.49L199.943 103.149L202.128 113.427L200.733 113.723L199.552 108.164C199.408 107.489 199.266 106.727 199.126 105.878L199.106 105.882L198.779 107.349L197.251 113.685L196.2 113.908L192.25 108.757L191.335 107.554L191.316 107.558C191.5 108.238 191.679 108.985 191.852 109.8L193.034 115.36L191.639 115.656ZM205.185 112.777L203 102.499L204.471 102.186L205.616 107.574C205.689 107.917 205.843 108.797 206.077 110.211L206.153 110.195L206.808 108.578L209.782 101.057L211.425 100.708L213.61 110.986L212.139 111.299L210.949 105.701C210.732 104.682 210.58 103.843 210.493 103.182L210.455 103.19L209.899 104.706L206.828 112.428L205.185 112.777ZM217.136 104.845C217.407 106.119 217.888 107.095 218.578 107.774C219.265 108.44 220.067 108.675 220.984 108.48C221.85 108.296 222.489 107.761 222.899 106.875C223.31 105.989 223.376 104.89 223.097 103.578C222.834 102.343 222.345 101.389 221.63 100.715C220.927 100.039 220.111 99.8002 219.181 99.9979C218.315 100.182 217.693 100.733 217.316 101.652C216.937 102.558 216.877 103.623 217.136 104.845ZM217.735 114.802L214.596 100.034L216.01 99.7334L216.404 101.587C216.556 100.862 216.864 100.244 217.328 99.7329C217.801 99.2062 218.395 98.8671 219.108 98.7155C220.356 98.4502 221.494 98.7276 222.52 99.5478C223.546 100.368 224.235 101.606 224.587 103.262C224.963 105.032 224.826 106.485 224.176 107.622C223.523 108.746 222.611 109.432 221.439 109.681C220.675 109.844 219.983 109.785 219.365 109.503C218.743 109.21 218.24 108.784 217.855 108.227L219.187 114.493L217.735 114.802ZM228.256 105.117C228.359 105.601 228.651 105.972 229.132 106.229C229.61 106.474 230.205 106.52 230.918 106.369C231.823 106.176 232.531 105.72 233.043 104.998C233.568 104.275 233.735 103.46 233.542 102.556L233.238 101.123C232.707 101.383 231.851 101.738 230.669 102.189C229.713 102.578 229.039 103.008 228.646 103.477C228.254 103.947 228.124 104.493 228.256 105.117ZM226.791 105.549C226.384 103.638 227.61 102.14 230.467 101.053C231.746 100.555 232.587 100.19 232.99 99.9579L232.864 99.3657C232.729 98.7289 232.387 98.2491 231.84 97.9262C231.292 97.6034 230.597 97.5313 229.757 97.71C229.146 97.8399 228.584 98.1123 228.074 98.527C227.573 98.9264 227.176 99.41 226.884 99.9779L225.759 99.3785C226.144 98.6844 226.653 98.0768 227.288 97.5558C227.936 97.0322 228.66 96.6851 229.463 96.5145C232.214 95.9298 233.875 96.9811 234.446 99.6684L235.847 106.259L234.433 106.56L234.076 104.879C233.989 105.47 233.67 106.037 233.12 106.58C232.567 107.11 231.857 107.467 230.991 107.651C229.858 107.892 228.916 107.813 228.165 107.413C227.427 107.011 226.969 106.389 226.791 105.549Z" fill="#3A1F17"/>
<rect x="18.5495" y="217.173" width="226" height="40" rx="15.5" transform="rotate(-6 18.5495 217.173)" stroke="#3A1F17"/>
<path d="M36.9274 235.52C36.7559 233.889 37.0573 232.522 37.8317 231.419C38.6048 230.304 39.6906 229.672 41.0891 229.525C42.5136 229.376 43.6861 229.756 44.6067 230.668C45.526 231.566 46.0666 232.786 46.2286 234.327C46.2476 234.508 46.2619 234.768 46.2714 235.108L38.5017 235.925C38.6119 236.973 38.9979 237.843 39.6595 238.533C40.3212 239.222 41.17 239.513 42.206 239.404C42.8794 239.333 43.4587 239.115 43.944 238.75C44.428 238.372 44.7845 237.902 45.0136 237.341L46.3364 237.595C46.093 238.393 45.6345 239.076 44.9611 239.645C44.2876 240.213 43.4135 240.554 42.3387 240.667C40.8883 240.819 39.6684 240.424 38.679 239.48C37.6895 238.537 37.1057 237.217 36.9274 235.52ZM38.4201 234.774L44.6747 234.117C44.5671 233.094 44.1982 232.262 43.5679 231.621C42.9362 230.968 42.1542 230.69 41.2218 230.788C40.2765 230.887 39.5506 231.33 39.0441 232.116C38.5505 232.902 38.3425 233.788 38.4201 234.774ZM49.1781 239.594L48.0798 229.144L52.4891 228.681C53.6286 228.561 54.5235 228.729 55.1736 229.184C55.8366 229.638 56.211 230.273 56.2968 231.089C56.3975 232.047 55.981 232.817 55.0472 233.4C55.6374 233.534 56.1297 233.797 56.5243 234.187C56.9304 234.564 57.1662 235.063 57.2315 235.684C57.3172 236.5 57.0813 237.245 56.5237 237.919C55.9647 238.58 55.1673 238.965 54.1313 239.074L49.1781 239.594ZM50.539 238.155L53.7246 237.82C54.3591 237.754 54.8615 237.55 55.2316 237.21C55.6017 236.87 55.7575 236.422 55.699 235.865C55.6432 235.334 55.3976 234.928 54.9621 234.646C54.5382 234.35 53.9831 234.238 53.2968 234.311L50.1695 234.639L50.539 238.155ZM50.047 233.474L52.8053 233.184C53.4527 233.116 53.9564 232.925 54.3163 232.613C54.6892 232.299 54.847 231.87 54.7899 231.326C54.6783 230.264 53.9102 229.808 52.4858 229.957L49.7081 230.249L50.047 233.474ZM61.0001 233.049C61.1362 234.344 61.512 235.365 62.1273 236.112C62.7412 236.846 63.5144 237.164 64.4467 237.066C65.3273 236.974 66.0181 236.508 66.5192 235.67C67.0203 234.832 67.2007 233.746 67.0605 232.412C66.9285 231.156 66.5419 230.156 65.9007 229.412C65.2724 228.666 64.4856 228.343 63.5403 228.442C62.6597 228.535 61.9839 229.018 61.5128 229.892C61.0404 230.754 60.8695 231.806 61.0001 233.049ZM60.5549 243.014L58.9768 227.999L60.4142 227.848L60.6122 229.732C60.8393 229.027 61.2101 228.445 61.7247 227.985C62.251 227.511 62.8767 227.235 63.6018 227.159C64.8709 227.026 65.9729 227.42 66.9078 228.343C67.8427 229.266 68.3987 230.57 68.5756 232.253C68.7648 234.053 68.4766 235.484 67.7111 236.547C66.9442 237.596 65.965 238.183 64.7737 238.309C63.9967 238.39 63.3152 238.259 62.7291 237.915C62.1417 237.557 61.6858 237.082 61.3615 236.487L62.0311 242.858L60.5549 243.014ZM71.8021 231.934C71.9409 233.254 72.3555 234.271 73.0457 234.984C73.736 235.697 74.5344 236.006 75.4409 235.911C76.3344 235.817 77.0446 235.35 77.5716 234.509C78.1115 233.666 78.3121 232.585 78.1732 231.264C78.0317 229.917 77.61 228.894 76.9081 228.196C76.2062 227.497 75.415 227.194 74.5344 227.287C73.6409 227.38 72.9235 227.842 72.3822 228.671C71.8539 229.499 71.6605 230.587 71.8021 231.934ZM70.287 232.093C70.1196 230.5 70.388 229.13 71.0922 227.982C71.8093 226.833 72.9125 226.18 74.4017 226.024C75.878 225.869 77.0863 226.279 78.0266 227.253C78.967 228.228 79.5209 229.512 79.6883 231.105C79.7591 231.778 79.7372 232.442 79.6226 233.095C79.5209 233.747 79.3181 234.371 79.014 234.966C78.7215 235.546 78.2757 236.038 77.6766 236.442C77.0904 236.844 76.3894 237.088 75.5736 237.173C74.7707 237.258 74.035 237.172 73.3664 236.914C72.7095 236.643 72.1711 236.255 71.7514 235.749C71.3432 235.229 71.0151 234.661 70.7672 234.045C70.5192 233.43 70.3591 232.779 70.287 232.093ZM82.6461 236.077L81.5477 225.626L89.7448 224.765L90.8431 235.215L89.3475 235.372L88.3818 226.185L83.1761 226.732L84.1418 235.919L82.6461 236.077ZM92.6944 229.659C92.5229 228.027 92.8244 226.66 93.5988 225.558C94.3718 224.442 95.4576 223.811 96.8562 223.664C98.2806 223.514 99.4531 223.895 100.374 224.806C101.293 225.705 101.834 226.924 101.996 228.465C102.015 228.647 102.029 228.907 102.038 229.247L94.2687 230.063C94.3789 231.112 94.7649 231.981 95.4266 232.671C96.0882 233.361 96.9371 233.652 97.973 233.543C98.6464 233.472 99.2257 233.254 99.711 232.889C100.195 232.51 100.552 232.041 100.781 231.48L102.103 231.734C101.86 232.532 101.402 233.215 100.728 233.783C100.055 234.352 99.1805 234.692 98.1057 234.805C96.6554 234.958 95.4355 234.562 94.446 233.619C93.4566 232.675 92.8727 231.355 92.6944 229.659ZM94.1871 228.913L100.442 228.256C100.334 227.233 99.9653 226.401 99.3349 225.76C98.7033 225.106 97.9212 224.828 96.9889 224.926C96.0435 225.026 95.3176 225.469 94.8111 226.255C94.3176 227.04 94.1096 227.926 94.1871 228.913ZM104.945 233.733L103.847 223.283L105.342 223.125L105.918 228.603C105.955 228.953 106.016 229.843 106.101 231.274L106.178 231.266L106.999 229.727L110.742 222.558L112.413 222.382L113.511 232.833L112.016 232.99L111.417 227.298C111.309 226.263 111.245 225.412 111.228 224.746L111.189 224.75L110.477 226.199L106.616 233.557L104.945 233.733ZM104.471 218.386L105.656 218.261C105.736 218.777 105.983 219.196 106.397 219.519C106.811 219.842 107.289 219.975 107.833 219.918C108.39 219.859 108.837 219.629 109.175 219.227C109.511 218.812 109.665 218.351 109.638 217.843L110.823 217.718C110.864 218.486 110.643 219.184 110.159 219.811C109.688 220.436 108.947 220.802 107.937 220.908C106.927 221.015 106.127 220.811 105.536 220.297C104.945 219.783 104.59 219.146 104.471 218.386ZM115.371 227.354C115.196 225.697 115.476 224.312 116.211 223.201C116.943 222.076 118.022 221.439 119.447 221.29C120.379 221.192 121.204 221.38 121.921 221.854C122.651 222.314 123.164 222.902 123.462 223.617L122.219 224.121C121.97 223.623 121.607 223.223 121.13 222.919C120.666 222.615 120.149 222.492 119.579 222.552C118.621 222.653 117.9 223.141 117.416 224.017C116.932 224.892 116.755 225.952 116.886 227.195C117.025 228.516 117.433 229.534 118.11 230.248C118.787 230.962 119.579 231.272 120.486 231.177C121.094 231.113 121.624 230.86 122.076 230.42C122.538 229.966 122.846 229.469 122.999 228.929L124.324 229.202C124.134 230.008 123.705 230.727 123.038 231.36C122.383 231.979 121.577 232.338 120.618 232.439C119.233 232.585 118.053 232.198 117.079 231.279C116.119 230.359 115.549 229.051 115.371 227.354ZM126.603 231.457L125.505 221.006L127.001 220.849L127.486 225.472L131.895 220.335L133.877 220.126L129.151 225.611L135.15 230.558L133.305 230.752L128.28 226.665L127.684 227.356L128.099 231.299L126.603 231.457ZM136.587 230.407L135.489 219.957L136.985 219.8L137.56 225.277C137.597 225.627 137.658 226.517 137.743 227.949L137.821 227.941L138.641 226.401L142.385 219.232L144.055 219.057L145.153 229.507L143.658 229.664L143.06 223.973C142.951 222.937 142.887 222.086 142.87 221.42L142.831 221.424L142.119 222.874L138.258 230.232L136.587 230.407ZM147.005 223.951C146.833 222.319 147.135 220.952 147.909 219.85C148.682 218.734 149.768 218.103 151.166 217.956C152.591 217.806 153.763 218.187 154.684 219.098C155.603 219.997 156.144 221.216 156.306 222.757C156.325 222.939 156.339 223.199 156.349 223.538L148.579 224.355C148.689 225.404 149.075 226.273 149.737 226.963C150.398 227.653 151.247 227.943 152.283 227.834C152.957 227.764 153.536 227.546 154.021 227.18C154.505 226.802 154.862 226.333 155.091 225.772L156.414 226.026C156.17 226.824 155.712 227.507 155.038 228.075C154.365 228.643 153.491 228.984 152.416 229.097C150.966 229.249 149.746 228.854 148.756 227.911C147.767 226.967 147.183 225.647 147.005 223.951ZM148.497 223.205L154.752 222.547C154.644 221.524 154.275 220.693 153.645 220.052C153.013 219.398 152.231 219.12 151.299 219.218C150.354 219.318 149.628 219.76 149.121 220.547C148.628 221.332 148.42 222.218 148.497 223.205ZM162.863 222.363C162.689 220.705 162.969 219.321 163.703 218.209C164.436 217.085 165.514 216.448 166.939 216.298C167.871 216.2 168.696 216.388 169.414 216.863C170.143 217.323 170.656 217.91 170.954 218.625L169.711 219.129C169.462 218.632 169.099 218.231 168.622 217.928C168.158 217.623 167.641 217.501 167.072 217.56C166.113 217.661 165.392 218.149 164.908 219.025C164.424 219.901 164.247 220.96 164.378 222.203C164.517 223.524 164.925 224.542 165.602 225.256C166.28 225.971 167.072 226.28 167.978 226.185C168.587 226.121 169.117 225.869 169.568 225.429C170.031 224.974 170.338 224.477 170.491 223.937L171.816 224.21C171.626 225.016 171.197 225.735 170.531 226.368C169.876 226.987 169.069 227.347 168.111 227.447C166.725 227.593 165.545 227.206 164.572 226.288C163.611 225.367 163.041 224.059 162.863 222.363ZM172.003 217.396L171.871 216.133L180.223 215.255L180.356 216.518L176.937 216.877L177.903 226.065L176.407 226.222L175.441 217.034L172.003 217.396ZM184.325 220.087C184.461 221.382 184.837 222.403 185.452 223.15C186.066 223.884 186.839 224.202 187.771 224.104C188.652 224.012 189.343 223.547 189.844 222.708C190.345 221.87 190.525 220.784 190.385 219.45C190.253 218.194 189.866 217.194 189.225 216.45C188.597 215.704 187.81 215.381 186.865 215.48C185.984 215.573 185.309 216.056 184.837 216.93C184.365 217.792 184.194 218.844 184.325 220.087ZM183.879 230.052L182.301 215.037L183.739 214.886L183.937 216.77C184.164 216.065 184.535 215.483 185.049 215.023C185.576 214.549 186.201 214.273 186.926 214.197C188.195 214.064 189.297 214.459 190.232 215.381C191.167 216.304 191.723 217.608 191.9 219.291C192.089 221.091 191.801 222.522 191.036 223.585C190.269 224.634 189.29 225.221 188.098 225.347C187.321 225.428 186.64 225.297 186.054 224.953C185.466 224.596 185.01 224.12 184.686 223.525L185.356 229.897L183.879 230.052ZM195.355 221.52C195.407 222.012 195.658 222.411 196.11 222.718C196.559 223.011 197.147 223.119 197.872 223.043C198.791 222.946 199.544 222.566 200.128 221.902C200.726 221.237 200.977 220.445 200.88 219.526L200.727 218.069C200.172 218.271 199.283 218.535 198.061 218.86C197.07 219.147 196.354 219.504 195.915 219.93C195.475 220.356 195.289 220.886 195.355 221.52ZM193.852 221.796C193.648 219.854 195.024 218.491 197.979 217.709C199.303 217.348 200.177 217.073 200.603 216.884L200.539 216.282C200.471 215.634 200.182 215.121 199.67 214.743C199.159 214.365 198.477 214.22 197.622 214.31C197 214.376 196.414 214.588 195.862 214.947C195.323 215.292 194.878 215.731 194.528 216.265L193.471 215.552C193.926 214.902 194.497 214.351 195.183 213.899C195.881 213.446 196.639 213.176 197.454 213.091C200.251 212.797 201.794 214.016 202.081 216.748L202.785 223.45L201.348 223.601L201.168 221.891C201.019 222.47 200.643 223 200.039 223.483C199.434 223.952 198.691 224.233 197.81 224.326C196.658 224.447 195.729 224.27 195.025 223.794C194.333 223.317 193.942 222.651 193.852 221.796ZM205.796 223.133L204.698 212.683L206.193 212.526L206.659 216.954L212.136 216.379L211.671 211.95L213.147 211.795L214.245 222.245L212.769 222.4L212.269 217.641L206.791 218.217L207.292 222.976L205.796 223.133ZM226.599 220.947L225.501 210.496L226.997 210.339L228.095 220.789L226.599 220.947ZM217.353 221.918L216.255 211.468L217.77 211.309L218.217 215.563L220.684 215.303C221.927 215.173 222.888 215.347 223.567 215.825C224.257 216.29 224.655 217.02 224.76 218.017C224.855 218.924 224.622 219.701 224.062 220.349C223.513 220.983 222.663 221.36 221.51 221.481L217.353 221.918ZM218.734 220.477L221.278 220.21C222.716 220.059 223.37 219.374 223.242 218.157C223.114 216.94 222.312 216.409 220.836 216.564L218.35 216.825L218.734 220.477Z" fill="#3A1F17"/>
<rect x="288.5" y="77.5" width="93" height="40" rx="15.5" stroke="#3A1F17"/>
<path d="M306.031 88.3711H307.594V97.7656C307.594 98.7682 307.561 99.7122 307.496 100.598H307.574L308.609 98.7617L314.723 88.3711H316.441V103H314.879V93.625C314.879 92.6484 314.918 91.7044 314.996 90.793H314.898L313.902 92.5312L307.75 103H306.031V88.3711ZM320.035 103V92.4922H321.539V96.9453H327.047V92.4922H328.531V103H327.047V98.2148H321.539V103H320.035ZM330.582 101.711H331.578C333.544 99.1849 334.534 96.112 334.547 92.4922H340.836V101.711H342.301V107.004H340.758V103H332.105V107.004H330.582V101.711ZM333.395 101.711H339.293V93.7617H336.07C336.031 94.9596 335.79 96.2878 335.348 97.7461C334.905 99.2044 334.254 100.526 333.395 101.711ZM344.332 103V92.4922H345.836V98C345.836 98.3516 345.803 99.2435 345.738 100.676H345.816L346.793 99.2305L351.266 92.4922H352.945V103H351.441V97.2773C351.441 96.2357 351.467 95.3828 351.52 94.7188H351.48L350.621 96.0859L346.012 103H344.332ZM357.105 95.4805C357.105 96.0534 357.288 96.4961 357.652 96.8086C358.017 97.1211 358.557 97.2773 359.273 97.2773H362.203V93.7617H359.371C358.616 93.7617 358.049 93.9245 357.672 94.25C357.294 94.5625 357.105 94.9727 357.105 95.4805ZM354.938 103C355.484 102.062 355.888 101.047 356.148 99.9531C356.279 99.4323 356.428 99.0221 356.598 98.7227C356.78 98.4232 357.066 98.1693 357.457 97.9609C356.22 97.4922 355.602 96.6393 355.602 95.4023C355.602 94.569 355.908 93.8789 356.52 93.332C357.132 92.7721 357.997 92.4922 359.117 92.4922H363.707V103H362.203V98.5664H359.312C358.779 98.5664 358.388 98.7161 358.141 99.0156C357.893 99.3151 357.711 99.7253 357.594 100.246C357.281 101.483 356.936 102.401 356.559 103H354.938Z" fill="#3A1F17"/>
<rect x="263.919" y="164.338" width="120" height="40" rx="15.5" transform="rotate(6 263.919 164.338)" stroke="#3A1F17"/>
<path d="M278.689 191.53L280.218 176.981L289.988 178.008L288.459 192.557L286.905 192.394L288.294 179.185L281.631 178.485L280.243 191.694L278.689 191.53ZM293.092 190.334C293.04 190.826 293.203 191.269 293.581 191.662C293.96 192.042 294.512 192.27 295.237 192.346C296.157 192.443 296.971 192.228 297.681 191.7C298.404 191.174 298.814 190.451 298.911 189.531L299.064 188.075C298.479 188.157 297.555 188.23 296.292 188.294C295.262 188.369 294.489 188.569 293.97 188.894C293.451 189.22 293.159 189.699 293.092 190.334ZM291.565 190.291C291.769 188.349 293.398 187.302 296.451 187.152C297.821 187.073 298.733 186.986 299.189 186.89L299.252 186.288C299.32 185.64 299.143 185.078 298.722 184.602C298.301 184.126 297.663 183.843 296.808 183.753C296.187 183.687 295.569 183.773 294.955 184.01C294.355 184.235 293.829 184.572 293.375 185.022L292.49 184.104C293.071 183.563 293.743 183.143 294.508 182.843C295.285 182.545 296.082 182.439 296.898 182.525C299.695 182.819 300.95 184.332 300.663 187.064L299.958 193.766L298.521 193.615L298.701 191.905C298.435 192.44 297.957 192.881 297.266 193.227C296.576 193.561 295.791 193.681 294.91 193.589C293.758 193.468 292.886 193.101 292.296 192.489C291.719 191.878 291.475 191.146 291.565 190.291ZM302.969 194.082L304.068 183.632L305.563 183.789L305.077 188.412L310.458 184.304L312.439 184.512L306.676 188.894L311.516 194.98L309.671 194.787L305.605 189.744L304.879 190.296L304.465 194.239L302.969 194.082ZM312.953 195.132L314.052 184.681L315.547 184.839L314.972 190.316C314.935 190.666 314.809 191.549 314.595 192.967L314.672 192.975L315.795 191.64L320.947 185.406L322.618 185.582L321.519 196.032L320.024 195.875L320.622 190.183C320.731 189.147 320.846 188.302 320.967 187.647L320.928 187.643L319.931 188.913L314.624 195.307L312.953 195.132ZM324.477 191.06C324.651 189.402 325.213 188.106 326.162 187.172C327.113 186.224 328.3 185.825 329.725 185.975C330.657 186.073 331.425 186.429 332.028 187.042C332.646 187.644 333.026 188.325 333.169 189.087L331.848 189.321C331.708 188.782 331.436 188.315 331.033 187.919C330.642 187.525 330.162 187.298 329.592 187.238C328.634 187.137 327.827 187.465 327.172 188.221C326.516 188.976 326.123 189.976 325.992 191.219C325.853 192.54 326.041 193.62 326.555 194.46C327.069 195.299 327.779 195.767 328.686 195.862C329.294 195.926 329.865 195.79 330.398 195.453C330.945 195.105 331.35 194.682 331.611 194.186L332.85 194.729C332.497 195.477 331.928 196.092 331.145 196.572C330.375 197.041 329.511 197.225 328.553 197.125C327.167 196.979 326.094 196.356 325.332 195.254C324.584 194.154 324.299 192.756 324.477 191.06ZM334.45 188.102L334.583 186.839L342.936 187.717L342.803 188.98L339.384 188.62L338.418 197.808L336.923 197.651L337.888 188.463L334.45 188.102ZM344.858 195.775C344.806 196.267 344.969 196.709 345.347 197.103C345.726 197.483 346.278 197.711 347.003 197.787C347.922 197.884 348.737 197.668 349.447 197.141C350.17 196.615 350.58 195.892 350.677 194.972L350.83 193.515C350.245 193.598 349.321 193.671 348.057 193.735C347.028 193.81 346.254 194.01 345.736 194.335C345.217 194.66 344.924 195.14 344.858 195.775ZM343.33 195.732C343.535 193.79 345.163 192.743 348.217 192.593C349.586 192.514 350.499 192.427 350.954 192.331L351.018 191.728C351.086 191.081 350.909 190.519 350.488 190.043C350.066 189.566 349.428 189.283 348.574 189.193C347.952 189.128 347.334 189.214 346.72 189.45C346.121 189.675 345.594 190.013 345.141 190.463L344.256 189.545C344.836 189.004 345.509 188.583 346.273 188.284C347.051 187.986 347.848 187.88 348.664 187.966C351.461 188.26 352.716 189.773 352.428 192.505L351.724 199.207L350.287 199.055L350.466 197.346C350.201 197.881 349.722 198.322 349.031 198.668C348.342 199.002 347.556 199.122 346.676 199.029C345.523 198.908 344.652 198.542 344.062 197.93C343.484 197.319 343.241 196.587 343.33 195.732ZM354.735 199.523L355.833 189.073L357.329 189.23L356.863 193.659L362.341 194.234L362.807 189.806L364.283 189.961L363.184 200.411L361.708 200.256L362.208 195.497L356.731 194.921L356.231 199.68L354.735 199.523Z" fill="#3A1F17"/>
</svg>
